G04 #@! TF.FileFunction,Soldermask,Bot*
%FSLAX46Y46*%
G04 Gerber Fmt 4.6, Leading zero omitted, Abs format (unit mm)*
G04 Created by KiCad (PCBNEW (2014-11-23 BZR 5300)-product) date Mon 09 Feb 2015 01:31:51 PM EST*
%MOMM*%
G01*
G04 APERTURE LIST*
%ADD10C,0.100000*%
%ADD11R,1.998980X1.998980*%
%ADD12C,1.998980*%
%ADD13C,1.600000*%
%ADD14O,3.000000X2.000000*%
%ADD15R,1.727200X2.032000*%
%ADD16O,1.727200X2.032000*%
%ADD17C,3.500000*%
%ADD18C,2.500000*%
%ADD19O,1.699260X3.500120*%
%ADD20C,0.690000*%
G04 APERTURE END LIST*
D10*
D11*
X52040000Y-76000000D03*
D12*
X46960000Y-76000000D03*
D13*
X90000000Y-91500000D03*
X75000000Y-91500000D03*
D11*
X52040000Y-65000000D03*
D12*
X46960000Y-65000000D03*
D14*
X47500000Y-92500000D03*
X47500000Y-97500000D03*
X47500000Y-87500000D03*
X138500000Y-92500000D03*
X138500000Y-87500000D03*
X138500000Y-97500000D03*
D15*
X91850000Y-127500000D03*
D16*
X89310000Y-127500000D03*
X86770000Y-127500000D03*
X84230000Y-127500000D03*
X81690000Y-127500000D03*
X79150000Y-127500000D03*
D15*
X56690000Y-127500000D03*
D16*
X59230000Y-127500000D03*
X61770000Y-127500000D03*
X64310000Y-127500000D03*
D17*
X45500000Y-112000000D03*
X50000000Y-107000000D03*
X50000000Y-117000000D03*
D18*
X50000000Y-112000000D03*
D19*
X123000000Y-55000000D03*
X120460000Y-55000000D03*
X125540000Y-55000000D03*
X103000000Y-55000000D03*
X100460000Y-55000000D03*
X105540000Y-55000000D03*
X63000000Y-55000000D03*
X60460000Y-55000000D03*
X65540000Y-55000000D03*
X83000000Y-55000000D03*
X80460000Y-55000000D03*
X85540000Y-55000000D03*
D11*
X59095000Y-76000000D03*
D12*
X62905000Y-76000000D03*
D20*
X114000000Y-62750000D03*
X114000000Y-61250000D03*
X116000000Y-61250000D03*
X116000000Y-62750000D03*
X94000000Y-62750000D03*
X94000000Y-61250000D03*
X96000000Y-61250000D03*
X96000000Y-62750000D03*
M02*
