G04 #@! TF.FileFunction,Copper,L4,Bot,Signal*
%FSLAX46Y46*%
G04 Gerber Fmt 4.6, Leading zero omitted, Abs format (unit mm)*
G04 Created by KiCad (PCBNEW (2014-11-23 BZR 5300)-product) date Mon 09 Feb 2015 01:31:51 PM EST*
%MOMM*%
G01*
G04 APERTURE LIST*
%ADD10C,0.100000*%
%ADD11R,1.998980X1.998980*%
%ADD12C,1.998980*%
%ADD13C,1.600000*%
%ADD14O,3.000000X2.000000*%
%ADD15R,1.727200X2.032000*%
%ADD16O,1.727200X2.032000*%
%ADD17C,3.500000*%
%ADD18C,2.500000*%
%ADD19O,1.699260X3.500120*%
%ADD20C,0.690000*%
%ADD21C,0.685800*%
%ADD22C,0.863600*%
%ADD23C,0.914400*%
%ADD24C,0.152400*%
%ADD25C,1.625600*%
%ADD26C,0.304800*%
%ADD27C,0.203200*%
%ADD28C,0.406400*%
%ADD29C,1.219200*%
G04 APERTURE END LIST*
D10*
D11*
X52040000Y-76000000D03*
D12*
X46960000Y-76000000D03*
D13*
X90000000Y-91500000D03*
X75000000Y-91500000D03*
D11*
X52040000Y-65000000D03*
D12*
X46960000Y-65000000D03*
D14*
X47500000Y-92500000D03*
X47500000Y-97500000D03*
X47500000Y-87500000D03*
X138500000Y-92500000D03*
X138500000Y-87500000D03*
X138500000Y-97500000D03*
D15*
X91850000Y-127500000D03*
D16*
X89310000Y-127500000D03*
X86770000Y-127500000D03*
X84230000Y-127500000D03*
X81690000Y-127500000D03*
X79150000Y-127500000D03*
D15*
X56690000Y-127500000D03*
D16*
X59230000Y-127500000D03*
X61770000Y-127500000D03*
X64310000Y-127500000D03*
D17*
X45500000Y-112000000D03*
X50000000Y-107000000D03*
X50000000Y-117000000D03*
D18*
X50000000Y-112000000D03*
D19*
X123000000Y-55000000D03*
X120460000Y-55000000D03*
X125540000Y-55000000D03*
X103000000Y-55000000D03*
X100460000Y-55000000D03*
X105540000Y-55000000D03*
X63000000Y-55000000D03*
X60460000Y-55000000D03*
X65540000Y-55000000D03*
X83000000Y-55000000D03*
X80460000Y-55000000D03*
X85540000Y-55000000D03*
D11*
X59095000Y-76000000D03*
D12*
X62905000Y-76000000D03*
D20*
X114000000Y-62750000D03*
X114000000Y-61250000D03*
X116000000Y-61250000D03*
X116000000Y-62750000D03*
X94000000Y-62750000D03*
X94000000Y-61250000D03*
X96000000Y-61250000D03*
X96000000Y-62750000D03*
D21*
X109250000Y-59250000D03*
D22*
X111250000Y-67500000D03*
X87750000Y-61250000D03*
X119000000Y-122000000D03*
X124000000Y-116000000D03*
X115000000Y-116000000D03*
X109000000Y-117000000D03*
X103000000Y-119000000D03*
X104000000Y-116000000D03*
X93000000Y-115000000D03*
X97000000Y-112000000D03*
X93000000Y-112000000D03*
X94000000Y-104000000D03*
X115000000Y-90000000D03*
X115000000Y-80000000D03*
X115000000Y-73000000D03*
X57000000Y-104000000D03*
X65000000Y-104000000D03*
X78000000Y-104000000D03*
X87000000Y-105000000D03*
X87000000Y-101000000D03*
X78000000Y-101000000D03*
X72000000Y-101000000D03*
X65000000Y-101000000D03*
X65000000Y-88000000D03*
X65000000Y-93000000D03*
X68000000Y-95000000D03*
X73000000Y-95000000D03*
X91000000Y-96000000D03*
X87000000Y-95000000D03*
X78000000Y-95000000D03*
X56000000Y-74000000D03*
X76000000Y-80000000D03*
X73000000Y-77000000D03*
X70000000Y-74000000D03*
X62000000Y-71000000D03*
X68000000Y-80000000D03*
X72000000Y-84000000D03*
X78000000Y-87000000D03*
X92000000Y-89000000D03*
X88000000Y-87000000D03*
X85000000Y-64000000D03*
X88000000Y-69000000D03*
X88000000Y-75000000D03*
X88000000Y-80000000D03*
X96000000Y-75000000D03*
X96000000Y-82000000D03*
X107000000Y-75000000D03*
X107000000Y-82000000D03*
X139000000Y-66000000D03*
X139000000Y-76000000D03*
X105000000Y-128000000D03*
X115000000Y-128000000D03*
X125000000Y-128000000D03*
X135000000Y-128000000D03*
X140000000Y-123000000D03*
X140000000Y-112500000D03*
X132500000Y-105000000D03*
X122500000Y-105000000D03*
X110000000Y-105000000D03*
X110000000Y-100000000D03*
X122500000Y-100000000D03*
X132500000Y-100000000D03*
D21*
X118000000Y-62750000D03*
X118000000Y-61250000D03*
D22*
X118000000Y-59250000D03*
D21*
X118000000Y-60500000D03*
X118000000Y-62000000D03*
X118000000Y-63500000D03*
X112000000Y-61250000D03*
X112000000Y-62750000D03*
D22*
X110500000Y-64500000D03*
D21*
X112000000Y-63500000D03*
X112000000Y-62000000D03*
X112000000Y-60500000D03*
X98000000Y-62750000D03*
X98000000Y-61250000D03*
X98000000Y-60500000D03*
X98000000Y-62000000D03*
X98000000Y-63500000D03*
D22*
X98250000Y-59250000D03*
D21*
X92000000Y-61250000D03*
X92000000Y-62750000D03*
X92000000Y-62000000D03*
X92000000Y-60500000D03*
X92000000Y-63500000D03*
D22*
X90500000Y-63750000D03*
X128000000Y-60500000D03*
X128000000Y-59500000D03*
X128000000Y-61500000D03*
X128000000Y-62500000D03*
X108000000Y-61500000D03*
X108000000Y-59500000D03*
X108000000Y-60500000D03*
X108000000Y-62500000D03*
X97750000Y-66750000D03*
X117750000Y-66750000D03*
X57250000Y-90000000D03*
X61000000Y-96500000D03*
X64500000Y-94250000D03*
X64250000Y-59250000D03*
X66500000Y-71000000D03*
X56750000Y-118000000D03*
X63500000Y-119750000D03*
X56750000Y-121500000D03*
X75250000Y-124500000D03*
X78500000Y-123750000D03*
X81500000Y-123750000D03*
X85000000Y-123750000D03*
X88500000Y-123750000D03*
X67750000Y-108250000D03*
X69000000Y-108000000D03*
X75250000Y-118500000D03*
X99500000Y-119250000D03*
X61250000Y-108000000D03*
X63500000Y-106250000D03*
D21*
X99500000Y-123700000D03*
X90200000Y-118000000D03*
X91500000Y-123700000D03*
X121700000Y-114900000D03*
X116200000Y-115000000D03*
X123800000Y-126300000D03*
X129200000Y-126300000D03*
X120500000Y-126500000D03*
X117000000Y-126500000D03*
X113300000Y-126600000D03*
X107700000Y-126600000D03*
D22*
X109250000Y-91750000D03*
X98000000Y-100250000D03*
X94000000Y-95000000D03*
X57500000Y-98750000D03*
X66500000Y-84500000D03*
D21*
X98750000Y-60500000D03*
X98750000Y-61250000D03*
X98750000Y-62000000D03*
X98750000Y-62750000D03*
X98750000Y-63500000D03*
X118750000Y-60500000D03*
X118750000Y-61250000D03*
X118750000Y-62000000D03*
X118750000Y-62750000D03*
X118750000Y-63500000D03*
X58000000Y-85000000D03*
X64000000Y-85000000D03*
X64000000Y-84000000D03*
X64000000Y-83000000D03*
X64000000Y-82000000D03*
X63000000Y-82000000D03*
X62000000Y-82000000D03*
X61000000Y-82000000D03*
X60000000Y-82000000D03*
X59000000Y-82000000D03*
X58000000Y-82000000D03*
X58000000Y-83000000D03*
X58000000Y-84000000D03*
D22*
X62000000Y-109500000D03*
X61750000Y-116500000D03*
D21*
X77500000Y-116000000D03*
X89900000Y-116000000D03*
X106500000Y-119100000D03*
X123800000Y-118100000D03*
D22*
X62500000Y-87500000D03*
D21*
X67000000Y-123250000D03*
D22*
X108000000Y-68500000D03*
X108000000Y-67500000D03*
X108000000Y-65500000D03*
X108000000Y-66500000D03*
X52500000Y-89750000D03*
X52500000Y-96500000D03*
D21*
X73400000Y-116800000D03*
X77900000Y-117500000D03*
D22*
X66750000Y-65500000D03*
D21*
X70300000Y-111200000D03*
X70200000Y-106800000D03*
X112500000Y-109300000D03*
X84500000Y-104900000D03*
X77200000Y-116900000D03*
X72600000Y-116100000D03*
X100450000Y-102300000D03*
X104500000Y-93750000D03*
X74500000Y-126200000D03*
X71400000Y-119600000D03*
X70600000Y-125600000D03*
X69000000Y-119500000D03*
X70300000Y-113300000D03*
X68500000Y-114100000D03*
X82100000Y-107200000D03*
X123700000Y-119900000D03*
X81300000Y-107900000D03*
X107750000Y-120500000D03*
D22*
X94000000Y-100000000D03*
X72000000Y-113000000D03*
X114250000Y-70000000D03*
X113750000Y-86500000D03*
X94250000Y-69250000D03*
X99500000Y-105000000D03*
D21*
X70600000Y-126900000D03*
X69800000Y-120100000D03*
X88000000Y-112250000D03*
X73000000Y-115250000D03*
X73250000Y-114250000D03*
X89500000Y-111500000D03*
X99500000Y-114600000D03*
X101200000Y-120500000D03*
D22*
X66250000Y-97500000D03*
D21*
X78500000Y-114000000D03*
X94300000Y-119200000D03*
X77900000Y-113000000D03*
X94200000Y-123600000D03*
X83700000Y-105800000D03*
X115200000Y-118000000D03*
X82900000Y-106500000D03*
X118900000Y-118000000D03*
D23*
X56500000Y-76000000D02*
X59095000Y-76000000D01*
X54250000Y-78250000D02*
X56500000Y-76000000D01*
X54250000Y-85000000D02*
X54250000Y-78250000D01*
X47500000Y-91750000D02*
X54250000Y-85000000D01*
X47500000Y-92500000D02*
X47500000Y-91750000D01*
D24*
X64000000Y-84000000D02*
X64000000Y-85000000D01*
X64000000Y-82000000D02*
X64000000Y-83000000D01*
X62000000Y-82000000D02*
X63000000Y-82000000D01*
X60000000Y-82000000D02*
X61000000Y-82000000D01*
X58000000Y-82000000D02*
X59000000Y-82000000D01*
X58000000Y-84000000D02*
X58000000Y-83000000D01*
D25*
X108000000Y-65500000D02*
X108000000Y-72750000D01*
X108000000Y-72750000D02*
X109000000Y-73750000D01*
X109000000Y-73750000D02*
X109000000Y-87250000D01*
X109000000Y-87250000D02*
X114250000Y-92500000D01*
X114250000Y-92500000D02*
X138500000Y-92500000D01*
D23*
X138250000Y-92250000D02*
X138500000Y-92500000D01*
D25*
X63000000Y-57500000D02*
X55500000Y-65000000D01*
X55500000Y-65000000D02*
X52040000Y-65000000D01*
X63000000Y-55000000D02*
X63000000Y-57500000D01*
X52040000Y-65000000D02*
X52040000Y-76000000D01*
X52040000Y-82960000D02*
X47500000Y-87500000D01*
X52040000Y-76000000D02*
X52040000Y-82960000D01*
D26*
X52500000Y-96500000D02*
X52500000Y-89750000D01*
D27*
X73400000Y-116800000D02*
X74100000Y-117500000D01*
X74100000Y-117500000D02*
X77900000Y-117500000D01*
D28*
X66750000Y-58750000D02*
X66500000Y-58500000D01*
D29*
X65540000Y-57540000D02*
X66500000Y-58500000D01*
D28*
X66750000Y-65500000D02*
X66750000Y-58750000D01*
D25*
X66250000Y-58250000D02*
X82500000Y-58250000D01*
X82500000Y-58250000D02*
X83000000Y-57750000D01*
X83000000Y-57750000D02*
X83000000Y-55000000D01*
X65540000Y-57540000D02*
X66250000Y-58250000D01*
X65540000Y-55000000D02*
X65540000Y-57540000D01*
D26*
X70300000Y-111200000D02*
X70200000Y-111100000D01*
X70200000Y-111100000D02*
X70200000Y-106800000D01*
X110800000Y-107600000D02*
X112500000Y-109300000D01*
X87200000Y-107600000D02*
X110800000Y-107600000D01*
X84500000Y-104900000D02*
X87200000Y-107600000D01*
D27*
X77200000Y-116900000D02*
X76400000Y-116100000D01*
X76400000Y-116100000D02*
X72600000Y-116100000D01*
D26*
X100450000Y-102300000D02*
X100500000Y-102250000D01*
X104500000Y-94000000D02*
X104500000Y-93750000D01*
X100450000Y-98050000D02*
X104500000Y-94000000D01*
X100450000Y-102300000D02*
X100450000Y-98050000D01*
D27*
X74500000Y-126200000D02*
X71400000Y-123100000D01*
X71400000Y-123100000D02*
X71400000Y-119600000D01*
X70600000Y-125600000D02*
X69000000Y-124000000D01*
X69000000Y-124000000D02*
X69000000Y-119500000D01*
D26*
X70300000Y-113300000D02*
X67800000Y-113300000D01*
X67800000Y-113300000D02*
X64600000Y-116500000D01*
X64600000Y-116500000D02*
X64600000Y-121200000D01*
X64600000Y-121200000D02*
X60800000Y-125000000D01*
X60800000Y-125000000D02*
X59900000Y-125000000D01*
X59900000Y-125000000D02*
X59230000Y-125670000D01*
X59230000Y-125670000D02*
X59230000Y-127500000D01*
X68500000Y-114100000D02*
X65300000Y-117300000D01*
X65300000Y-117300000D02*
X65300000Y-121400000D01*
X65300000Y-121400000D02*
X61770000Y-124930000D01*
X61770000Y-124930000D02*
X61770000Y-127500000D01*
X82100000Y-107200000D02*
X85100000Y-110200000D01*
X85100000Y-110200000D02*
X103900000Y-110200000D01*
X103900000Y-110200000D02*
X113200000Y-119500000D01*
X113200000Y-119500000D02*
X123300000Y-119500000D01*
X123300000Y-119500000D02*
X123700000Y-119900000D01*
X81300000Y-107900000D02*
X81400000Y-107900000D01*
X81300000Y-107900000D02*
X81400000Y-107900000D01*
X107750000Y-117750000D02*
X107750000Y-120500000D01*
X100750000Y-110750000D02*
X107750000Y-117750000D01*
X84500000Y-110750000D02*
X100750000Y-110750000D01*
X81650000Y-107900000D02*
X84500000Y-110750000D01*
X81300000Y-107900000D02*
X81650000Y-107900000D01*
X90000000Y-104000000D02*
X94000000Y-100000000D01*
X81000000Y-104000000D02*
X90000000Y-104000000D01*
X72000000Y-113000000D02*
X81000000Y-104000000D01*
X114250000Y-71250000D02*
X114250000Y-70000000D01*
X113750000Y-71750000D02*
X114250000Y-71250000D01*
X113750000Y-86500000D02*
X113750000Y-71750000D01*
X93500000Y-70000000D02*
X94250000Y-69250000D01*
X93500000Y-87250000D02*
X93500000Y-70000000D01*
X95750000Y-89500000D02*
X93500000Y-87250000D01*
X95750000Y-101250000D02*
X95750000Y-89500000D01*
X99500000Y-105000000D02*
X95750000Y-101250000D01*
D27*
X70600000Y-126900000D02*
X71300000Y-126200000D01*
X71300000Y-126200000D02*
X71300000Y-125200000D01*
X71300000Y-125200000D02*
X69800000Y-123700000D01*
X69800000Y-123700000D02*
X69800000Y-120100000D01*
D26*
X77000000Y-112250000D02*
X88000000Y-112250000D01*
X74000000Y-115250000D02*
X77000000Y-112250000D01*
X73000000Y-115250000D02*
X74000000Y-115250000D01*
X83750000Y-111000000D02*
X84250000Y-111500000D01*
X84250000Y-111500000D02*
X86000000Y-111500000D01*
X82000000Y-111000000D02*
X83500000Y-111000000D01*
X76500000Y-111000000D02*
X82000000Y-111000000D01*
X73250000Y-114250000D02*
X76500000Y-111000000D01*
X83500000Y-111000000D02*
X83750000Y-111000000D01*
X86000000Y-111500000D02*
X89500000Y-111500000D01*
X78500000Y-114000000D02*
X87700000Y-114000000D01*
X87700000Y-114000000D02*
X94200000Y-114000000D01*
X94200000Y-114000000D02*
X95500000Y-115300000D01*
X95500000Y-115300000D02*
X95500000Y-119000000D01*
X95500000Y-119000000D02*
X95300000Y-119200000D01*
X95300000Y-119200000D02*
X94300000Y-119200000D01*
X77900000Y-113000000D02*
X94500000Y-113000000D01*
X94500000Y-113000000D02*
X96200000Y-114700000D01*
X96200000Y-114700000D02*
X96200000Y-122800000D01*
X96200000Y-122800000D02*
X95400000Y-123600000D01*
X95400000Y-123600000D02*
X94200000Y-123600000D01*
X83700000Y-105800000D02*
X86300000Y-108400000D01*
X86300000Y-108400000D02*
X104400000Y-108400000D01*
X104400000Y-108400000D02*
X114000000Y-118000000D01*
X114000000Y-118000000D02*
X115200000Y-118000000D01*
X82900000Y-106500000D02*
X85800000Y-109400000D01*
X85800000Y-109400000D02*
X104300000Y-109400000D01*
X104300000Y-109400000D02*
X113700000Y-118800000D01*
X113700000Y-118800000D02*
X118100000Y-118800000D01*
X118100000Y-118800000D02*
X118900000Y-118000000D01*
D28*
G36*
X124796800Y-71796800D02*
X114780830Y-71796800D01*
X114788815Y-71788815D01*
X114788816Y-71788815D01*
X114887834Y-71640623D01*
X114953996Y-71541605D01*
X114953996Y-71541604D01*
X115012000Y-71250000D01*
X115012000Y-70710807D01*
X115132341Y-70590676D01*
X115291219Y-70208056D01*
X115291580Y-69793762D01*
X115133371Y-69410865D01*
X114840676Y-69117659D01*
X114458056Y-68958781D01*
X114043762Y-68958420D01*
X113660865Y-69116629D01*
X113367659Y-69409324D01*
X113208781Y-69791944D01*
X113208420Y-70206238D01*
X113366629Y-70589135D01*
X113488000Y-70710717D01*
X113488000Y-70934369D01*
X113211185Y-71211185D01*
X113046004Y-71458395D01*
X112988000Y-71750000D01*
X112988000Y-71796800D01*
X112291580Y-71796800D01*
X112291580Y-67293762D01*
X112133371Y-66910865D01*
X111840676Y-66617659D01*
X111458056Y-66458781D01*
X111043762Y-66458420D01*
X110660865Y-66616629D01*
X110367659Y-66909324D01*
X110208781Y-67291944D01*
X110208420Y-67706238D01*
X110366629Y-68089135D01*
X110659324Y-68382341D01*
X111041944Y-68541219D01*
X111456238Y-68541580D01*
X111839135Y-68383371D01*
X112132341Y-68090676D01*
X112291219Y-67708056D01*
X112291580Y-67293762D01*
X112291580Y-71796800D01*
X110203200Y-71796800D01*
X110203200Y-71000000D01*
X110203200Y-55000000D01*
X110203200Y-53203200D01*
X118796800Y-53203200D01*
X118796800Y-55000000D01*
X118796800Y-58203200D01*
X124796800Y-58203200D01*
X124796800Y-71000000D01*
X124796800Y-71796800D01*
X124796800Y-71796800D01*
G37*
X124796800Y-71796800D02*
X114780830Y-71796800D01*
X114788815Y-71788815D01*
X114788816Y-71788815D01*
X114887834Y-71640623D01*
X114953996Y-71541605D01*
X114953996Y-71541604D01*
X115012000Y-71250000D01*
X115012000Y-70710807D01*
X115132341Y-70590676D01*
X115291219Y-70208056D01*
X115291580Y-69793762D01*
X115133371Y-69410865D01*
X114840676Y-69117659D01*
X114458056Y-68958781D01*
X114043762Y-68958420D01*
X113660865Y-69116629D01*
X113367659Y-69409324D01*
X113208781Y-69791944D01*
X113208420Y-70206238D01*
X113366629Y-70589135D01*
X113488000Y-70710717D01*
X113488000Y-70934369D01*
X113211185Y-71211185D01*
X113046004Y-71458395D01*
X112988000Y-71750000D01*
X112988000Y-71796800D01*
X112291580Y-71796800D01*
X112291580Y-67293762D01*
X112133371Y-66910865D01*
X111840676Y-66617659D01*
X111458056Y-66458781D01*
X111043762Y-66458420D01*
X110660865Y-66616629D01*
X110367659Y-66909324D01*
X110208781Y-67291944D01*
X110208420Y-67706238D01*
X110366629Y-68089135D01*
X110659324Y-68382341D01*
X111041944Y-68541219D01*
X111456238Y-68541580D01*
X111839135Y-68383371D01*
X112132341Y-68090676D01*
X112291219Y-67708056D01*
X112291580Y-67293762D01*
X112291580Y-71796800D01*
X110203200Y-71796800D01*
X110203200Y-71000000D01*
X110203200Y-55000000D01*
X110203200Y-53203200D01*
X118796800Y-53203200D01*
X118796800Y-55000000D01*
X118796800Y-58203200D01*
X124796800Y-58203200D01*
X124796800Y-71000000D01*
X124796800Y-71796800D01*
G36*
X104796800Y-71796800D02*
X94262000Y-71796800D01*
X94262000Y-70315630D01*
X94286198Y-70291431D01*
X94456238Y-70291580D01*
X94839135Y-70133371D01*
X95132341Y-69840676D01*
X95291219Y-69458056D01*
X95291580Y-69043762D01*
X95133371Y-68660865D01*
X94840676Y-68367659D01*
X94458056Y-68208781D01*
X94043762Y-68208420D01*
X93660865Y-68366629D01*
X93367659Y-68659324D01*
X93208781Y-69041944D01*
X93208631Y-69213738D01*
X92961185Y-69461185D01*
X92796004Y-69708395D01*
X92738000Y-70000000D01*
X92738000Y-71796800D01*
X90203200Y-71796800D01*
X90203200Y-71000000D01*
X90203200Y-58000000D01*
X90203200Y-55000000D01*
X90203200Y-53203200D01*
X98796800Y-53203200D01*
X98796800Y-55000000D01*
X98796800Y-58203200D01*
X104796800Y-58203200D01*
X104796800Y-71000000D01*
X104796800Y-71796800D01*
X104796800Y-71796800D01*
G37*
X104796800Y-71796800D02*
X94262000Y-71796800D01*
X94262000Y-70315630D01*
X94286198Y-70291431D01*
X94456238Y-70291580D01*
X94839135Y-70133371D01*
X95132341Y-69840676D01*
X95291219Y-69458056D01*
X95291580Y-69043762D01*
X95133371Y-68660865D01*
X94840676Y-68367659D01*
X94458056Y-68208781D01*
X94043762Y-68208420D01*
X93660865Y-68366629D01*
X93367659Y-68659324D01*
X93208781Y-69041944D01*
X93208631Y-69213738D01*
X92961185Y-69461185D01*
X92796004Y-69708395D01*
X92738000Y-70000000D01*
X92738000Y-71796800D01*
X90203200Y-71796800D01*
X90203200Y-71000000D01*
X90203200Y-58000000D01*
X90203200Y-55000000D01*
X90203200Y-53203200D01*
X98796800Y-53203200D01*
X98796800Y-55000000D01*
X98796800Y-58203200D01*
X104796800Y-58203200D01*
X104796800Y-71000000D01*
X104796800Y-71796800D01*
G36*
X65796800Y-86796800D02*
X56203200Y-86796800D01*
X56203200Y-86000000D01*
X56203200Y-80203200D01*
X65796800Y-80203200D01*
X65796800Y-83730495D01*
X65617659Y-83909324D01*
X65458781Y-84291944D01*
X65458420Y-84706238D01*
X65616629Y-85089135D01*
X65796800Y-85269620D01*
X65796800Y-86796800D01*
X65796800Y-86796800D01*
G37*
X65796800Y-86796800D02*
X56203200Y-86796800D01*
X56203200Y-86000000D01*
X56203200Y-80203200D01*
X65796800Y-80203200D01*
X65796800Y-83730495D01*
X65617659Y-83909324D01*
X65458781Y-84291944D01*
X65458420Y-84706238D01*
X65616629Y-85089135D01*
X65796800Y-85269620D01*
X65796800Y-86796800D01*
M02*
