M48
;DRILL file {kicad (2014-11-23 BZR 5300)-product} date Mon 09 Feb 2015 01:31:57 PM EST
;FORMAT={2:4/ absolute / inch / suppress leading zeros}
FMAT,2
INCH,TZ
T1C0.013
T2C0.018
T3C0.031
T4C0.032
T5C0.039
T6C0.040
T7C0.043
T8C0.067
T9C0.102
T10C0.118
%
G90
G05
M72
T1
X22835Y-32283
X22835Y-32677
X22835Y-33071
X22835Y-33465
X23228Y-32283
X23622Y-32283
X24016Y-32283
X24409Y-32283
X24803Y-32283
X25197Y-32283
X25197Y-32677
X25197Y-33071
X25197Y-33465
X26378Y-48524
X26969Y-44921
X27165Y-47047
X27480Y-47283
X27638Y-42047
X27677Y-43780
X27677Y-44606
X27795Y-49449
X27795Y-49961
X28110Y-47087
X28583Y-45709
X28740Y-45374
X28839Y-44980
X28898Y-45984
X29331Y-49685
X30394Y-46024
X30512Y-45669
X30669Y-44488
X30669Y-46260
X30906Y-44882
X32008Y-42480
X32323Y-42205
X32638Y-41929
X32953Y-41654
X33268Y-41299
X34646Y-44193
X35236Y-43898
X35394Y-45669
X35512Y-46457
X36024Y-48701
X36220Y-23819
X36220Y-24114
X36220Y-24409
X36220Y-24705
X36220Y-25000
X37008Y-24114
X37008Y-24705
X37087Y-48661
X37126Y-46929
X37795Y-24114
X37795Y-24705
X38583Y-23819
X38583Y-24114
X38583Y-24409
X38583Y-24705
X38583Y-25000
X38878Y-23819
X38878Y-24114
X38878Y-24409
X38878Y-24705
X38878Y-25000
X39173Y-45118
X39173Y-48701
X39547Y-40276
X39843Y-47441
X41142Y-36909
X41929Y-46890
X42402Y-49843
X42421Y-47441
X43012Y-23327
X44094Y-23819
X44094Y-24114
X44094Y-24409
X44094Y-24705
X44094Y-25000
X44291Y-43031
X44606Y-49843
X44882Y-24114
X44882Y-24705
X45354Y-46457
X45669Y-24114
X45669Y-24705
X45748Y-45276
X46063Y-49803
X46457Y-23819
X46457Y-24114
X46457Y-24409
X46457Y-24705
X46457Y-25000
X46752Y-23819
X46752Y-24114
X46752Y-24409
X46752Y-24705
X46752Y-25000
X46811Y-46457
X47441Y-49803
X47913Y-45236
X48701Y-47205
X48740Y-46496
X48740Y-49724
X50866Y-49724
T2
X20669Y-35335
X20669Y-37992
X22047Y-29134
X22343Y-46457
X22343Y-47835
X22441Y-40945
X22539Y-35433
X22638Y-38878
X24016Y-37992
X24114Y-42520
X24311Y-45866
X24409Y-27953
X24409Y-43110
X24606Y-34449
X25000Y-41831
X25000Y-47146
X25295Y-23327
X25394Y-37106
X25591Y-34646
X25591Y-36614
X25591Y-39764
X25591Y-40945
X26083Y-38386
X26181Y-27953
X26181Y-33268
X26280Y-25787
X26673Y-42618
X26772Y-31496
X26772Y-37402
X27165Y-42520
X27559Y-29134
X28346Y-33071
X28346Y-39764
X28346Y-44488
X28740Y-30315
X28740Y-37402
X29626Y-46654
X29626Y-49016
X29921Y-31496
X30709Y-34252
X30709Y-37402
X30709Y-39764
X30709Y-40945
X30906Y-48720
X32087Y-48720
X33465Y-25197
X33465Y-48720
X34252Y-37402
X34252Y-39764
X34252Y-41339
X34547Y-24114
X34646Y-27165
X34646Y-29528
X34646Y-31496
X34646Y-34252
X34843Y-48720
X35630Y-25098
X35827Y-37795
X36220Y-35039
X36614Y-44094
X36614Y-45276
X37008Y-37402
X37008Y-39370
X37008Y-40945
X37106Y-27264
X37795Y-29528
X37795Y-32283
X38189Y-44094
X38484Y-26280
X38583Y-39469
X38681Y-23327
X39173Y-41339
X39173Y-46949
X40551Y-46850
X40945Y-45669
X41339Y-50394
X42126Y-29528
X42126Y-32283
X42520Y-23425
X42520Y-23819
X42520Y-24213
X42520Y-24606
X42520Y-25787
X42520Y-26181
X42520Y-26575
X42520Y-26969
X42913Y-46063
X43012Y-36122
X43307Y-39370
X43307Y-41339
X43504Y-25394
X43799Y-26575
X44783Y-34055
X44980Y-27559
X45276Y-28740
X45276Y-31496
X45276Y-35433
X45276Y-45669
X45276Y-50394
X46358Y-26280
X46457Y-23327
X46850Y-48031
X48228Y-39370
X48228Y-41339
X48819Y-45669
X49213Y-50394
X50394Y-23425
X50394Y-23819
X50394Y-24213
X50394Y-24606
X52165Y-39370
X52165Y-41339
X53150Y-50394
X54724Y-25984
X54724Y-29921
X55118Y-44291
X55118Y-48425
T3
X29528Y-36024
X35433Y-36024
T4
X18488Y-25591
X18488Y-29921
X20488Y-25591
X20488Y-29921
X23266Y-29921
X24766Y-29921
T5
X23803Y-21654
X24803Y-21654
X25803Y-21654
X31677Y-21654
X32677Y-21654
X33677Y-21654
X39551Y-21654
X40551Y-21654
X41551Y-21654
X47425Y-21654
X48425Y-21654
X49425Y-21654
T6
X22319Y-50197
X23319Y-50197
X24319Y-50197
X25319Y-50197
X31161Y-50197
X32161Y-50197
X33161Y-50197
X34161Y-50197
X35161Y-50197
X36161Y-50197
T7
X18701Y-34449
X18701Y-36417
X18701Y-38386
X54528Y-34449
X54528Y-36417
X54528Y-38386
T8
X19685Y-44094
T9
X17913Y-44094
X19685Y-42126
X19685Y-46063
T10
X18898Y-22047
X18898Y-49606
X54331Y-22047
X54331Y-49606
T0
M30
