G04 #@! TF.FileFunction,Soldermask,Top*
%FSLAX46Y46*%
G04 Gerber Fmt 4.6, Leading zero omitted, Abs format (unit mm)*
G04 Created by KiCad (PCBNEW (2014-11-23 BZR 5300)-product) date Mon 09 Feb 2015 01:31:51 PM EST*
%MOMM*%
G01*
G04 APERTURE LIST*
%ADD10C,0.100000*%
%ADD11R,1.000000X1.600000*%
%ADD12R,1.998980X1.998980*%
%ADD13C,1.998980*%
%ADD14C,1.600000*%
%ADD15R,1.198880X1.198880*%
%ADD16R,6.000000X4.500000*%
%ADD17R,6.500000X4.400000*%
%ADD18O,3.000000X2.000000*%
%ADD19R,1.727200X2.032000*%
%ADD20O,1.727200X2.032000*%
%ADD21C,3.500000*%
%ADD22C,2.500000*%
%ADD23O,1.699260X3.500120*%
%ADD24R,0.900000X1.700000*%
%ADD25R,1.500000X0.850000*%
%ADD26R,1.200000X0.600000*%
%ADD27R,0.600000X1.200000*%
%ADD28R,0.600000X1.550000*%
%ADD29R,0.620000X1.220000*%
%ADD30R,0.450000X0.590000*%
%ADD31R,1.000760X0.701040*%
%ADD32R,0.508000X0.762000*%
%ADD33R,1.250000X1.600000*%
%ADD34R,3.250000X1.900000*%
%ADD35R,0.950000X1.900000*%
%ADD36R,1.250000X1.000000*%
%ADD37R,1.000000X1.250000*%
%ADD38R,3.800000X2.750000*%
%ADD39C,0.690000*%
G04 APERTURE END LIST*
D10*
D11*
X123500000Y-59500000D03*
X126500000Y-59500000D03*
X103500000Y-62500000D03*
X106500000Y-62500000D03*
X123500000Y-62500000D03*
X126500000Y-62500000D03*
X103500000Y-59500000D03*
X106500000Y-59500000D03*
X126500000Y-65500000D03*
X123500000Y-65500000D03*
X126500000Y-68500000D03*
X123500000Y-68500000D03*
X106500000Y-68500000D03*
X103500000Y-68500000D03*
X106500000Y-65500000D03*
X103500000Y-65500000D03*
D12*
X52040000Y-76000000D03*
D13*
X46960000Y-76000000D03*
D14*
X90000000Y-91500000D03*
X75000000Y-91500000D03*
D12*
X52040000Y-65000000D03*
D13*
X46960000Y-65000000D03*
D15*
X117000000Y-122950980D03*
X117000000Y-125049020D03*
X120500000Y-122950980D03*
X120500000Y-125049020D03*
D16*
X101500000Y-75250000D03*
X101500000Y-84750000D03*
X121000000Y-75250000D03*
X121000000Y-84750000D03*
D17*
X81500000Y-68150000D03*
X81500000Y-80850000D03*
D18*
X47500000Y-92500000D03*
X47500000Y-97500000D03*
X47500000Y-87500000D03*
X138500000Y-92500000D03*
X138500000Y-87500000D03*
X138500000Y-97500000D03*
D19*
X91850000Y-127500000D03*
D20*
X89310000Y-127500000D03*
X86770000Y-127500000D03*
X84230000Y-127500000D03*
X81690000Y-127500000D03*
X79150000Y-127500000D03*
D19*
X56690000Y-127500000D03*
D20*
X59230000Y-127500000D03*
X61770000Y-127500000D03*
X64310000Y-127500000D03*
D21*
X45500000Y-112000000D03*
X50000000Y-107000000D03*
X50000000Y-117000000D03*
D22*
X50000000Y-112000000D03*
D23*
X123000000Y-55000000D03*
X120460000Y-55000000D03*
X125540000Y-55000000D03*
X103000000Y-55000000D03*
X100460000Y-55000000D03*
X105540000Y-55000000D03*
X63000000Y-55000000D03*
X60460000Y-55000000D03*
X65540000Y-55000000D03*
X83000000Y-55000000D03*
X80460000Y-55000000D03*
X85540000Y-55000000D03*
D24*
X100450000Y-91500000D03*
X97550000Y-91500000D03*
D25*
X116250000Y-113850000D03*
X121750000Y-113850000D03*
X121750000Y-110150000D03*
X116250000Y-110150000D03*
X123750000Y-125350000D03*
X129250000Y-125350000D03*
X129250000Y-121650000D03*
X123750000Y-121650000D03*
X107750000Y-125350000D03*
X113250000Y-125350000D03*
X113250000Y-121650000D03*
X107750000Y-121650000D03*
D26*
X66750000Y-111200000D03*
X66750000Y-112000000D03*
X66750000Y-112800000D03*
X66750000Y-113600000D03*
X66750000Y-114400000D03*
X66750000Y-115200000D03*
X66750000Y-116000000D03*
X66750000Y-116800000D03*
D27*
X68200000Y-118250000D03*
X69000000Y-118250000D03*
X69800000Y-118250000D03*
X70600000Y-118250000D03*
X71400000Y-118250000D03*
X72200000Y-118250000D03*
X73000000Y-118250000D03*
X73800000Y-118250000D03*
D26*
X75250000Y-116800000D03*
X75250000Y-116000000D03*
X75250000Y-115200000D03*
X75250000Y-114400000D03*
X75250000Y-113600000D03*
X75250000Y-112800000D03*
X75250000Y-112000000D03*
X75250000Y-111200000D03*
D27*
X73800000Y-109750000D03*
X73000000Y-109750000D03*
X72200000Y-109750000D03*
X71400000Y-109750000D03*
X70600000Y-109750000D03*
X69800000Y-109750000D03*
X69000000Y-109750000D03*
X68200000Y-109750000D03*
D28*
X64095000Y-69200000D03*
X65365000Y-69200000D03*
X66635000Y-69200000D03*
X67905000Y-69200000D03*
X67905000Y-63800000D03*
X66635000Y-63800000D03*
X65365000Y-63800000D03*
X64095000Y-63800000D03*
D29*
X97050000Y-98810000D03*
X98000000Y-98810000D03*
X98950000Y-98810000D03*
X98950000Y-96190000D03*
X97050000Y-96190000D03*
D30*
X60500000Y-69555000D03*
X60500000Y-67445000D03*
D11*
X104500000Y-91750000D03*
X107500000Y-91750000D03*
D12*
X59095000Y-76000000D03*
D13*
X62905000Y-76000000D03*
D31*
X96770000Y-116047500D03*
X96770000Y-117000000D03*
X96770000Y-117952500D03*
X94230000Y-117952500D03*
X94230000Y-117000000D03*
X94230000Y-116047500D03*
X96770000Y-120547500D03*
X96770000Y-121500000D03*
X96770000Y-122452500D03*
X94230000Y-122452500D03*
X94230000Y-121500000D03*
X94230000Y-120547500D03*
D32*
X61952500Y-95230000D03*
X60047500Y-95230000D03*
X61952500Y-97770000D03*
X61000000Y-95230000D03*
X60047500Y-97770000D03*
D33*
X57900000Y-114850000D03*
X57900000Y-111150000D03*
X60100000Y-111150000D03*
X60100000Y-114850000D03*
D34*
X61000000Y-83950000D03*
D35*
X58700000Y-90050000D03*
X61000000Y-90050000D03*
X63300000Y-90050000D03*
D36*
X55500000Y-91000000D03*
X55500000Y-89000000D03*
X99500000Y-120500000D03*
X99500000Y-122500000D03*
X99500000Y-116000000D03*
X99500000Y-118000000D03*
X64500000Y-97500000D03*
X64500000Y-95500000D03*
X57500000Y-95500000D03*
X57500000Y-97500000D03*
X63500000Y-109500000D03*
X63500000Y-107500000D03*
X91500000Y-116000000D03*
X91500000Y-118000000D03*
X110500000Y-61000000D03*
X110500000Y-63000000D03*
X81500000Y-120500000D03*
X81500000Y-122500000D03*
X81500000Y-115500000D03*
X81500000Y-117500000D03*
X120500000Y-118000000D03*
X120500000Y-120000000D03*
X117000000Y-118000000D03*
X117000000Y-120000000D03*
X94000000Y-98250000D03*
X94000000Y-96250000D03*
D37*
X109500000Y-119000000D03*
X111500000Y-119000000D03*
D36*
X102250000Y-96250000D03*
X102250000Y-98250000D03*
D37*
X72000000Y-124500000D03*
X74000000Y-124500000D03*
X125500000Y-119000000D03*
X127500000Y-119000000D03*
X67500000Y-124500000D03*
X69500000Y-124500000D03*
X58000000Y-121500000D03*
X60000000Y-121500000D03*
X72500000Y-60250000D03*
X70500000Y-60250000D03*
X60500000Y-60250000D03*
X62500000Y-60250000D03*
D36*
X85000000Y-120500000D03*
X85000000Y-122500000D03*
X85000000Y-117500000D03*
X85000000Y-115500000D03*
D37*
X96750000Y-56000000D03*
X94750000Y-56000000D03*
X116750000Y-56000000D03*
X114750000Y-56000000D03*
D36*
X63500000Y-112000000D03*
X63500000Y-114000000D03*
X78500000Y-120500000D03*
X78500000Y-122500000D03*
D37*
X64500000Y-121500000D03*
X62500000Y-121500000D03*
D36*
X112500000Y-111000000D03*
X112500000Y-113000000D03*
X60500000Y-63000000D03*
X60500000Y-65000000D03*
X88500000Y-120500000D03*
X88500000Y-122500000D03*
X66500000Y-88000000D03*
X66500000Y-86000000D03*
X90500000Y-60500000D03*
X90500000Y-62500000D03*
D37*
X113250000Y-67500000D03*
X115250000Y-67500000D03*
X93250000Y-67500000D03*
X95250000Y-67500000D03*
X67500000Y-60250000D03*
X65500000Y-60250000D03*
D36*
X63500000Y-116500000D03*
X63500000Y-118500000D03*
D37*
X60000000Y-118000000D03*
X58000000Y-118000000D03*
X58000000Y-108000000D03*
X60000000Y-108000000D03*
X74000000Y-121500000D03*
X72000000Y-121500000D03*
X67500000Y-121500000D03*
X69500000Y-121500000D03*
D28*
X113095000Y-64700000D03*
X114365000Y-64700000D03*
X115635000Y-64700000D03*
X116905000Y-64700000D03*
X116905000Y-59300000D03*
X115635000Y-59300000D03*
X114365000Y-59300000D03*
X113095000Y-59300000D03*
D38*
X115000000Y-62000000D03*
D39*
X114000000Y-62750000D03*
X114000000Y-61250000D03*
X116000000Y-61250000D03*
X116000000Y-62750000D03*
D28*
X93095000Y-64700000D03*
X94365000Y-64700000D03*
X95635000Y-64700000D03*
X96905000Y-64700000D03*
X96905000Y-59300000D03*
X95635000Y-59300000D03*
X94365000Y-59300000D03*
X93095000Y-59300000D03*
D38*
X95000000Y-62000000D03*
D39*
X94000000Y-62750000D03*
X94000000Y-61250000D03*
X96000000Y-61250000D03*
X96000000Y-62750000D03*
D36*
X91500000Y-120500000D03*
X91500000Y-122500000D03*
X57250000Y-67500000D03*
X57250000Y-69500000D03*
M02*
