G04 #@! TF.FileFunction,Legend,Bot*
%FSLAX46Y46*%
G04 Gerber Fmt 4.6, Leading zero omitted, Abs format (unit mm)*
G04 Created by KiCad (PCBNEW (2014-11-23 BZR 5300)-product) date Mon 09 Feb 2015 01:31:51 PM EST*
%MOMM*%
G01*
G04 APERTURE LIST*
%ADD10C,0.100000*%
%ADD11C,0.150000*%
G04 APERTURE END LIST*
D10*
D11*
X132759527Y-129078571D02*
X132569051Y-129611905D01*
X132378575Y-129078571D01*
X131769051Y-129573810D02*
X131845241Y-129611905D01*
X131997622Y-129611905D01*
X132073813Y-129573810D01*
X132111908Y-129497619D01*
X132111908Y-129192857D01*
X132073813Y-129116667D01*
X131997622Y-129078571D01*
X131845241Y-129078571D01*
X131769051Y-129116667D01*
X131730956Y-129192857D01*
X131730956Y-129269048D01*
X132111908Y-129345238D01*
X131388099Y-129611905D02*
X131388099Y-129078571D01*
X131388099Y-129230952D02*
X131350004Y-129154762D01*
X131311908Y-129116667D01*
X131235718Y-129078571D01*
X131159527Y-129078571D01*
X130930956Y-129573810D02*
X130854766Y-129611905D01*
X130702385Y-129611905D01*
X130626194Y-129573810D01*
X130588099Y-129497619D01*
X130588099Y-129459524D01*
X130626194Y-129383333D01*
X130702385Y-129345238D01*
X130816670Y-129345238D01*
X130892861Y-129307143D01*
X130930956Y-129230952D01*
X130930956Y-129192857D01*
X130892861Y-129116667D01*
X130816670Y-129078571D01*
X130702385Y-129078571D01*
X130626194Y-129116667D01*
X130245242Y-129611905D02*
X130245242Y-129078571D01*
X130245242Y-128811905D02*
X130283337Y-128850000D01*
X130245242Y-128888095D01*
X130207147Y-128850000D01*
X130245242Y-128811905D01*
X130245242Y-128888095D01*
X129750004Y-129611905D02*
X129826195Y-129573810D01*
X129864290Y-129535714D01*
X129902385Y-129459524D01*
X129902385Y-129230952D01*
X129864290Y-129154762D01*
X129826195Y-129116667D01*
X129750004Y-129078571D01*
X129635718Y-129078571D01*
X129559528Y-129116667D01*
X129521433Y-129154762D01*
X129483337Y-129230952D01*
X129483337Y-129459524D01*
X129521433Y-129535714D01*
X129559528Y-129573810D01*
X129635718Y-129611905D01*
X129750004Y-129611905D01*
X129140480Y-129078571D02*
X129140480Y-129611905D01*
X129140480Y-129154762D02*
X129102385Y-129116667D01*
X129026194Y-129078571D01*
X128911908Y-129078571D01*
X128835718Y-129116667D01*
X128797623Y-129192857D01*
X128797623Y-129611905D01*
X128416670Y-129535714D02*
X128378575Y-129573810D01*
X128416670Y-129611905D01*
X128454765Y-129573810D01*
X128416670Y-129535714D01*
X128416670Y-129611905D01*
X128416670Y-129116667D02*
X128378575Y-129154762D01*
X128416670Y-129192857D01*
X128454765Y-129154762D01*
X128416670Y-129116667D01*
X128416670Y-129192857D01*
X127121432Y-129573810D02*
X127197622Y-129611905D01*
X127350003Y-129611905D01*
X127426194Y-129573810D01*
X127464289Y-129497619D01*
X127464289Y-129192857D01*
X127426194Y-129116667D01*
X127350003Y-129078571D01*
X127197622Y-129078571D01*
X127121432Y-129116667D01*
X127083337Y-129192857D01*
X127083337Y-129269048D01*
X127464289Y-129345238D01*
X126435718Y-129573810D02*
X126511908Y-129611905D01*
X126664289Y-129611905D01*
X126740480Y-129573810D01*
X126778575Y-129497619D01*
X126778575Y-129192857D01*
X126740480Y-129116667D01*
X126664289Y-129078571D01*
X126511908Y-129078571D01*
X126435718Y-129116667D01*
X126397623Y-129192857D01*
X126397623Y-129269048D01*
X126778575Y-129345238D01*
X125902385Y-128811905D02*
X125826194Y-128811905D01*
X125750004Y-128850000D01*
X125711909Y-128888095D01*
X125673813Y-128964286D01*
X125635718Y-129116667D01*
X125635718Y-129307143D01*
X125673813Y-129459524D01*
X125711909Y-129535714D01*
X125750004Y-129573810D01*
X125826194Y-129611905D01*
X125902385Y-129611905D01*
X125978575Y-129573810D01*
X126016671Y-129535714D01*
X126054766Y-129459524D01*
X126092861Y-129307143D01*
X126092861Y-129116667D01*
X126054766Y-128964286D01*
X126016671Y-128888095D01*
X125978575Y-128850000D01*
X125902385Y-128811905D01*
X124873813Y-129611905D02*
X125330956Y-129611905D01*
X125102385Y-129611905D02*
X125102385Y-128811905D01*
X125178575Y-128926190D01*
X125254766Y-129002381D01*
X125330956Y-129040476D01*
X124188099Y-128811905D02*
X124340480Y-128811905D01*
X124416670Y-128850000D01*
X124454765Y-128888095D01*
X124530956Y-129002381D01*
X124569051Y-129154762D01*
X124569051Y-129459524D01*
X124530956Y-129535714D01*
X124492861Y-129573810D01*
X124416670Y-129611905D01*
X124264289Y-129611905D01*
X124188099Y-129573810D01*
X124150003Y-129535714D01*
X124111908Y-129459524D01*
X124111908Y-129269048D01*
X124150003Y-129192857D01*
X124188099Y-129154762D01*
X124264289Y-129116667D01*
X124416670Y-129116667D01*
X124492861Y-129154762D01*
X124530956Y-129192857D01*
X124569051Y-129269048D01*
X123426194Y-129611905D02*
X123426194Y-129192857D01*
X123464289Y-129116667D01*
X123540479Y-129078571D01*
X123692860Y-129078571D01*
X123769051Y-129116667D01*
X123426194Y-129573810D02*
X123502384Y-129611905D01*
X123692860Y-129611905D01*
X123769051Y-129573810D01*
X123807146Y-129497619D01*
X123807146Y-129421429D01*
X123769051Y-129345238D01*
X123692860Y-129307143D01*
X123502384Y-129307143D01*
X123426194Y-129269048D01*
X122892860Y-128811905D02*
X122816669Y-128811905D01*
X122740479Y-128850000D01*
X122702384Y-128888095D01*
X122664288Y-128964286D01*
X122626193Y-129116667D01*
X122626193Y-129307143D01*
X122664288Y-129459524D01*
X122702384Y-129535714D01*
X122740479Y-129573810D01*
X122816669Y-129611905D01*
X122892860Y-129611905D01*
X122969050Y-129573810D01*
X123007146Y-129535714D01*
X123045241Y-129459524D01*
X123083336Y-129307143D01*
X123083336Y-129116667D01*
X123045241Y-128964286D01*
X123007146Y-128888095D01*
X122969050Y-128850000D01*
X122892860Y-128811905D01*
X122283336Y-129611905D02*
X122283336Y-128811905D01*
X122283336Y-129116667D02*
X122207145Y-129078571D01*
X122054764Y-129078571D01*
X121978574Y-129116667D01*
X121940479Y-129154762D01*
X121902383Y-129230952D01*
X121902383Y-129459524D01*
X121940479Y-129535714D01*
X121978574Y-129573810D01*
X122054764Y-129611905D01*
X122207145Y-129611905D01*
X122283336Y-129573810D01*
X121216669Y-128811905D02*
X121369050Y-128811905D01*
X121445240Y-128850000D01*
X121483335Y-128888095D01*
X121559526Y-129002381D01*
X121597621Y-129154762D01*
X121597621Y-129459524D01*
X121559526Y-129535714D01*
X121521431Y-129573810D01*
X121445240Y-129611905D01*
X121292859Y-129611905D01*
X121216669Y-129573810D01*
X121178573Y-129535714D01*
X121140478Y-129459524D01*
X121140478Y-129269048D01*
X121178573Y-129192857D01*
X121216669Y-129154762D01*
X121292859Y-129116667D01*
X121445240Y-129116667D01*
X121521431Y-129154762D01*
X121559526Y-129192857D01*
X121597621Y-129269048D01*
X120645240Y-128811905D02*
X120569049Y-128811905D01*
X120492859Y-128850000D01*
X120454764Y-128888095D01*
X120416668Y-128964286D01*
X120378573Y-129116667D01*
X120378573Y-129307143D01*
X120416668Y-129459524D01*
X120454764Y-129535714D01*
X120492859Y-129573810D01*
X120569049Y-129611905D01*
X120645240Y-129611905D01*
X120721430Y-129573810D01*
X120759526Y-129535714D01*
X120797621Y-129459524D01*
X120835716Y-129307143D01*
X120835716Y-129116667D01*
X120797621Y-128964286D01*
X120759526Y-128888095D01*
X120721430Y-128850000D01*
X120645240Y-128811905D01*
X120111906Y-128811905D02*
X119578573Y-128811905D01*
X119921430Y-129611905D01*
X118854763Y-129611905D02*
X119311906Y-129611905D01*
X119083335Y-129611905D02*
X119083335Y-128811905D01*
X119159525Y-128926190D01*
X119235716Y-129002381D01*
X119311906Y-129040476D01*
X118397620Y-129154762D02*
X118473811Y-129116667D01*
X118511906Y-129078571D01*
X118550001Y-129002381D01*
X118550001Y-128964286D01*
X118511906Y-128888095D01*
X118473811Y-128850000D01*
X118397620Y-128811905D01*
X118245239Y-128811905D01*
X118169049Y-128850000D01*
X118130953Y-128888095D01*
X118092858Y-128964286D01*
X118092858Y-129002381D01*
X118130953Y-129078571D01*
X118169049Y-129116667D01*
X118245239Y-129154762D01*
X118397620Y-129154762D01*
X118473811Y-129192857D01*
X118511906Y-129230952D01*
X118550001Y-129307143D01*
X118550001Y-129459524D01*
X118511906Y-129535714D01*
X118473811Y-129573810D01*
X118397620Y-129611905D01*
X118245239Y-129611905D01*
X118169049Y-129573810D01*
X118130953Y-129535714D01*
X118092858Y-129459524D01*
X118092858Y-129307143D01*
X118130953Y-129230952D01*
X118169049Y-129192857D01*
X118245239Y-129154762D01*
X117445239Y-129573810D02*
X117521429Y-129611905D01*
X117673810Y-129611905D01*
X117750001Y-129573810D01*
X117788096Y-129497619D01*
X117788096Y-129192857D01*
X117750001Y-129116667D01*
X117673810Y-129078571D01*
X117521429Y-129078571D01*
X117445239Y-129116667D01*
X117407144Y-129192857D01*
X117407144Y-129269048D01*
X117788096Y-129345238D01*
X117140477Y-128811905D02*
X116645239Y-128811905D01*
X116911906Y-129116667D01*
X116797620Y-129116667D01*
X116721430Y-129154762D01*
X116683334Y-129192857D01*
X116645239Y-129269048D01*
X116645239Y-129459524D01*
X116683334Y-129535714D01*
X116721430Y-129573810D01*
X116797620Y-129611905D01*
X117026192Y-129611905D01*
X117102382Y-129573810D01*
X117140477Y-129535714D01*
X116416668Y-129078571D02*
X116111906Y-129078571D01*
X116302382Y-129611905D02*
X116302382Y-128926190D01*
X116264287Y-128850000D01*
X116188096Y-128811905D01*
X116111906Y-128811905D01*
X115426191Y-129611905D02*
X115883334Y-129611905D01*
X115654763Y-129611905D02*
X115654763Y-128811905D01*
X115730953Y-128926190D01*
X115807144Y-129002381D01*
X115883334Y-129040476D01*
X114740477Y-129573810D02*
X114816667Y-129611905D01*
X114969048Y-129611905D01*
X115045239Y-129573810D01*
X115083334Y-129535714D01*
X115121429Y-129459524D01*
X115121429Y-129230952D01*
X115083334Y-129154762D01*
X115045239Y-129116667D01*
X114969048Y-129078571D01*
X114816667Y-129078571D01*
X114740477Y-129116667D01*
X114397620Y-129611905D02*
X114397620Y-128811905D01*
X114397620Y-129116667D02*
X114321429Y-129078571D01*
X114169048Y-129078571D01*
X114092858Y-129116667D01*
X114054763Y-129154762D01*
X114016667Y-129230952D01*
X114016667Y-129459524D01*
X114054763Y-129535714D01*
X114092858Y-129573810D01*
X114169048Y-129611905D01*
X114321429Y-129611905D01*
X114397620Y-129573810D01*
X113330953Y-129611905D02*
X113330953Y-129192857D01*
X113369048Y-129116667D01*
X113445238Y-129078571D01*
X113597619Y-129078571D01*
X113673810Y-129116667D01*
X113330953Y-129573810D02*
X113407143Y-129611905D01*
X113597619Y-129611905D01*
X113673810Y-129573810D01*
X113711905Y-129497619D01*
X113711905Y-129421429D01*
X113673810Y-129345238D01*
X113597619Y-129307143D01*
X113407143Y-129307143D01*
X113330953Y-129269048D01*
X112988095Y-128888095D02*
X112950000Y-128850000D01*
X112873809Y-128811905D01*
X112683333Y-128811905D01*
X112607143Y-128850000D01*
X112569047Y-128888095D01*
X112530952Y-128964286D01*
X112530952Y-129040476D01*
X112569047Y-129154762D01*
X113026190Y-129611905D01*
X112530952Y-129611905D01*
X112150000Y-129611905D02*
X111997619Y-129611905D01*
X111921428Y-129573810D01*
X111883333Y-129535714D01*
X111807142Y-129421429D01*
X111769047Y-129269048D01*
X111769047Y-128964286D01*
X111807142Y-128888095D01*
X111845238Y-128850000D01*
X111921428Y-128811905D01*
X112073809Y-128811905D01*
X112150000Y-128850000D01*
X112188095Y-128888095D01*
X112226190Y-128964286D01*
X112226190Y-129154762D01*
X112188095Y-129230952D01*
X112150000Y-129269048D01*
X112073809Y-129307143D01*
X111921428Y-129307143D01*
X111845238Y-129269048D01*
X111807142Y-129230952D01*
X111769047Y-129154762D01*
X111045237Y-128811905D02*
X111426190Y-128811905D01*
X111464285Y-129192857D01*
X111426190Y-129154762D01*
X111349999Y-129116667D01*
X111159523Y-129116667D01*
X111083333Y-129154762D01*
X111045237Y-129192857D01*
X111007142Y-129269048D01*
X111007142Y-129459524D01*
X111045237Y-129535714D01*
X111083333Y-129573810D01*
X111159523Y-129611905D01*
X111349999Y-129611905D01*
X111426190Y-129573810D01*
X111464285Y-129535714D01*
X110702380Y-128888095D02*
X110664285Y-128850000D01*
X110588094Y-128811905D01*
X110397618Y-128811905D01*
X110321428Y-128850000D01*
X110283332Y-128888095D01*
X110245237Y-128964286D01*
X110245237Y-129040476D01*
X110283332Y-129154762D01*
X110740475Y-129611905D01*
X110245237Y-129611905D01*
X109483332Y-129611905D02*
X109940475Y-129611905D01*
X109711904Y-129611905D02*
X109711904Y-128811905D01*
X109788094Y-128926190D01*
X109864285Y-129002381D01*
X109940475Y-129040476D01*
X109178570Y-128888095D02*
X109140475Y-128850000D01*
X109064284Y-128811905D01*
X108873808Y-128811905D01*
X108797618Y-128850000D01*
X108759522Y-128888095D01*
X108721427Y-128964286D01*
X108721427Y-129040476D01*
X108759522Y-129154762D01*
X109216665Y-129611905D01*
X108721427Y-129611905D01*
X107959522Y-129611905D02*
X108416665Y-129611905D01*
X108188094Y-129611905D02*
X108188094Y-128811905D01*
X108264284Y-128926190D01*
X108340475Y-129002381D01*
X108416665Y-129040476D01*
X107273808Y-128811905D02*
X107426189Y-128811905D01*
X107502379Y-128850000D01*
X107540474Y-128888095D01*
X107616665Y-129002381D01*
X107654760Y-129154762D01*
X107654760Y-129459524D01*
X107616665Y-129535714D01*
X107578570Y-129573810D01*
X107502379Y-129611905D01*
X107349998Y-129611905D01*
X107273808Y-129573810D01*
X107235712Y-129535714D01*
X107197617Y-129459524D01*
X107197617Y-129269048D01*
X107235712Y-129192857D01*
X107273808Y-129154762D01*
X107349998Y-129116667D01*
X107502379Y-129116667D01*
X107578570Y-129154762D01*
X107616665Y-129192857D01*
X107654760Y-129269048D01*
X106969046Y-129078571D02*
X106664284Y-129078571D01*
X106854760Y-129611905D02*
X106854760Y-128926190D01*
X106816665Y-128850000D01*
X106740474Y-128811905D01*
X106664284Y-128811905D01*
X106359522Y-129611905D02*
X106207141Y-129611905D01*
X106130950Y-129573810D01*
X106092855Y-129535714D01*
X106016664Y-129421429D01*
X105978569Y-129269048D01*
X105978569Y-128964286D01*
X106016664Y-128888095D01*
X106054760Y-128850000D01*
X106130950Y-128811905D01*
X106283331Y-128811905D01*
X106359522Y-128850000D01*
X106397617Y-128888095D01*
X106435712Y-128964286D01*
X106435712Y-129154762D01*
X106397617Y-129230952D01*
X106359522Y-129269048D01*
X106283331Y-129307143D01*
X106130950Y-129307143D01*
X106054760Y-129269048D01*
X106016664Y-129230952D01*
X105978569Y-129154762D01*
X105216664Y-129611905D02*
X105673807Y-129611905D01*
X105445236Y-129611905D02*
X105445236Y-128811905D01*
X105521426Y-128926190D01*
X105597617Y-129002381D01*
X105673807Y-129040476D01*
X104949997Y-128811905D02*
X104454759Y-128811905D01*
X104721426Y-129116667D01*
X104607140Y-129116667D01*
X104530950Y-129154762D01*
X104492854Y-129192857D01*
X104454759Y-129269048D01*
X104454759Y-129459524D01*
X104492854Y-129535714D01*
X104530950Y-129573810D01*
X104607140Y-129611905D01*
X104835712Y-129611905D01*
X104911902Y-129573810D01*
X104949997Y-129535714D01*
X103769045Y-129573810D02*
X103845235Y-129611905D01*
X103997616Y-129611905D01*
X104073807Y-129573810D01*
X104111902Y-129535714D01*
X104149997Y-129459524D01*
X104149997Y-129230952D01*
X104111902Y-129154762D01*
X104073807Y-129116667D01*
X103997616Y-129078571D01*
X103845235Y-129078571D01*
X103769045Y-129116667D01*
X103540474Y-129078571D02*
X103235712Y-129078571D01*
X103426188Y-129611905D02*
X103426188Y-128926190D01*
X103388093Y-128850000D01*
X103311902Y-128811905D01*
X103235712Y-128811905D01*
X103045235Y-128811905D02*
X102511902Y-128811905D01*
X102854759Y-129611905D01*
X102283330Y-128811905D02*
X101788092Y-128811905D01*
X102054759Y-129116667D01*
X101940473Y-129116667D01*
X101864283Y-129154762D01*
X101826187Y-129192857D01*
X101788092Y-129269048D01*
X101788092Y-129459524D01*
X101826187Y-129535714D01*
X101864283Y-129573810D01*
X101940473Y-129611905D01*
X102169045Y-129611905D01*
X102245235Y-129573810D01*
X102283330Y-129535714D01*
X101102378Y-129611905D02*
X101102378Y-129192857D01*
X101140473Y-129116667D01*
X101216663Y-129078571D01*
X101369044Y-129078571D01*
X101445235Y-129116667D01*
X101102378Y-129573810D02*
X101178568Y-129611905D01*
X101369044Y-129611905D01*
X101445235Y-129573810D01*
X101483330Y-129497619D01*
X101483330Y-129421429D01*
X101445235Y-129345238D01*
X101369044Y-129307143D01*
X101178568Y-129307143D01*
X101102378Y-129269048D01*
X100378568Y-128811905D02*
X100530949Y-128811905D01*
X100607139Y-128850000D01*
X100645234Y-128888095D01*
X100721425Y-129002381D01*
X100759520Y-129154762D01*
X100759520Y-129459524D01*
X100721425Y-129535714D01*
X100683330Y-129573810D01*
X100607139Y-129611905D01*
X100454758Y-129611905D01*
X100378568Y-129573810D01*
X100340472Y-129535714D01*
X100302377Y-129459524D01*
X100302377Y-129269048D01*
X100340472Y-129192857D01*
X100378568Y-129154762D01*
X100454758Y-129116667D01*
X100607139Y-129116667D01*
X100683330Y-129154762D01*
X100721425Y-129192857D01*
X100759520Y-129269048D01*
X99807139Y-128811905D02*
X99730948Y-128811905D01*
X99654758Y-128850000D01*
X99616663Y-128888095D01*
X99578567Y-128964286D01*
X99540472Y-129116667D01*
X99540472Y-129307143D01*
X99578567Y-129459524D01*
X99616663Y-129535714D01*
X99654758Y-129573810D01*
X99730948Y-129611905D01*
X99807139Y-129611905D01*
X99883329Y-129573810D01*
X99921425Y-129535714D01*
X99959520Y-129459524D01*
X99997615Y-129307143D01*
X99997615Y-129116667D01*
X99959520Y-128964286D01*
X99921425Y-128888095D01*
X99883329Y-128850000D01*
X99807139Y-128811905D01*
X99273805Y-128811905D02*
X98778567Y-128811905D01*
X99045234Y-129116667D01*
X98930948Y-129116667D01*
X98854758Y-129154762D01*
X98816662Y-129192857D01*
X98778567Y-129269048D01*
X98778567Y-129459524D01*
X98816662Y-129535714D01*
X98854758Y-129573810D01*
X98930948Y-129611905D01*
X99159520Y-129611905D01*
X99235710Y-129573810D01*
X99273805Y-129535714D01*
M02*
