G04 #@! TF.FileFunction,Copper,L1,Top,Signal*
%FSLAX46Y46*%
G04 Gerber Fmt 4.6, Leading zero omitted, Abs format (unit mm)*
G04 Created by KiCad (PCBNEW (2014-11-23 BZR 5300)-product) date Mon 09 Feb 2015 01:31:51 PM EST*
%MOMM*%
G01*
G04 APERTURE LIST*
%ADD10C,0.100000*%
%ADD11R,1.000000X1.600000*%
%ADD12R,1.998980X1.998980*%
%ADD13C,1.998980*%
%ADD14C,1.600000*%
%ADD15R,1.198880X1.198880*%
%ADD16R,6.000000X4.500000*%
%ADD17R,6.500000X4.400000*%
%ADD18O,3.000000X2.000000*%
%ADD19R,1.727200X2.032000*%
%ADD20O,1.727200X2.032000*%
%ADD21C,3.500000*%
%ADD22C,2.500000*%
%ADD23O,1.699260X3.500120*%
%ADD24R,0.900000X1.700000*%
%ADD25R,1.500000X0.850000*%
%ADD26R,1.200000X0.600000*%
%ADD27R,0.600000X1.200000*%
%ADD28R,0.600000X1.550000*%
%ADD29R,0.620000X1.220000*%
%ADD30R,0.450000X0.590000*%
%ADD31R,1.000760X0.701040*%
%ADD32R,0.508000X0.762000*%
%ADD33R,1.250000X1.600000*%
%ADD34R,3.250000X1.900000*%
%ADD35R,0.950000X1.900000*%
%ADD36R,1.250000X1.000000*%
%ADD37R,1.000000X1.250000*%
%ADD38R,3.800000X2.750000*%
%ADD39C,0.690000*%
%ADD40C,0.685800*%
%ADD41C,0.863600*%
%ADD42C,0.609600*%
%ADD43C,0.406400*%
%ADD44C,0.914400*%
%ADD45C,0.304800*%
%ADD46C,0.203200*%
%ADD47C,0.152400*%
%ADD48C,1.625600*%
%ADD49C,1.219200*%
G04 APERTURE END LIST*
D10*
D11*
X123500000Y-59500000D03*
X126500000Y-59500000D03*
X103500000Y-62500000D03*
X106500000Y-62500000D03*
X123500000Y-62500000D03*
X126500000Y-62500000D03*
X103500000Y-59500000D03*
X106500000Y-59500000D03*
X126500000Y-65500000D03*
X123500000Y-65500000D03*
X126500000Y-68500000D03*
X123500000Y-68500000D03*
X106500000Y-68500000D03*
X103500000Y-68500000D03*
X106500000Y-65500000D03*
X103500000Y-65500000D03*
D12*
X52040000Y-76000000D03*
D13*
X46960000Y-76000000D03*
D14*
X90000000Y-91500000D03*
X75000000Y-91500000D03*
D12*
X52040000Y-65000000D03*
D13*
X46960000Y-65000000D03*
D15*
X117000000Y-122950980D03*
X117000000Y-125049020D03*
X120500000Y-122950980D03*
X120500000Y-125049020D03*
D16*
X101500000Y-75250000D03*
X101500000Y-84750000D03*
X121000000Y-75250000D03*
X121000000Y-84750000D03*
D17*
X81500000Y-68150000D03*
X81500000Y-80850000D03*
D18*
X47500000Y-92500000D03*
X47500000Y-97500000D03*
X47500000Y-87500000D03*
X138500000Y-92500000D03*
X138500000Y-87500000D03*
X138500000Y-97500000D03*
D19*
X91850000Y-127500000D03*
D20*
X89310000Y-127500000D03*
X86770000Y-127500000D03*
X84230000Y-127500000D03*
X81690000Y-127500000D03*
X79150000Y-127500000D03*
D19*
X56690000Y-127500000D03*
D20*
X59230000Y-127500000D03*
X61770000Y-127500000D03*
X64310000Y-127500000D03*
D21*
X45500000Y-112000000D03*
X50000000Y-107000000D03*
X50000000Y-117000000D03*
D22*
X50000000Y-112000000D03*
D23*
X123000000Y-55000000D03*
X120460000Y-55000000D03*
X125540000Y-55000000D03*
X103000000Y-55000000D03*
X100460000Y-55000000D03*
X105540000Y-55000000D03*
X63000000Y-55000000D03*
X60460000Y-55000000D03*
X65540000Y-55000000D03*
X83000000Y-55000000D03*
X80460000Y-55000000D03*
X85540000Y-55000000D03*
D24*
X100450000Y-91500000D03*
X97550000Y-91500000D03*
D25*
X116250000Y-113850000D03*
X121750000Y-113850000D03*
X121750000Y-110150000D03*
X116250000Y-110150000D03*
X123750000Y-125350000D03*
X129250000Y-125350000D03*
X129250000Y-121650000D03*
X123750000Y-121650000D03*
X107750000Y-125350000D03*
X113250000Y-125350000D03*
X113250000Y-121650000D03*
X107750000Y-121650000D03*
D26*
X66750000Y-111200000D03*
X66750000Y-112000000D03*
X66750000Y-112800000D03*
X66750000Y-113600000D03*
X66750000Y-114400000D03*
X66750000Y-115200000D03*
X66750000Y-116000000D03*
X66750000Y-116800000D03*
D27*
X68200000Y-118250000D03*
X69000000Y-118250000D03*
X69800000Y-118250000D03*
X70600000Y-118250000D03*
X71400000Y-118250000D03*
X72200000Y-118250000D03*
X73000000Y-118250000D03*
X73800000Y-118250000D03*
D26*
X75250000Y-116800000D03*
X75250000Y-116000000D03*
X75250000Y-115200000D03*
X75250000Y-114400000D03*
X75250000Y-113600000D03*
X75250000Y-112800000D03*
X75250000Y-112000000D03*
X75250000Y-111200000D03*
D27*
X73800000Y-109750000D03*
X73000000Y-109750000D03*
X72200000Y-109750000D03*
X71400000Y-109750000D03*
X70600000Y-109750000D03*
X69800000Y-109750000D03*
X69000000Y-109750000D03*
X68200000Y-109750000D03*
D28*
X64095000Y-69200000D03*
X65365000Y-69200000D03*
X66635000Y-69200000D03*
X67905000Y-69200000D03*
X67905000Y-63800000D03*
X66635000Y-63800000D03*
X65365000Y-63800000D03*
X64095000Y-63800000D03*
D29*
X97050000Y-98810000D03*
X98000000Y-98810000D03*
X98950000Y-98810000D03*
X98950000Y-96190000D03*
X97050000Y-96190000D03*
D30*
X60500000Y-69555000D03*
X60500000Y-67445000D03*
D11*
X104500000Y-91750000D03*
X107500000Y-91750000D03*
D12*
X59095000Y-76000000D03*
D13*
X62905000Y-76000000D03*
D31*
X96770000Y-116047500D03*
X96770000Y-117000000D03*
X96770000Y-117952500D03*
X94230000Y-117952500D03*
X94230000Y-117000000D03*
X94230000Y-116047500D03*
X96770000Y-120547500D03*
X96770000Y-121500000D03*
X96770000Y-122452500D03*
X94230000Y-122452500D03*
X94230000Y-121500000D03*
X94230000Y-120547500D03*
D32*
X61952500Y-95230000D03*
X60047500Y-95230000D03*
X61952500Y-97770000D03*
X61000000Y-95230000D03*
X60047500Y-97770000D03*
D33*
X57900000Y-114850000D03*
X57900000Y-111150000D03*
X60100000Y-111150000D03*
X60100000Y-114850000D03*
D34*
X61000000Y-83950000D03*
D35*
X58700000Y-90050000D03*
X61000000Y-90050000D03*
X63300000Y-90050000D03*
D36*
X55500000Y-91000000D03*
X55500000Y-89000000D03*
X99500000Y-120500000D03*
X99500000Y-122500000D03*
X99500000Y-116000000D03*
X99500000Y-118000000D03*
X64500000Y-97500000D03*
X64500000Y-95500000D03*
X57500000Y-95500000D03*
X57500000Y-97500000D03*
X63500000Y-109500000D03*
X63500000Y-107500000D03*
X91500000Y-116000000D03*
X91500000Y-118000000D03*
X110500000Y-61000000D03*
X110500000Y-63000000D03*
X81500000Y-120500000D03*
X81500000Y-122500000D03*
X81500000Y-115500000D03*
X81500000Y-117500000D03*
X120500000Y-118000000D03*
X120500000Y-120000000D03*
X117000000Y-118000000D03*
X117000000Y-120000000D03*
X94000000Y-98250000D03*
X94000000Y-96250000D03*
D37*
X109500000Y-119000000D03*
X111500000Y-119000000D03*
D36*
X102250000Y-96250000D03*
X102250000Y-98250000D03*
D37*
X72000000Y-124500000D03*
X74000000Y-124500000D03*
X125500000Y-119000000D03*
X127500000Y-119000000D03*
X67500000Y-124500000D03*
X69500000Y-124500000D03*
X58000000Y-121500000D03*
X60000000Y-121500000D03*
X72500000Y-60250000D03*
X70500000Y-60250000D03*
X60500000Y-60250000D03*
X62500000Y-60250000D03*
D36*
X85000000Y-120500000D03*
X85000000Y-122500000D03*
X85000000Y-117500000D03*
X85000000Y-115500000D03*
D37*
X96750000Y-56000000D03*
X94750000Y-56000000D03*
X116750000Y-56000000D03*
X114750000Y-56000000D03*
D36*
X63500000Y-112000000D03*
X63500000Y-114000000D03*
X78500000Y-120500000D03*
X78500000Y-122500000D03*
D37*
X64500000Y-121500000D03*
X62500000Y-121500000D03*
D36*
X112500000Y-111000000D03*
X112500000Y-113000000D03*
X60500000Y-63000000D03*
X60500000Y-65000000D03*
X88500000Y-120500000D03*
X88500000Y-122500000D03*
X66500000Y-88000000D03*
X66500000Y-86000000D03*
X90500000Y-60500000D03*
X90500000Y-62500000D03*
D37*
X113250000Y-67500000D03*
X115250000Y-67500000D03*
X93250000Y-67500000D03*
X95250000Y-67500000D03*
X67500000Y-60250000D03*
X65500000Y-60250000D03*
D36*
X63500000Y-116500000D03*
X63500000Y-118500000D03*
D37*
X60000000Y-118000000D03*
X58000000Y-118000000D03*
X58000000Y-108000000D03*
X60000000Y-108000000D03*
X74000000Y-121500000D03*
X72000000Y-121500000D03*
X67500000Y-121500000D03*
X69500000Y-121500000D03*
D28*
X113095000Y-64700000D03*
X114365000Y-64700000D03*
X115635000Y-64700000D03*
X116905000Y-64700000D03*
X116905000Y-59300000D03*
X115635000Y-59300000D03*
X114365000Y-59300000D03*
X113095000Y-59300000D03*
D38*
X115000000Y-62000000D03*
D39*
X114000000Y-62750000D03*
X114000000Y-61250000D03*
X116000000Y-61250000D03*
X116000000Y-62750000D03*
D28*
X93095000Y-64700000D03*
X94365000Y-64700000D03*
X95635000Y-64700000D03*
X96905000Y-64700000D03*
X96905000Y-59300000D03*
X95635000Y-59300000D03*
X94365000Y-59300000D03*
X93095000Y-59300000D03*
D38*
X95000000Y-62000000D03*
D39*
X94000000Y-62750000D03*
X94000000Y-61250000D03*
X96000000Y-61250000D03*
X96000000Y-62750000D03*
D36*
X91500000Y-120500000D03*
X91500000Y-122500000D03*
X57250000Y-67500000D03*
X57250000Y-69500000D03*
D40*
X109250000Y-59250000D03*
D41*
X111250000Y-67500000D03*
X87750000Y-61250000D03*
X119000000Y-122000000D03*
X124000000Y-116000000D03*
X115000000Y-116000000D03*
X109000000Y-117000000D03*
X103000000Y-119000000D03*
X104000000Y-116000000D03*
X93000000Y-115000000D03*
X97000000Y-112000000D03*
X93000000Y-112000000D03*
X94000000Y-104000000D03*
X115000000Y-90000000D03*
X115000000Y-80000000D03*
X115000000Y-73000000D03*
X57000000Y-104000000D03*
X65000000Y-104000000D03*
X78000000Y-104000000D03*
X87000000Y-105000000D03*
X87000000Y-101000000D03*
X78000000Y-101000000D03*
X72000000Y-101000000D03*
X65000000Y-101000000D03*
X65000000Y-88000000D03*
X65000000Y-93000000D03*
X68000000Y-95000000D03*
X73000000Y-95000000D03*
X91000000Y-96000000D03*
X87000000Y-95000000D03*
X78000000Y-95000000D03*
X56000000Y-74000000D03*
X76000000Y-80000000D03*
X73000000Y-77000000D03*
X70000000Y-74000000D03*
X62000000Y-71000000D03*
X68000000Y-80000000D03*
X72000000Y-84000000D03*
X78000000Y-87000000D03*
X92000000Y-89000000D03*
X88000000Y-87000000D03*
X85000000Y-64000000D03*
X88000000Y-69000000D03*
X88000000Y-75000000D03*
X88000000Y-80000000D03*
X96000000Y-75000000D03*
X96000000Y-82000000D03*
X107000000Y-75000000D03*
X107000000Y-82000000D03*
X139000000Y-66000000D03*
X139000000Y-76000000D03*
X105000000Y-128000000D03*
X115000000Y-128000000D03*
X125000000Y-128000000D03*
X135000000Y-128000000D03*
X140000000Y-123000000D03*
X140000000Y-112500000D03*
X132500000Y-105000000D03*
X122500000Y-105000000D03*
X110000000Y-105000000D03*
X110000000Y-100000000D03*
X122500000Y-100000000D03*
X132500000Y-100000000D03*
D40*
X118000000Y-62750000D03*
X118000000Y-61250000D03*
D41*
X118000000Y-59250000D03*
D40*
X118000000Y-60500000D03*
X118000000Y-62000000D03*
X118000000Y-63500000D03*
X112000000Y-61250000D03*
X112000000Y-62750000D03*
D41*
X110500000Y-64500000D03*
D40*
X112000000Y-63500000D03*
X112000000Y-62000000D03*
X112000000Y-60500000D03*
X98000000Y-62750000D03*
X98000000Y-61250000D03*
X98000000Y-60500000D03*
X98000000Y-62000000D03*
X98000000Y-63500000D03*
D41*
X98250000Y-59250000D03*
D40*
X92000000Y-61250000D03*
X92000000Y-62750000D03*
X92000000Y-62000000D03*
X92000000Y-60500000D03*
X92000000Y-63500000D03*
D41*
X90500000Y-63750000D03*
X128000000Y-60500000D03*
X128000000Y-59500000D03*
X128000000Y-61500000D03*
X128000000Y-62500000D03*
X108000000Y-61500000D03*
X108000000Y-59500000D03*
X108000000Y-60500000D03*
X108000000Y-62500000D03*
X97750000Y-66750000D03*
X117750000Y-66750000D03*
X57250000Y-90000000D03*
X61000000Y-96500000D03*
X64500000Y-94250000D03*
X64250000Y-59250000D03*
X66500000Y-71000000D03*
X56750000Y-118000000D03*
X63500000Y-119750000D03*
X56750000Y-121500000D03*
X75250000Y-124500000D03*
X78500000Y-123750000D03*
X81500000Y-123750000D03*
X85000000Y-123750000D03*
X88500000Y-123750000D03*
X67750000Y-108250000D03*
X69000000Y-108000000D03*
X75250000Y-118500000D03*
X99500000Y-119250000D03*
X61250000Y-108000000D03*
X63500000Y-106250000D03*
D40*
X99500000Y-123700000D03*
X90200000Y-118000000D03*
X91500000Y-123700000D03*
X121700000Y-114900000D03*
X116200000Y-115000000D03*
X123800000Y-126300000D03*
X129200000Y-126300000D03*
X120500000Y-126500000D03*
X117000000Y-126500000D03*
X113300000Y-126600000D03*
X107700000Y-126600000D03*
D41*
X109250000Y-91750000D03*
X98000000Y-100250000D03*
X94000000Y-95000000D03*
X57500000Y-98750000D03*
X66500000Y-84500000D03*
D40*
X98750000Y-60500000D03*
X98750000Y-61250000D03*
X98750000Y-62000000D03*
X98750000Y-62750000D03*
X98750000Y-63500000D03*
X118750000Y-60500000D03*
X118750000Y-61250000D03*
X118750000Y-62000000D03*
X118750000Y-62750000D03*
X118750000Y-63500000D03*
X58000000Y-85000000D03*
X64000000Y-85000000D03*
X64000000Y-84000000D03*
X64000000Y-83000000D03*
X64000000Y-82000000D03*
X63000000Y-82000000D03*
X62000000Y-82000000D03*
X61000000Y-82000000D03*
X60000000Y-82000000D03*
X59000000Y-82000000D03*
X58000000Y-82000000D03*
X58000000Y-83000000D03*
X58000000Y-84000000D03*
D41*
X62000000Y-109500000D03*
X61750000Y-116500000D03*
D40*
X77500000Y-116000000D03*
X89900000Y-116000000D03*
X106500000Y-119100000D03*
X123800000Y-118100000D03*
D41*
X62500000Y-87500000D03*
D40*
X67000000Y-123250000D03*
D41*
X108000000Y-68500000D03*
X108000000Y-67500000D03*
X108000000Y-65500000D03*
X108000000Y-66500000D03*
X52500000Y-89750000D03*
X52500000Y-96500000D03*
D40*
X73400000Y-116800000D03*
X77900000Y-117500000D03*
D41*
X66750000Y-65500000D03*
D40*
X70300000Y-111200000D03*
X70200000Y-106800000D03*
X112500000Y-109300000D03*
X84500000Y-104900000D03*
X77200000Y-116900000D03*
X72600000Y-116100000D03*
X100450000Y-102300000D03*
X104500000Y-93750000D03*
X74500000Y-126200000D03*
X71400000Y-119600000D03*
X70600000Y-125600000D03*
X69000000Y-119500000D03*
X70300000Y-113300000D03*
X68500000Y-114100000D03*
X82100000Y-107200000D03*
X123700000Y-119900000D03*
X81300000Y-107900000D03*
X107750000Y-120500000D03*
D41*
X94000000Y-100000000D03*
X72000000Y-113000000D03*
X114250000Y-70000000D03*
X113750000Y-86500000D03*
X94250000Y-69250000D03*
X99500000Y-105000000D03*
D40*
X70600000Y-126900000D03*
X69800000Y-120100000D03*
X88000000Y-112250000D03*
X73000000Y-115250000D03*
X73250000Y-114250000D03*
X89500000Y-111500000D03*
X99500000Y-114600000D03*
X101200000Y-120500000D03*
D41*
X66250000Y-97500000D03*
D40*
X78500000Y-114000000D03*
X94300000Y-119200000D03*
X77900000Y-113000000D03*
X94200000Y-123600000D03*
X83700000Y-105800000D03*
X115200000Y-118000000D03*
X82900000Y-106500000D03*
X118900000Y-118000000D03*
D42*
X110500000Y-59300000D02*
X110500000Y-61000000D01*
X109300000Y-59300000D02*
X110500000Y-59300000D01*
X110500000Y-59300000D02*
X110950000Y-59300000D01*
X109250000Y-59250000D02*
X109300000Y-59300000D01*
X90500000Y-59750000D02*
X90500000Y-60500000D01*
X90950000Y-59300000D02*
X90500000Y-59750000D01*
X93095000Y-59300000D02*
X90950000Y-59300000D01*
X113095000Y-59300000D02*
X110950000Y-59300000D01*
X113250000Y-66250000D02*
X113250000Y-67500000D01*
X113095000Y-66095000D02*
X113250000Y-66250000D01*
X113095000Y-64700000D02*
X113095000Y-66095000D01*
X93095000Y-66345000D02*
X93250000Y-66500000D01*
X93250000Y-66500000D02*
X93250000Y-67500000D01*
X93095000Y-64700000D02*
X93095000Y-66345000D01*
X65450000Y-90050000D02*
X63300000Y-90050000D01*
X66500000Y-89000000D02*
X65450000Y-90050000D01*
X66500000Y-88000000D02*
X66500000Y-89000000D01*
D43*
X63300000Y-92700000D02*
X61952500Y-94047500D01*
X61952500Y-94250000D02*
X61952500Y-95230000D01*
X63300000Y-90050000D02*
X63300000Y-92700000D01*
X61905000Y-94000000D02*
X60250000Y-94000000D01*
X60250000Y-94000000D02*
X60047500Y-94202500D01*
X60047500Y-94202500D02*
X60047500Y-95230000D01*
X61952500Y-94047500D02*
X61905000Y-94000000D01*
X61952500Y-94250000D02*
X61952500Y-94047500D01*
X58750000Y-95500000D02*
X59020000Y-95230000D01*
X59020000Y-95230000D02*
X60047500Y-95230000D01*
X57500000Y-95500000D02*
X58750000Y-95500000D01*
X67500000Y-61750000D02*
X67905000Y-62155000D01*
X67905000Y-62155000D02*
X67905000Y-63800000D01*
X67500000Y-60250000D02*
X67500000Y-61750000D01*
D44*
X91000000Y-67500000D02*
X87750000Y-64250000D01*
X87750000Y-64250000D02*
X87750000Y-61250000D01*
X88500000Y-60500000D02*
X90500000Y-60500000D01*
X88500000Y-60500000D02*
X87750000Y-61250000D01*
X93250000Y-67500000D02*
X91000000Y-67500000D01*
X111250000Y-67500000D02*
X113250000Y-67500000D01*
D43*
X51250000Y-92500000D02*
X47500000Y-92500000D01*
X54250000Y-95500000D02*
X51250000Y-92500000D01*
X57500000Y-95500000D02*
X54250000Y-95500000D01*
X59095000Y-73845000D02*
X59095000Y-76000000D01*
X57250000Y-72000000D02*
X59095000Y-73845000D01*
X57250000Y-71000000D02*
X57250000Y-72000000D01*
X57250000Y-69500000D02*
X57250000Y-71000000D01*
X60750000Y-71000000D02*
X57250000Y-71000000D01*
X62000000Y-69750000D02*
X60750000Y-71000000D01*
X62000000Y-68250000D02*
X62000000Y-69750000D01*
X63000000Y-67250000D02*
X62000000Y-68250000D01*
X66500000Y-67250000D02*
X63000000Y-67250000D01*
X67905000Y-65845000D02*
X66500000Y-67250000D01*
X67905000Y-63800000D02*
X67905000Y-65845000D01*
D42*
X117950000Y-59300000D02*
X116905000Y-59300000D01*
X117950000Y-59300000D02*
X118000000Y-59250000D01*
D45*
X118000000Y-61250000D02*
X118000000Y-60500000D01*
X118000000Y-62750000D02*
X118000000Y-62000000D01*
X112000000Y-60500000D02*
X112000000Y-61250000D01*
X112000000Y-62000000D02*
X112000000Y-62750000D01*
X110500000Y-64500000D02*
X111000000Y-64500000D01*
D42*
X110500000Y-64500000D02*
X110500000Y-63000000D01*
D45*
X111000000Y-64500000D02*
X112000000Y-63500000D01*
X98000000Y-61250000D02*
X98000000Y-60500000D01*
X98000000Y-62750000D02*
X98000000Y-62000000D01*
D42*
X98200000Y-59300000D02*
X96905000Y-59300000D01*
X98200000Y-59300000D02*
X98250000Y-59250000D01*
D45*
X92000000Y-60500000D02*
X92000000Y-61250000D01*
X92000000Y-62000000D02*
X92000000Y-62750000D01*
D42*
X90500000Y-63750000D02*
X90500000Y-62500000D01*
X128000000Y-61500000D02*
X128000000Y-60500000D01*
X128000000Y-59500000D02*
X126500000Y-59500000D01*
X128000000Y-60500000D02*
X128000000Y-59500000D01*
X126500000Y-62500000D02*
X128000000Y-62500000D01*
X128000000Y-61500000D02*
X128000000Y-62500000D01*
D44*
X105540000Y-57540000D02*
X105540000Y-55000000D01*
X106500000Y-58500000D02*
X105540000Y-57540000D01*
X106500000Y-59500000D02*
X106500000Y-58500000D01*
X108000000Y-62500000D02*
X108000000Y-61500000D01*
X108000000Y-60500000D02*
X108000000Y-59500000D01*
X108000000Y-59500000D02*
X106500000Y-59500000D01*
X108000000Y-61500000D02*
X108000000Y-60500000D01*
X106500000Y-62500000D02*
X108000000Y-62500000D01*
D42*
X116905000Y-66845000D02*
X116250000Y-67500000D01*
X116250000Y-67500000D02*
X115250000Y-67500000D01*
X116905000Y-64700000D02*
X116905000Y-66845000D01*
X96905000Y-66845000D02*
X96250000Y-67500000D01*
X96250000Y-67500000D02*
X95250000Y-67500000D01*
X96905000Y-66750000D02*
X96905000Y-66845000D01*
X96905000Y-64700000D02*
X96905000Y-66750000D01*
X96905000Y-66750000D02*
X97750000Y-66750000D01*
X117655000Y-66845000D02*
X117750000Y-66750000D01*
X116905000Y-66845000D02*
X117655000Y-66845000D01*
X57300000Y-90050000D02*
X57250000Y-90000000D01*
X58700000Y-90050000D02*
X57300000Y-90050000D01*
D43*
X61000000Y-95230000D02*
X61000000Y-96500000D01*
X64500000Y-95500000D02*
X64500000Y-94250000D01*
X64750000Y-60250000D02*
X64250000Y-59750000D01*
X64250000Y-59750000D02*
X64250000Y-59250000D01*
X65500000Y-60250000D02*
X64750000Y-60250000D01*
X66635000Y-70865000D02*
X66500000Y-71000000D01*
X66635000Y-69200000D02*
X66635000Y-70865000D01*
D45*
X58000000Y-118000000D02*
X56750000Y-118000000D01*
X63500000Y-118500000D02*
X63500000Y-119750000D01*
X58000000Y-121500000D02*
X56750000Y-121500000D01*
X74000000Y-121500000D02*
X74000000Y-124500000D01*
X74000000Y-124500000D02*
X75250000Y-124500000D01*
X78500000Y-122500000D02*
X78500000Y-123750000D01*
X81500000Y-122500000D02*
X81500000Y-123750000D01*
X85000000Y-122500000D02*
X85000000Y-123750000D01*
X88500000Y-122500000D02*
X88500000Y-123750000D01*
X68200000Y-108700000D02*
X67750000Y-108250000D01*
X68200000Y-109750000D02*
X68200000Y-108700000D01*
X69000000Y-109750000D02*
X69000000Y-108000000D01*
X75000000Y-118250000D02*
X75250000Y-118500000D01*
X73800000Y-118250000D02*
X75000000Y-118250000D01*
X92250000Y-118000000D02*
X93250000Y-117000000D01*
X93250000Y-117000000D02*
X94230000Y-117000000D01*
X91500000Y-118000000D02*
X92250000Y-118000000D01*
X99500000Y-118000000D02*
X99500000Y-119250000D01*
X60000000Y-108000000D02*
X61250000Y-108000000D01*
X63500000Y-107500000D02*
X63500000Y-106250000D01*
X92400000Y-122500000D02*
X93400000Y-121500000D01*
X93400000Y-121500000D02*
X94230000Y-121500000D01*
X91500000Y-122500000D02*
X92400000Y-122500000D01*
X99500000Y-122500000D02*
X99500000Y-123700000D01*
X91500000Y-118000000D02*
X90200000Y-118000000D01*
X91500000Y-122500000D02*
X91500000Y-123700000D01*
X113800000Y-113000000D02*
X114650000Y-113850000D01*
X114650000Y-113850000D02*
X116250000Y-113850000D01*
X112500000Y-113000000D02*
X113800000Y-113000000D01*
X121750000Y-114850000D02*
X121700000Y-114900000D01*
X121750000Y-113850000D02*
X121750000Y-114850000D01*
X116250000Y-114950000D02*
X116200000Y-115000000D01*
X116250000Y-113850000D02*
X116250000Y-114950000D01*
X123750000Y-126250000D02*
X123800000Y-126300000D01*
X123750000Y-125350000D02*
X123750000Y-126250000D01*
X129250000Y-126250000D02*
X129200000Y-126300000D01*
X129250000Y-125350000D02*
X129250000Y-126250000D01*
X120500000Y-125049020D02*
X120500000Y-126500000D01*
X117000000Y-125049020D02*
X117000000Y-126500000D01*
X113250000Y-126550000D02*
X113300000Y-126600000D01*
X113250000Y-125350000D02*
X113250000Y-126550000D01*
X107750000Y-126550000D02*
X107700000Y-126600000D01*
X107750000Y-125350000D02*
X107750000Y-126550000D01*
D44*
X107500000Y-91750000D02*
X109250000Y-91750000D01*
D43*
X58700000Y-88200000D02*
X58700000Y-90050000D01*
X58250000Y-87750000D02*
X58700000Y-88200000D01*
X56000000Y-87750000D02*
X58250000Y-87750000D01*
X55500000Y-88250000D02*
X56000000Y-87750000D01*
X55500000Y-89000000D02*
X55500000Y-88250000D01*
D45*
X98000000Y-98810000D02*
X98000000Y-100250000D01*
X94000000Y-96250000D02*
X94000000Y-95000000D01*
X57500000Y-97500000D02*
X57500000Y-98750000D01*
X66500000Y-86000000D02*
X66500000Y-84500000D01*
D46*
X98750000Y-60500000D02*
X98750000Y-61250000D01*
D45*
X65500000Y-112000000D02*
X64250000Y-110750000D01*
X64250000Y-110750000D02*
X62500000Y-110750000D01*
X62500000Y-110750000D02*
X61750000Y-111500000D01*
X61750000Y-111500000D02*
X61750000Y-112500000D01*
X61750000Y-112500000D02*
X61250000Y-113000000D01*
X61250000Y-113000000D02*
X58250000Y-113000000D01*
X58250000Y-113000000D02*
X57900000Y-112650000D01*
X57900000Y-112650000D02*
X57900000Y-111150000D01*
X66750000Y-112000000D02*
X65500000Y-112000000D01*
X57900000Y-109350000D02*
X58000000Y-109250000D01*
X58000000Y-109250000D02*
X58000000Y-108000000D01*
X57900000Y-111150000D02*
X57900000Y-109350000D01*
X61400000Y-114850000D02*
X62250000Y-114000000D01*
X62250000Y-114000000D02*
X63500000Y-114000000D01*
X60100000Y-114850000D02*
X61400000Y-114850000D01*
X60100000Y-117900000D02*
X60000000Y-118000000D01*
X60100000Y-114850000D02*
X60100000Y-117900000D01*
D47*
X58000000Y-84000000D02*
X58000000Y-85000000D01*
X64000000Y-83000000D02*
X64000000Y-84000000D01*
X63000000Y-82000000D02*
X64000000Y-82000000D01*
X61000000Y-82000000D02*
X62000000Y-82000000D01*
X59000000Y-82000000D02*
X60000000Y-82000000D01*
X58000000Y-83000000D02*
X58000000Y-82000000D01*
X61000000Y-83950000D02*
X58050000Y-83950000D01*
X58050000Y-83950000D02*
X58000000Y-84000000D01*
D42*
X61000000Y-88000000D02*
X61000000Y-90050000D01*
X61000000Y-83950000D02*
X61000000Y-88000000D01*
D45*
X63500000Y-115750000D02*
X63500000Y-116500000D01*
X64000000Y-115250000D02*
X63500000Y-115750000D01*
X64500000Y-115250000D02*
X64000000Y-115250000D01*
X65350000Y-114400000D02*
X64500000Y-115250000D01*
X66750000Y-114400000D02*
X65350000Y-114400000D01*
X64500000Y-109500000D02*
X65250000Y-110250000D01*
X65250000Y-110250000D02*
X65250000Y-110750000D01*
X65250000Y-110750000D02*
X65700000Y-111200000D01*
X65700000Y-111200000D02*
X66750000Y-111200000D01*
X63500000Y-109500000D02*
X64500000Y-109500000D01*
X94182500Y-116000000D02*
X94230000Y-116047500D01*
X91500000Y-116000000D02*
X94182500Y-116000000D01*
X91547500Y-120547500D02*
X91500000Y-120500000D01*
X94230000Y-120547500D02*
X91547500Y-120547500D01*
X63500000Y-109500000D02*
X62000000Y-109500000D01*
X61750000Y-116500000D02*
X63500000Y-116500000D01*
D46*
X76200000Y-116800000D02*
X75250000Y-116800000D01*
X77000000Y-116000000D02*
X77500000Y-116000000D01*
X76200000Y-116800000D02*
X77000000Y-116000000D01*
D43*
X89900000Y-116000000D02*
X91500000Y-116000000D01*
X89900000Y-116700000D02*
X89200000Y-117400000D01*
X89200000Y-117400000D02*
X89200000Y-118700000D01*
X89200000Y-118700000D02*
X90000000Y-119500000D01*
X90000000Y-119500000D02*
X90000000Y-120000000D01*
X90000000Y-120000000D02*
X90500000Y-120500000D01*
X90500000Y-120500000D02*
X91500000Y-120500000D01*
X89900000Y-116000000D02*
X89900000Y-116700000D01*
X106500000Y-119100000D02*
X106600000Y-119000000D01*
X106600000Y-119000000D02*
X109500000Y-119000000D01*
X123800000Y-118100000D02*
X124700000Y-119000000D01*
X124700000Y-119000000D02*
X125500000Y-119000000D01*
D46*
X58000000Y-124500000D02*
X56690000Y-125810000D01*
X56690000Y-125810000D02*
X56690000Y-127500000D01*
X67500000Y-124500000D02*
X58000000Y-124500000D01*
D43*
X55500000Y-92250000D02*
X55500000Y-91000000D01*
X55750000Y-92500000D02*
X55500000Y-92250000D01*
X60000000Y-92500000D02*
X55750000Y-92500000D01*
X61000000Y-91500000D02*
X60000000Y-92500000D01*
X61000000Y-90050000D02*
X61000000Y-91500000D01*
D42*
X61000000Y-87500000D02*
X62500000Y-87500000D01*
X61000000Y-90050000D02*
X61000000Y-87500000D01*
D45*
X67500000Y-123750000D02*
X67000000Y-123250000D01*
X67500000Y-124500000D02*
X67500000Y-123750000D01*
D44*
X123000000Y-57500000D02*
X123500000Y-58000000D01*
X123500000Y-58000000D02*
X123500000Y-59500000D01*
X123000000Y-55000000D02*
X123000000Y-57500000D01*
X123500000Y-59500000D02*
X123500000Y-62500000D01*
X123500000Y-62500000D02*
X123500000Y-65500000D01*
X123500000Y-65500000D02*
X123500000Y-68500000D01*
X121750000Y-73000000D02*
X119500000Y-75250000D01*
X123500000Y-70000000D02*
X121750000Y-71750000D01*
X121750000Y-71750000D02*
X121750000Y-73000000D01*
X123500000Y-68500000D02*
X123500000Y-70000000D01*
X103000000Y-57500000D02*
X103500000Y-58000000D01*
X103500000Y-58000000D02*
X103500000Y-59500000D01*
X103000000Y-55000000D02*
X103000000Y-57500000D01*
X103500000Y-59500000D02*
X103500000Y-62500000D01*
X103500000Y-62500000D02*
X103500000Y-65500000D01*
X103500000Y-65500000D02*
X103500000Y-68500000D01*
X103500000Y-70250000D02*
X101500000Y-72250000D01*
X101500000Y-72250000D02*
X101500000Y-75250000D01*
X103500000Y-68500000D02*
X103500000Y-70250000D01*
X138250000Y-87250000D02*
X138500000Y-87500000D01*
X138250000Y-80250000D02*
X138250000Y-87250000D01*
X126500000Y-68500000D02*
X138250000Y-80250000D01*
X126500000Y-65500000D02*
X126500000Y-68500000D01*
X108000000Y-68500000D02*
X108000000Y-67500000D01*
X108000000Y-66500000D02*
X108000000Y-65500000D01*
X108000000Y-65500000D02*
X106500000Y-65500000D01*
X108000000Y-67500000D02*
X108000000Y-66500000D01*
X106500000Y-68500000D02*
X108000000Y-68500000D01*
D45*
X50250000Y-87500000D02*
X47500000Y-87500000D01*
X52500000Y-89750000D02*
X50250000Y-87500000D01*
X56000000Y-100000000D02*
X52500000Y-96500000D01*
X89250000Y-100000000D02*
X56000000Y-100000000D01*
X90750000Y-101500000D02*
X89250000Y-100000000D01*
X90750000Y-105250000D02*
X90750000Y-101500000D01*
X86500000Y-109500000D02*
X90750000Y-105250000D01*
X86500000Y-112750000D02*
X86500000Y-109500000D01*
X85000000Y-114250000D02*
X86500000Y-112750000D01*
X85000000Y-115500000D02*
X85000000Y-114250000D01*
X85000000Y-120500000D02*
X88500000Y-120500000D01*
X85000000Y-117500000D02*
X85000000Y-120500000D01*
D46*
X77900000Y-117500000D02*
X78900000Y-116500000D01*
X78900000Y-116500000D02*
X82800000Y-116500000D01*
X82800000Y-116500000D02*
X83800000Y-117500000D01*
X83800000Y-117500000D02*
X85000000Y-117500000D01*
X66750000Y-116800000D02*
X73400000Y-116800000D01*
D43*
X62000000Y-63000000D02*
X62800000Y-63800000D01*
X62800000Y-63800000D02*
X64095000Y-63800000D01*
X60500000Y-63000000D02*
X62000000Y-63000000D01*
X59945000Y-67445000D02*
X59000000Y-66500000D01*
X59000000Y-66500000D02*
X59000000Y-63500000D01*
X59000000Y-63500000D02*
X59500000Y-63000000D01*
X59500000Y-63000000D02*
X60500000Y-63000000D01*
X60500000Y-67445000D02*
X59945000Y-67445000D01*
X66635000Y-63800000D02*
X66635000Y-65385000D01*
X66635000Y-65385000D02*
X66750000Y-65500000D01*
X62250000Y-65000000D02*
X62750000Y-65500000D01*
X62750000Y-65500000D02*
X66750000Y-65500000D01*
X60500000Y-65000000D02*
X62250000Y-65000000D01*
D48*
X81500000Y-60250000D02*
X83000000Y-58750000D01*
X83000000Y-58750000D02*
X83000000Y-55000000D01*
X81500000Y-68150000D02*
X81500000Y-60250000D01*
D45*
X113800000Y-111000000D02*
X114650000Y-110150000D01*
X114650000Y-110150000D02*
X116250000Y-110150000D01*
X112500000Y-111000000D02*
X113800000Y-111000000D01*
X67900000Y-113600000D02*
X70300000Y-111200000D01*
X70200000Y-106800000D02*
X71900000Y-105100000D01*
X71900000Y-105100000D02*
X72100000Y-104900000D01*
X72100000Y-104900000D02*
X84500000Y-104900000D01*
X66750000Y-113600000D02*
X67900000Y-113600000D01*
X116250000Y-110150000D02*
X121750000Y-110150000D01*
X112500000Y-109300000D02*
X112500000Y-111000000D01*
D49*
X85500000Y-91500000D02*
X90000000Y-91500000D01*
X81500000Y-87500000D02*
X85500000Y-91500000D01*
X81500000Y-80850000D02*
X81500000Y-87500000D01*
X97550000Y-91500000D02*
X90000000Y-91500000D01*
D45*
X98950000Y-94700000D02*
X98950000Y-96190000D01*
X97550000Y-93300000D02*
X98950000Y-94700000D01*
X97550000Y-91500000D02*
X97550000Y-93300000D01*
D46*
X69500000Y-121500000D02*
X72000000Y-121500000D01*
X69100000Y-121100000D02*
X69500000Y-121500000D01*
X68200000Y-119600000D02*
X69100000Y-120500000D01*
X69100000Y-120500000D02*
X69100000Y-121100000D01*
X68200000Y-118250000D02*
X68200000Y-119600000D01*
X62500000Y-121500000D02*
X60000000Y-121500000D01*
D45*
X60000000Y-120500000D02*
X59250000Y-119750000D01*
X59250000Y-119750000D02*
X56750000Y-119750000D01*
X56750000Y-119750000D02*
X54250000Y-117250000D01*
X54250000Y-117250000D02*
X54250000Y-114250000D01*
X54250000Y-114250000D02*
X52000000Y-112000000D01*
X52000000Y-112000000D02*
X50000000Y-112000000D01*
X60000000Y-121500000D02*
X60000000Y-120500000D01*
X81500000Y-120500000D02*
X78500000Y-120500000D01*
X81500000Y-117500000D02*
X81500000Y-120500000D01*
D46*
X78900000Y-117500000D02*
X78200000Y-118200000D01*
X78200000Y-118200000D02*
X77400000Y-118200000D01*
X77400000Y-118200000D02*
X77200000Y-118000000D01*
X77200000Y-118000000D02*
X77200000Y-116900000D01*
X72600000Y-116100000D02*
X67700000Y-116100000D01*
X67700000Y-116100000D02*
X67600000Y-116000000D01*
X67600000Y-116000000D02*
X66750000Y-116000000D01*
X81500000Y-117500000D02*
X78900000Y-117500000D01*
D45*
X117000000Y-120000000D02*
X117000000Y-122950980D01*
X120500000Y-120000000D02*
X120500000Y-122950980D01*
D49*
X101500000Y-84750000D02*
X121000000Y-84750000D01*
D45*
X100450000Y-96250000D02*
X100450000Y-91750000D01*
X100450000Y-97050000D02*
X100450000Y-96250000D01*
X100500000Y-96250000D02*
X100450000Y-96250000D01*
X100450000Y-96250000D02*
X100500000Y-96250000D01*
X102250000Y-96250000D02*
X100450000Y-96250000D01*
D49*
X102250000Y-91750000D02*
X104500000Y-91750000D01*
X100450000Y-91750000D02*
X102250000Y-91750000D01*
X102250000Y-85500000D02*
X101500000Y-84750000D01*
X102250000Y-91750000D02*
X102250000Y-85500000D01*
D45*
X100450000Y-97500000D02*
X100450000Y-97050000D01*
X86250000Y-116500000D02*
X100450000Y-102300000D01*
X84000000Y-116500000D02*
X86250000Y-116500000D01*
X83000000Y-115500000D02*
X84000000Y-116500000D01*
X81500000Y-115500000D02*
X83000000Y-115500000D01*
X97250000Y-97500000D02*
X100450000Y-97500000D01*
X97050000Y-97300000D02*
X97250000Y-97500000D01*
X97050000Y-96190000D02*
X97050000Y-97300000D01*
X104500000Y-93750000D02*
X104500000Y-91750000D01*
D46*
X84230000Y-126130000D02*
X83600000Y-125500000D01*
X83600000Y-125500000D02*
X75200000Y-125500000D01*
X75200000Y-125500000D02*
X74500000Y-126200000D01*
X71400000Y-119600000D02*
X71400000Y-118250000D01*
X84230000Y-127500000D02*
X84230000Y-126130000D01*
X81690000Y-129110000D02*
X81400000Y-129400000D01*
X81400000Y-129400000D02*
X74400000Y-129400000D01*
X74400000Y-129400000D02*
X70600000Y-125600000D01*
X69000000Y-119500000D02*
X69000000Y-118250000D01*
X81690000Y-127500000D02*
X81690000Y-129110000D01*
X74000000Y-127500000D02*
X79150000Y-127500000D01*
X73000000Y-126500000D02*
X74000000Y-127500000D01*
X73000000Y-120250000D02*
X73000000Y-126500000D01*
X72200000Y-119450000D02*
X73000000Y-120250000D01*
X72200000Y-118250000D02*
X72200000Y-119450000D01*
D45*
X71500000Y-112000000D02*
X70300000Y-113200000D01*
X70300000Y-113200000D02*
X70300000Y-113300000D01*
X75250000Y-112000000D02*
X71500000Y-112000000D01*
X71400000Y-111200000D02*
X68500000Y-114100000D01*
X75250000Y-111200000D02*
X71400000Y-111200000D01*
D42*
X119000000Y-55000000D02*
X118000000Y-56000000D01*
X118000000Y-56000000D02*
X116750000Y-56000000D01*
X120460000Y-55000000D02*
X119000000Y-55000000D01*
X99250000Y-55000000D02*
X98250000Y-56000000D01*
X98250000Y-56000000D02*
X96750000Y-56000000D01*
X100460000Y-55000000D02*
X99250000Y-55000000D01*
D43*
X60500000Y-55040000D02*
X60460000Y-55000000D01*
X60500000Y-60250000D02*
X60500000Y-55040000D01*
X77750000Y-60250000D02*
X80460000Y-57540000D01*
X80460000Y-57540000D02*
X80460000Y-55000000D01*
X72500000Y-60250000D02*
X77750000Y-60250000D01*
D45*
X65300000Y-112800000D02*
X64500000Y-112000000D01*
X64500000Y-112000000D02*
X63500000Y-112000000D01*
X66750000Y-112800000D02*
X65300000Y-112800000D01*
D42*
X115635000Y-59300000D02*
X114365000Y-59300000D01*
X114365000Y-57635000D02*
X114750000Y-57250000D01*
X114750000Y-57250000D02*
X114750000Y-56000000D01*
X114365000Y-59300000D02*
X114365000Y-57635000D01*
X94365000Y-57385000D02*
X94750000Y-57000000D01*
X94750000Y-57000000D02*
X94750000Y-56000000D01*
X94365000Y-59300000D02*
X94365000Y-57385000D01*
X95635000Y-59300000D02*
X94365000Y-59300000D01*
D43*
X65365000Y-62615000D02*
X64000000Y-61250000D01*
X64000000Y-61250000D02*
X64000000Y-60500000D01*
X64000000Y-60500000D02*
X63750000Y-60250000D01*
X63750000Y-60250000D02*
X62500000Y-60250000D01*
X65365000Y-63800000D02*
X65365000Y-62615000D01*
X67905000Y-67595000D02*
X70500000Y-65000000D01*
X70500000Y-65000000D02*
X70500000Y-60250000D01*
X67905000Y-69200000D02*
X67905000Y-67595000D01*
D45*
X129250000Y-119750000D02*
X129250000Y-121650000D01*
X128500000Y-119000000D02*
X129250000Y-119750000D01*
X127500000Y-119000000D02*
X128500000Y-119000000D01*
X72200000Y-108300000D02*
X73300000Y-107200000D01*
X73300000Y-107200000D02*
X82100000Y-107200000D01*
X123700000Y-119900000D02*
X123750000Y-119950000D01*
X123750000Y-119950000D02*
X123750000Y-121650000D01*
X72200000Y-109750000D02*
X72200000Y-108300000D01*
X123750000Y-121650000D02*
X129250000Y-121650000D01*
X101000000Y-98250000D02*
X102250000Y-98250000D01*
X100440000Y-98810000D02*
X101000000Y-98250000D01*
X98950000Y-98810000D02*
X100440000Y-98810000D01*
X113250000Y-119450000D02*
X113250000Y-121650000D01*
X112800000Y-119000000D02*
X113250000Y-119450000D01*
X111500000Y-119000000D02*
X112800000Y-119000000D01*
X107750000Y-121650000D02*
X113250000Y-121650000D01*
X73000000Y-109750000D02*
X73000000Y-108500000D01*
X73600000Y-107900000D02*
X81300000Y-107900000D01*
X73000000Y-108500000D02*
X73600000Y-107900000D01*
X107750000Y-120500000D02*
X107750000Y-121650000D01*
X96060000Y-98810000D02*
X95500000Y-98250000D01*
X95500000Y-98250000D02*
X94000000Y-98250000D01*
X97050000Y-98810000D02*
X96060000Y-98810000D01*
X94000000Y-100000000D02*
X94000000Y-98250000D01*
X69800000Y-115200000D02*
X72000000Y-113000000D01*
X66750000Y-115200000D02*
X69800000Y-115200000D01*
X114365000Y-66385000D02*
X114365000Y-64700000D01*
X114250000Y-66500000D02*
X114365000Y-66385000D01*
X114250000Y-70000000D02*
X114250000Y-66500000D01*
X113750000Y-89250000D02*
X113750000Y-86500000D01*
X102250000Y-120750000D02*
X102250000Y-105000000D01*
X101500000Y-121500000D02*
X102250000Y-120750000D01*
X98500000Y-121500000D02*
X101500000Y-121500000D01*
X97547500Y-122452500D02*
X98500000Y-121500000D01*
X96770000Y-122452500D02*
X97547500Y-122452500D01*
X113750000Y-92500000D02*
X113750000Y-89250000D01*
X102250000Y-104000000D02*
X113750000Y-92500000D01*
X102250000Y-105000000D02*
X102250000Y-104000000D01*
X94365000Y-66385000D02*
X94365000Y-64700000D01*
X94250000Y-66500000D02*
X94365000Y-66385000D01*
X94250000Y-69250000D02*
X94250000Y-66500000D01*
X101500000Y-107000000D02*
X99500000Y-105000000D01*
X101500000Y-116250000D02*
X101500000Y-107000000D01*
X100750000Y-117000000D02*
X101500000Y-116250000D01*
X98500000Y-117000000D02*
X100750000Y-117000000D01*
X97547500Y-117952500D02*
X98500000Y-117000000D01*
X96770000Y-117952500D02*
X97547500Y-117952500D01*
D46*
X86770000Y-128730000D02*
X85700000Y-129800000D01*
X85700000Y-129800000D02*
X73500000Y-129800000D01*
X73500000Y-129800000D02*
X70600000Y-126900000D01*
X69800000Y-120100000D02*
X69800000Y-118250000D01*
X86770000Y-127500000D02*
X86770000Y-128730000D01*
D45*
X64095000Y-71595000D02*
X64095000Y-69200000D01*
X69500000Y-77000000D02*
X64095000Y-71595000D01*
X69500000Y-95250000D02*
X69500000Y-77000000D01*
X73000000Y-98750000D02*
X69500000Y-95250000D01*
X89250000Y-98750000D02*
X73000000Y-98750000D01*
X91750000Y-101250000D02*
X89250000Y-98750000D01*
X91750000Y-107500000D02*
X91750000Y-101250000D01*
X88000000Y-111250000D02*
X91750000Y-107500000D01*
X88000000Y-112250000D02*
X88000000Y-111250000D01*
X73750000Y-116000000D02*
X73000000Y-115250000D01*
X75250000Y-116000000D02*
X73750000Y-116000000D01*
X88500000Y-98000000D02*
X73750000Y-98000000D01*
X73750000Y-98000000D02*
X70250000Y-94500000D01*
X70250000Y-94500000D02*
X70250000Y-76250000D01*
X70250000Y-76250000D02*
X65365000Y-71365000D01*
X65365000Y-71365000D02*
X65365000Y-69200000D01*
X74200000Y-115200000D02*
X73250000Y-114250000D01*
X75250000Y-115200000D02*
X74200000Y-115200000D01*
X89500000Y-111500000D02*
X91500000Y-109500000D01*
X89750000Y-98000000D02*
X88500000Y-98000000D01*
X92500000Y-100750000D02*
X89750000Y-98000000D01*
X92500000Y-108500000D02*
X92500000Y-100750000D01*
X91500000Y-109500000D02*
X92500000Y-108500000D01*
D43*
X63250000Y-97500000D02*
X64500000Y-97500000D01*
X62980000Y-97770000D02*
X63250000Y-97500000D01*
X61952500Y-97770000D02*
X62980000Y-97770000D01*
D45*
X99452500Y-116047500D02*
X99500000Y-116000000D01*
X96770000Y-116047500D02*
X99452500Y-116047500D01*
X96770000Y-116047500D02*
X96770000Y-117000000D01*
X99452500Y-120547500D02*
X99500000Y-120500000D01*
X96770000Y-120547500D02*
X99452500Y-120547500D01*
D43*
X99500000Y-116000000D02*
X99500000Y-114600000D01*
X101200000Y-120500000D02*
X99500000Y-120500000D01*
X64500000Y-97500000D02*
X66250000Y-97500000D01*
D45*
X96770000Y-120547500D02*
X96770000Y-121500000D01*
X78100000Y-114400000D02*
X78500000Y-114000000D01*
X94300000Y-119200000D02*
X94230000Y-119130000D01*
X94230000Y-119130000D02*
X94230000Y-117952500D01*
X75250000Y-114400000D02*
X78100000Y-114400000D01*
X77300000Y-113600000D02*
X77900000Y-113000000D01*
X94200000Y-123600000D02*
X94230000Y-123570000D01*
X94230000Y-123570000D02*
X94230000Y-122452500D01*
X75250000Y-113600000D02*
X77300000Y-113600000D01*
X69800000Y-108400000D02*
X72400000Y-105800000D01*
X72400000Y-105800000D02*
X83700000Y-105800000D01*
X115200000Y-118000000D02*
X117000000Y-118000000D01*
X69800000Y-109750000D02*
X69800000Y-108400000D01*
X70600000Y-108800000D02*
X72900000Y-106500000D01*
X72900000Y-106500000D02*
X82900000Y-106500000D01*
X118900000Y-118000000D02*
X120500000Y-118000000D01*
X70600000Y-109750000D02*
X70600000Y-108800000D01*
D46*
X67500000Y-122250000D02*
X68250000Y-123000000D01*
X68250000Y-123000000D02*
X69250000Y-123000000D01*
X69250000Y-123000000D02*
X69500000Y-123250000D01*
X69500000Y-123250000D02*
X69500000Y-124500000D01*
X67500000Y-121500000D02*
X67500000Y-122250000D01*
X69500000Y-124500000D02*
X72000000Y-124500000D01*
X64500000Y-121500000D02*
X67500000Y-121500000D01*
D43*
X59555000Y-69555000D02*
X60500000Y-69555000D01*
X59000000Y-69000000D02*
X59555000Y-69555000D01*
X59000000Y-68500000D02*
X59000000Y-69000000D01*
X58000000Y-67500000D02*
X59000000Y-68500000D01*
X57250000Y-67500000D02*
X58000000Y-67500000D01*
G36*
X103909432Y-72796800D02*
X98803200Y-72796800D01*
X98803200Y-72484168D01*
X101503200Y-69784168D01*
X101503200Y-57884168D01*
X102403200Y-56984168D01*
X102403200Y-56103200D01*
X103596800Y-56103200D01*
X103596800Y-57284168D01*
X103796800Y-57484168D01*
X103796800Y-72684168D01*
X103909432Y-72796800D01*
X103909432Y-72796800D01*
G37*
X103909432Y-72796800D02*
X98803200Y-72796800D01*
X98803200Y-72484168D01*
X101503200Y-69784168D01*
X101503200Y-57884168D01*
X102403200Y-56984168D01*
X102403200Y-56103200D01*
X103596800Y-56103200D01*
X103596800Y-57284168D01*
X103796800Y-57484168D01*
X103796800Y-72684168D01*
X103909432Y-72796800D01*
G36*
X123796800Y-73696800D02*
X118203200Y-73696800D01*
X118203200Y-73084168D01*
X121503200Y-69784168D01*
X121503200Y-57884168D01*
X122403200Y-56984168D01*
X122403200Y-56103200D01*
X123596800Y-56103200D01*
X123596800Y-56661524D01*
X123796800Y-56961524D01*
X123796800Y-73696800D01*
X123796800Y-73696800D01*
G37*
X123796800Y-73696800D02*
X118203200Y-73696800D01*
X118203200Y-73084168D01*
X121503200Y-69784168D01*
X121503200Y-57884168D01*
X122403200Y-56984168D01*
X122403200Y-56103200D01*
X123596800Y-56103200D01*
X123596800Y-56661524D01*
X123796800Y-56961524D01*
X123796800Y-73696800D01*
G36*
X139046800Y-86546800D02*
X137703200Y-86546800D01*
X137703200Y-80665832D01*
X126203200Y-69165832D01*
X126203200Y-64453200D01*
X127296800Y-64453200D01*
X127296800Y-68334168D01*
X139046800Y-80084168D01*
X139046800Y-86546800D01*
X139046800Y-86546800D01*
G37*
X139046800Y-86546800D02*
X137703200Y-86546800D01*
X137703200Y-80665832D01*
X126203200Y-69165832D01*
X126203200Y-64453200D01*
X127296800Y-64453200D01*
X127296800Y-68334168D01*
X139046800Y-80084168D01*
X139046800Y-86546800D01*
G36*
X99796800Y-67796800D02*
X95012000Y-67796800D01*
X95012000Y-66761906D01*
X95012000Y-66761905D01*
X95068996Y-66676605D01*
X95068997Y-66676604D01*
X95127000Y-66385000D01*
X95127000Y-66048669D01*
X95213743Y-66084600D01*
X95456257Y-66084600D01*
X96056257Y-66084600D01*
X96280311Y-65991794D01*
X96451794Y-65820311D01*
X96544600Y-65596257D01*
X96544600Y-65353743D01*
X96544600Y-63803743D01*
X96451794Y-63579689D01*
X96280311Y-63408206D01*
X96056257Y-63315400D01*
X95813743Y-63315400D01*
X95213743Y-63315400D01*
X95000000Y-63403935D01*
X94786257Y-63315400D01*
X94543743Y-63315400D01*
X93943743Y-63315400D01*
X93730000Y-63403935D01*
X93516257Y-63315400D01*
X93273743Y-63315400D01*
X92673743Y-63315400D01*
X92449689Y-63408206D01*
X92278206Y-63579689D01*
X92185400Y-63803743D01*
X92185400Y-64046257D01*
X92185400Y-64675868D01*
X92180600Y-64700000D01*
X92180600Y-66345000D01*
X92198144Y-66433200D01*
X91441883Y-66433200D01*
X90203200Y-65194516D01*
X90203200Y-61609600D01*
X91246257Y-61609600D01*
X91470311Y-61516794D01*
X91641794Y-61345311D01*
X91734600Y-61121257D01*
X91734600Y-60878743D01*
X91734600Y-60214400D01*
X92192915Y-60214400D01*
X92278206Y-60420311D01*
X92449689Y-60591794D01*
X92673743Y-60684600D01*
X92916257Y-60684600D01*
X93516257Y-60684600D01*
X93730000Y-60596064D01*
X93943743Y-60684600D01*
X94186257Y-60684600D01*
X94786257Y-60684600D01*
X95000000Y-60596064D01*
X95213743Y-60684600D01*
X95456257Y-60684600D01*
X96056257Y-60684600D01*
X96280311Y-60591794D01*
X96451794Y-60420311D01*
X96544600Y-60196257D01*
X96544600Y-59953743D01*
X96544600Y-59324131D01*
X96549400Y-59300000D01*
X96544600Y-59275868D01*
X96544600Y-58403743D01*
X96461532Y-58203200D01*
X99796800Y-58203200D01*
X99796800Y-67796800D01*
X99796800Y-67796800D01*
G37*
X99796800Y-67796800D02*
X95012000Y-67796800D01*
X95012000Y-66761906D01*
X95012000Y-66761905D01*
X95068996Y-66676605D01*
X95068997Y-66676604D01*
X95127000Y-66385000D01*
X95127000Y-66048669D01*
X95213743Y-66084600D01*
X95456257Y-66084600D01*
X96056257Y-66084600D01*
X96280311Y-65991794D01*
X96451794Y-65820311D01*
X96544600Y-65596257D01*
X96544600Y-65353743D01*
X96544600Y-63803743D01*
X96451794Y-63579689D01*
X96280311Y-63408206D01*
X96056257Y-63315400D01*
X95813743Y-63315400D01*
X95213743Y-63315400D01*
X95000000Y-63403935D01*
X94786257Y-63315400D01*
X94543743Y-63315400D01*
X93943743Y-63315400D01*
X93730000Y-63403935D01*
X93516257Y-63315400D01*
X93273743Y-63315400D01*
X92673743Y-63315400D01*
X92449689Y-63408206D01*
X92278206Y-63579689D01*
X92185400Y-63803743D01*
X92185400Y-64046257D01*
X92185400Y-64675868D01*
X92180600Y-64700000D01*
X92180600Y-66345000D01*
X92198144Y-66433200D01*
X91441883Y-66433200D01*
X90203200Y-65194516D01*
X90203200Y-61609600D01*
X91246257Y-61609600D01*
X91470311Y-61516794D01*
X91641794Y-61345311D01*
X91734600Y-61121257D01*
X91734600Y-60878743D01*
X91734600Y-60214400D01*
X92192915Y-60214400D01*
X92278206Y-60420311D01*
X92449689Y-60591794D01*
X92673743Y-60684600D01*
X92916257Y-60684600D01*
X93516257Y-60684600D01*
X93730000Y-60596064D01*
X93943743Y-60684600D01*
X94186257Y-60684600D01*
X94786257Y-60684600D01*
X95000000Y-60596064D01*
X95213743Y-60684600D01*
X95456257Y-60684600D01*
X96056257Y-60684600D01*
X96280311Y-60591794D01*
X96451794Y-60420311D01*
X96544600Y-60196257D01*
X96544600Y-59953743D01*
X96544600Y-59324131D01*
X96549400Y-59300000D01*
X96544600Y-59275868D01*
X96544600Y-58403743D01*
X96461532Y-58203200D01*
X99796800Y-58203200D01*
X99796800Y-67796800D01*
G36*
X119796800Y-67796800D02*
X115012000Y-67796800D01*
X115012000Y-66761906D01*
X115012000Y-66761905D01*
X115068996Y-66676605D01*
X115068997Y-66676604D01*
X115127000Y-66385000D01*
X115127000Y-66048669D01*
X115213743Y-66084600D01*
X115456257Y-66084600D01*
X116056257Y-66084600D01*
X116280311Y-65991794D01*
X116451794Y-65820311D01*
X116544600Y-65596257D01*
X116544600Y-65353743D01*
X116544600Y-63803743D01*
X116451794Y-63579689D01*
X116280311Y-63408206D01*
X116056257Y-63315400D01*
X115813743Y-63315400D01*
X115213743Y-63315400D01*
X115000000Y-63403935D01*
X114786257Y-63315400D01*
X114543743Y-63315400D01*
X113943743Y-63315400D01*
X113730000Y-63403935D01*
X113516257Y-63315400D01*
X113273743Y-63315400D01*
X112673743Y-63315400D01*
X112449689Y-63408206D01*
X112278206Y-63579689D01*
X112185400Y-63803743D01*
X112185400Y-64046257D01*
X112185400Y-64675868D01*
X112180600Y-64700000D01*
X112180600Y-66095000D01*
X112247872Y-66433200D01*
X111250000Y-66433200D01*
X111122863Y-66458488D01*
X111043762Y-66458420D01*
X110970011Y-66488892D01*
X110841753Y-66514405D01*
X110733971Y-66586422D01*
X110660865Y-66616629D01*
X110604389Y-66673005D01*
X110495658Y-66745658D01*
X110423640Y-66853440D01*
X110367659Y-66909324D01*
X110337057Y-66983021D01*
X110264405Y-67091753D01*
X110239116Y-67218888D01*
X110208781Y-67291944D01*
X110208711Y-67371744D01*
X110203200Y-67399452D01*
X110203200Y-62109600D01*
X111246257Y-62109600D01*
X111470311Y-62016794D01*
X111641794Y-61845311D01*
X111734600Y-61621257D01*
X111734600Y-61378743D01*
X111734600Y-60378743D01*
X111666527Y-60214400D01*
X112192915Y-60214400D01*
X112278206Y-60420311D01*
X112449689Y-60591794D01*
X112673743Y-60684600D01*
X112916257Y-60684600D01*
X113516257Y-60684600D01*
X113730000Y-60596064D01*
X113943743Y-60684600D01*
X114186257Y-60684600D01*
X114786257Y-60684600D01*
X115000000Y-60596064D01*
X115213743Y-60684600D01*
X115456257Y-60684600D01*
X116056257Y-60684600D01*
X116280311Y-60591794D01*
X116451794Y-60420311D01*
X116544600Y-60196257D01*
X116544600Y-59953743D01*
X116544600Y-59324131D01*
X116549400Y-59300000D01*
X116544600Y-59275868D01*
X116544600Y-58403743D01*
X116461532Y-58203200D01*
X119796800Y-58203200D01*
X119796800Y-67796800D01*
X119796800Y-67796800D01*
G37*
X119796800Y-67796800D02*
X115012000Y-67796800D01*
X115012000Y-66761906D01*
X115012000Y-66761905D01*
X115068996Y-66676605D01*
X115068997Y-66676604D01*
X115127000Y-66385000D01*
X115127000Y-66048669D01*
X115213743Y-66084600D01*
X115456257Y-66084600D01*
X116056257Y-66084600D01*
X116280311Y-65991794D01*
X116451794Y-65820311D01*
X116544600Y-65596257D01*
X116544600Y-65353743D01*
X116544600Y-63803743D01*
X116451794Y-63579689D01*
X116280311Y-63408206D01*
X116056257Y-63315400D01*
X115813743Y-63315400D01*
X115213743Y-63315400D01*
X115000000Y-63403935D01*
X114786257Y-63315400D01*
X114543743Y-63315400D01*
X113943743Y-63315400D01*
X113730000Y-63403935D01*
X113516257Y-63315400D01*
X113273743Y-63315400D01*
X112673743Y-63315400D01*
X112449689Y-63408206D01*
X112278206Y-63579689D01*
X112185400Y-63803743D01*
X112185400Y-64046257D01*
X112185400Y-64675868D01*
X112180600Y-64700000D01*
X112180600Y-66095000D01*
X112247872Y-66433200D01*
X111250000Y-66433200D01*
X111122863Y-66458488D01*
X111043762Y-66458420D01*
X110970011Y-66488892D01*
X110841753Y-66514405D01*
X110733971Y-66586422D01*
X110660865Y-66616629D01*
X110604389Y-66673005D01*
X110495658Y-66745658D01*
X110423640Y-66853440D01*
X110367659Y-66909324D01*
X110337057Y-66983021D01*
X110264405Y-67091753D01*
X110239116Y-67218888D01*
X110208781Y-67291944D01*
X110208711Y-67371744D01*
X110203200Y-67399452D01*
X110203200Y-62109600D01*
X111246257Y-62109600D01*
X111470311Y-62016794D01*
X111641794Y-61845311D01*
X111734600Y-61621257D01*
X111734600Y-61378743D01*
X111734600Y-60378743D01*
X111666527Y-60214400D01*
X112192915Y-60214400D01*
X112278206Y-60420311D01*
X112449689Y-60591794D01*
X112673743Y-60684600D01*
X112916257Y-60684600D01*
X113516257Y-60684600D01*
X113730000Y-60596064D01*
X113943743Y-60684600D01*
X114186257Y-60684600D01*
X114786257Y-60684600D01*
X115000000Y-60596064D01*
X115213743Y-60684600D01*
X115456257Y-60684600D01*
X116056257Y-60684600D01*
X116280311Y-60591794D01*
X116451794Y-60420311D01*
X116544600Y-60196257D01*
X116544600Y-59953743D01*
X116544600Y-59324131D01*
X116549400Y-59300000D01*
X116544600Y-59275868D01*
X116544600Y-58403743D01*
X116461532Y-58203200D01*
X119796800Y-58203200D01*
X119796800Y-67796800D01*
G36*
X64796800Y-85796800D02*
X57203200Y-85796800D01*
X57203200Y-81203200D01*
X64796800Y-81203200D01*
X64796800Y-85796800D01*
X64796800Y-85796800D01*
G37*
X64796800Y-85796800D02*
X57203200Y-85796800D01*
X57203200Y-81203200D01*
X64796800Y-81203200D01*
X64796800Y-85796800D01*
M02*
