G04 #@! TF.FileFunction,Copper,L2,Inr,Signal*
%FSLAX46Y46*%
G04 Gerber Fmt 4.6, Leading zero omitted, Abs format (unit mm)*
G04 Created by KiCad (PCBNEW (2014-11-23 BZR 5300)-product) date Mon 09 Feb 2015 01:31:51 PM EST*
%MOMM*%
G01*
G04 APERTURE LIST*
%ADD10C,0.100000*%
%ADD11R,1.998980X1.998980*%
%ADD12C,1.998980*%
%ADD13C,1.600000*%
%ADD14O,3.000000X2.000000*%
%ADD15R,1.727200X2.032000*%
%ADD16O,1.727200X2.032000*%
%ADD17C,3.500000*%
%ADD18C,2.500000*%
%ADD19O,1.699260X3.500120*%
%ADD20C,0.690000*%
%ADD21C,0.685800*%
%ADD22C,0.863600*%
%ADD23C,0.203200*%
%ADD24C,0.304800*%
%ADD25C,0.406400*%
G04 APERTURE END LIST*
D10*
D11*
X52040000Y-76000000D03*
D12*
X46960000Y-76000000D03*
D13*
X90000000Y-91500000D03*
X75000000Y-91500000D03*
D11*
X52040000Y-65000000D03*
D12*
X46960000Y-65000000D03*
D14*
X47500000Y-92500000D03*
X47500000Y-97500000D03*
X47500000Y-87500000D03*
X138500000Y-92500000D03*
X138500000Y-87500000D03*
X138500000Y-97500000D03*
D15*
X91850000Y-127500000D03*
D16*
X89310000Y-127500000D03*
X86770000Y-127500000D03*
X84230000Y-127500000D03*
X81690000Y-127500000D03*
X79150000Y-127500000D03*
D15*
X56690000Y-127500000D03*
D16*
X59230000Y-127500000D03*
X61770000Y-127500000D03*
X64310000Y-127500000D03*
D17*
X45500000Y-112000000D03*
X50000000Y-107000000D03*
X50000000Y-117000000D03*
D18*
X50000000Y-112000000D03*
D19*
X123000000Y-55000000D03*
X120460000Y-55000000D03*
X125540000Y-55000000D03*
X103000000Y-55000000D03*
X100460000Y-55000000D03*
X105540000Y-55000000D03*
X63000000Y-55000000D03*
X60460000Y-55000000D03*
X65540000Y-55000000D03*
X83000000Y-55000000D03*
X80460000Y-55000000D03*
X85540000Y-55000000D03*
D11*
X59095000Y-76000000D03*
D12*
X62905000Y-76000000D03*
D20*
X114000000Y-62750000D03*
X114000000Y-61250000D03*
X116000000Y-61250000D03*
X116000000Y-62750000D03*
X94000000Y-62750000D03*
X94000000Y-61250000D03*
X96000000Y-61250000D03*
X96000000Y-62750000D03*
D21*
X109250000Y-59250000D03*
D22*
X111250000Y-67500000D03*
X87750000Y-61250000D03*
X119000000Y-122000000D03*
X124000000Y-116000000D03*
X115000000Y-116000000D03*
X109000000Y-117000000D03*
X103000000Y-119000000D03*
X104000000Y-116000000D03*
X93000000Y-115000000D03*
X97000000Y-112000000D03*
X93000000Y-112000000D03*
X94000000Y-104000000D03*
X115000000Y-90000000D03*
X115000000Y-80000000D03*
X115000000Y-73000000D03*
X57000000Y-104000000D03*
X65000000Y-104000000D03*
X78000000Y-104000000D03*
X87000000Y-105000000D03*
X87000000Y-101000000D03*
X78000000Y-101000000D03*
X72000000Y-101000000D03*
X65000000Y-101000000D03*
X65000000Y-88000000D03*
X65000000Y-93000000D03*
X68000000Y-95000000D03*
X73000000Y-95000000D03*
X91000000Y-96000000D03*
X87000000Y-95000000D03*
X78000000Y-95000000D03*
X56000000Y-74000000D03*
X76000000Y-80000000D03*
X73000000Y-77000000D03*
X70000000Y-74000000D03*
X62000000Y-71000000D03*
X68000000Y-80000000D03*
X72000000Y-84000000D03*
X78000000Y-87000000D03*
X92000000Y-89000000D03*
X88000000Y-87000000D03*
X85000000Y-64000000D03*
X88000000Y-69000000D03*
X88000000Y-75000000D03*
X88000000Y-80000000D03*
X96000000Y-75000000D03*
X96000000Y-82000000D03*
X107000000Y-75000000D03*
X107000000Y-82000000D03*
X139000000Y-66000000D03*
X139000000Y-76000000D03*
X105000000Y-128000000D03*
X115000000Y-128000000D03*
X125000000Y-128000000D03*
X135000000Y-128000000D03*
X140000000Y-123000000D03*
X140000000Y-112500000D03*
X132500000Y-105000000D03*
X122500000Y-105000000D03*
X110000000Y-105000000D03*
X110000000Y-100000000D03*
X122500000Y-100000000D03*
X132500000Y-100000000D03*
D21*
X118000000Y-62750000D03*
X118000000Y-61250000D03*
D22*
X118000000Y-59250000D03*
D21*
X118000000Y-60500000D03*
X118000000Y-62000000D03*
X118000000Y-63500000D03*
X112000000Y-61250000D03*
X112000000Y-62750000D03*
D22*
X110500000Y-64500000D03*
D21*
X112000000Y-63500000D03*
X112000000Y-62000000D03*
X112000000Y-60500000D03*
X98000000Y-62750000D03*
X98000000Y-61250000D03*
X98000000Y-60500000D03*
X98000000Y-62000000D03*
X98000000Y-63500000D03*
D22*
X98250000Y-59250000D03*
D21*
X92000000Y-61250000D03*
X92000000Y-62750000D03*
X92000000Y-62000000D03*
X92000000Y-60500000D03*
X92000000Y-63500000D03*
D22*
X90500000Y-63750000D03*
X128000000Y-60500000D03*
X128000000Y-59500000D03*
X128000000Y-61500000D03*
X128000000Y-62500000D03*
X108000000Y-61500000D03*
X108000000Y-59500000D03*
X108000000Y-60500000D03*
X108000000Y-62500000D03*
X97750000Y-66750000D03*
X117750000Y-66750000D03*
X57250000Y-90000000D03*
X61000000Y-96500000D03*
X64500000Y-94250000D03*
X64250000Y-59250000D03*
X66500000Y-71000000D03*
X56750000Y-118000000D03*
X63500000Y-119750000D03*
X56750000Y-121500000D03*
X75250000Y-124500000D03*
X78500000Y-123750000D03*
X81500000Y-123750000D03*
X85000000Y-123750000D03*
X88500000Y-123750000D03*
X67750000Y-108250000D03*
X69000000Y-108000000D03*
X75250000Y-118500000D03*
X99500000Y-119250000D03*
X61250000Y-108000000D03*
X63500000Y-106250000D03*
D21*
X99500000Y-123700000D03*
X90200000Y-118000000D03*
X91500000Y-123700000D03*
X121700000Y-114900000D03*
X116200000Y-115000000D03*
X123800000Y-126300000D03*
X129200000Y-126300000D03*
X120500000Y-126500000D03*
X117000000Y-126500000D03*
X113300000Y-126600000D03*
X107700000Y-126600000D03*
D22*
X109250000Y-91750000D03*
X98000000Y-100250000D03*
X94000000Y-95000000D03*
X57500000Y-98750000D03*
X66500000Y-84500000D03*
D21*
X98750000Y-60500000D03*
X98750000Y-61250000D03*
X98750000Y-62000000D03*
X98750000Y-62750000D03*
X98750000Y-63500000D03*
X118750000Y-60500000D03*
X118750000Y-61250000D03*
X118750000Y-62000000D03*
X118750000Y-62750000D03*
X118750000Y-63500000D03*
X58000000Y-85000000D03*
X64000000Y-85000000D03*
X64000000Y-84000000D03*
X64000000Y-83000000D03*
X64000000Y-82000000D03*
X63000000Y-82000000D03*
X62000000Y-82000000D03*
X61000000Y-82000000D03*
X60000000Y-82000000D03*
X59000000Y-82000000D03*
X58000000Y-82000000D03*
X58000000Y-83000000D03*
X58000000Y-84000000D03*
D22*
X62000000Y-109500000D03*
X61750000Y-116500000D03*
D21*
X77500000Y-116000000D03*
X89900000Y-116000000D03*
X106500000Y-119100000D03*
X123800000Y-118100000D03*
D22*
X62500000Y-87500000D03*
D21*
X67000000Y-123250000D03*
D22*
X108000000Y-68500000D03*
X108000000Y-67500000D03*
X108000000Y-65500000D03*
X108000000Y-66500000D03*
X52500000Y-89750000D03*
X52500000Y-96500000D03*
D21*
X73400000Y-116800000D03*
X77900000Y-117500000D03*
D22*
X66750000Y-65500000D03*
D21*
X70300000Y-111200000D03*
X70200000Y-106800000D03*
X112500000Y-109300000D03*
X84500000Y-104900000D03*
X77200000Y-116900000D03*
X72600000Y-116100000D03*
X100450000Y-102300000D03*
X104500000Y-93750000D03*
X74500000Y-126200000D03*
X71400000Y-119600000D03*
X70600000Y-125600000D03*
X69000000Y-119500000D03*
X70300000Y-113300000D03*
X68500000Y-114100000D03*
X82100000Y-107200000D03*
X123700000Y-119900000D03*
X81300000Y-107900000D03*
X107750000Y-120500000D03*
D22*
X94000000Y-100000000D03*
X72000000Y-113000000D03*
X114250000Y-70000000D03*
X113750000Y-86500000D03*
X94250000Y-69250000D03*
X99500000Y-105000000D03*
D21*
X70600000Y-126900000D03*
X69800000Y-120100000D03*
X88000000Y-112250000D03*
X73000000Y-115250000D03*
X73250000Y-114250000D03*
X89500000Y-111500000D03*
X99500000Y-114600000D03*
X101200000Y-120500000D03*
D22*
X66250000Y-97500000D03*
D21*
X78500000Y-114000000D03*
X94300000Y-119200000D03*
X77900000Y-113000000D03*
X94200000Y-123600000D03*
X83700000Y-105800000D03*
X115200000Y-118000000D03*
X82900000Y-106500000D03*
X118900000Y-118000000D03*
D23*
X122000000Y-119000000D02*
X119000000Y-122000000D01*
X122000000Y-117000000D02*
X122000000Y-119000000D01*
X123000000Y-116000000D02*
X122000000Y-117000000D01*
X124000000Y-116000000D02*
X123000000Y-116000000D01*
X115000000Y-116000000D02*
X124000000Y-116000000D01*
X109000000Y-117000000D02*
X114000000Y-117000000D01*
X114000000Y-117000000D02*
X115000000Y-116000000D01*
X104000000Y-116000000D02*
X108000000Y-116000000D01*
X108000000Y-116000000D02*
X109000000Y-117000000D01*
X104000000Y-116000000D02*
X104000000Y-118000000D01*
X104000000Y-118000000D02*
X103000000Y-119000000D01*
X97000000Y-112000000D02*
X100000000Y-112000000D01*
X100000000Y-112000000D02*
X104000000Y-116000000D01*
X97000000Y-112000000D02*
X96000000Y-112000000D01*
X96000000Y-112000000D02*
X93000000Y-115000000D01*
X93000000Y-112000000D02*
X97000000Y-112000000D01*
X94000000Y-104000000D02*
X94000000Y-111000000D01*
X94000000Y-111000000D02*
X93000000Y-112000000D01*
X87000000Y-105000000D02*
X93000000Y-105000000D01*
X93000000Y-105000000D02*
X94000000Y-104000000D01*
X115000000Y-80000000D02*
X115000000Y-85000000D01*
X115000000Y-85000000D02*
X115000000Y-90000000D01*
X115000000Y-73000000D02*
X115000000Y-80000000D01*
X107000000Y-75000000D02*
X113000000Y-75000000D01*
X113000000Y-75000000D02*
X115000000Y-73000000D01*
X65000000Y-104000000D02*
X57000000Y-104000000D01*
X78000000Y-104000000D02*
X65000000Y-104000000D01*
X87000000Y-105000000D02*
X86000000Y-104000000D01*
X86000000Y-104000000D02*
X78000000Y-104000000D01*
X87000000Y-101000000D02*
X89000000Y-101000000D01*
X89000000Y-101000000D02*
X89000000Y-104000000D01*
X89000000Y-104000000D02*
X88000000Y-105000000D01*
X88000000Y-105000000D02*
X87000000Y-105000000D01*
X78000000Y-101000000D02*
X87000000Y-101000000D01*
X72000000Y-101000000D02*
X78000000Y-101000000D01*
X65000000Y-101000000D02*
X72000000Y-101000000D01*
X65000000Y-88000000D02*
X65000000Y-87000000D01*
X65000000Y-87000000D02*
X64000000Y-86000000D01*
X64000000Y-86000000D02*
X60000000Y-86000000D01*
X60000000Y-86000000D02*
X60000000Y-93000000D01*
X60000000Y-93000000D02*
X60000000Y-101000000D01*
X60000000Y-101000000D02*
X65000000Y-101000000D01*
X65000000Y-93000000D02*
X65000000Y-88000000D01*
X68000000Y-95000000D02*
X67000000Y-95000000D01*
X67000000Y-95000000D02*
X65000000Y-93000000D01*
X73000000Y-95000000D02*
X68000000Y-95000000D01*
X78000000Y-95000000D02*
X73000000Y-95000000D01*
X87000000Y-95000000D02*
X90000000Y-95000000D01*
X90000000Y-95000000D02*
X91000000Y-96000000D01*
X78000000Y-95000000D02*
X87000000Y-95000000D01*
X78000000Y-87000000D02*
X78000000Y-95000000D01*
X73000000Y-77000000D02*
X76000000Y-80000000D01*
X70000000Y-74000000D02*
X73000000Y-77000000D01*
X62000000Y-71000000D02*
X67000000Y-71000000D01*
X67000000Y-71000000D02*
X70000000Y-74000000D01*
X68000000Y-80000000D02*
X67000000Y-80000000D01*
X67000000Y-80000000D02*
X66000000Y-79000000D01*
X66000000Y-79000000D02*
X58000000Y-79000000D01*
X58000000Y-79000000D02*
X56000000Y-77000000D01*
X56000000Y-77000000D02*
X56000000Y-74000000D01*
X56000000Y-74000000D02*
X56000000Y-73000000D01*
X56000000Y-73000000D02*
X58000000Y-71000000D01*
X58000000Y-71000000D02*
X62000000Y-71000000D01*
X72000000Y-84000000D02*
X68000000Y-80000000D01*
X78000000Y-87000000D02*
X75000000Y-87000000D01*
X75000000Y-87000000D02*
X72000000Y-84000000D01*
X88000000Y-87000000D02*
X78000000Y-87000000D01*
X88000000Y-87000000D02*
X90000000Y-87000000D01*
X90000000Y-87000000D02*
X92000000Y-89000000D01*
X88000000Y-80000000D02*
X88000000Y-87000000D01*
X88000000Y-69000000D02*
X88000000Y-67000000D01*
X88000000Y-67000000D02*
X85000000Y-64000000D01*
X88000000Y-75000000D02*
X88000000Y-69000000D01*
X88000000Y-80000000D02*
X88000000Y-75000000D01*
X96000000Y-75000000D02*
X93000000Y-75000000D01*
X93000000Y-75000000D02*
X88000000Y-80000000D01*
X96000000Y-82000000D02*
X96000000Y-75000000D01*
X107000000Y-82000000D02*
X105000000Y-80000000D01*
X105000000Y-80000000D02*
X98000000Y-80000000D01*
X98000000Y-80000000D02*
X96000000Y-82000000D01*
X107000000Y-82000000D02*
X107000000Y-75000000D01*
X110000000Y-100000000D02*
X110000000Y-96000000D01*
X110000000Y-96000000D02*
X112000000Y-94000000D01*
X112000000Y-94000000D02*
X112000000Y-87000000D01*
X112000000Y-87000000D02*
X107000000Y-82000000D01*
X139000000Y-76000000D02*
X139000000Y-66000000D01*
X139000000Y-83000000D02*
X139000000Y-76000000D01*
X138500000Y-97500000D02*
X135500000Y-97500000D01*
X135500000Y-97500000D02*
X135000000Y-97000000D01*
X135000000Y-97000000D02*
X135000000Y-83000000D01*
X135000000Y-83000000D02*
X139000000Y-83000000D01*
X115000000Y-128000000D02*
X105000000Y-128000000D01*
X125000000Y-128000000D02*
X115000000Y-128000000D01*
X135000000Y-128000000D02*
X125000000Y-128000000D01*
X140000000Y-123000000D02*
X135000000Y-123000000D01*
X135000000Y-123000000D02*
X135000000Y-128000000D01*
X140000000Y-112500000D02*
X140000000Y-123000000D01*
X132500000Y-105000000D02*
X140000000Y-112500000D01*
X110000000Y-105000000D02*
X122500000Y-105000000D01*
X110000000Y-100000000D02*
X102500000Y-100000000D01*
X102500000Y-100000000D02*
X102500000Y-105000000D01*
X102500000Y-105000000D02*
X110000000Y-105000000D01*
X132500000Y-100000000D02*
X122500000Y-100000000D01*
X138500000Y-97500000D02*
X135000000Y-97500000D01*
X135000000Y-97500000D02*
X132500000Y-100000000D01*
D24*
X118000000Y-63500000D02*
X118000000Y-62750000D01*
X118000000Y-62000000D02*
X118000000Y-61250000D01*
X118000000Y-60500000D02*
X118000000Y-59250000D01*
X112000000Y-62750000D02*
X112000000Y-63500000D01*
X112000000Y-61250000D02*
X112000000Y-62000000D01*
X98000000Y-63500000D02*
X98000000Y-62750000D01*
X98000000Y-62000000D02*
X98000000Y-61250000D01*
X98250000Y-60250000D02*
X98250000Y-59250000D01*
X98250000Y-60250000D02*
X98000000Y-60500000D01*
X98250000Y-59250000D02*
X98250000Y-60500000D01*
X98250000Y-60500000D02*
X98000000Y-60750000D01*
X92000000Y-61250000D02*
X92000000Y-62000000D01*
X92000000Y-62750000D02*
X92000000Y-63500000D01*
X90500000Y-63750000D02*
X91000000Y-63750000D01*
X91000000Y-63750000D02*
X92000000Y-62750000D01*
D23*
X98000000Y-60500000D02*
X98750000Y-60500000D01*
X98750000Y-61250000D02*
X98750000Y-62000000D01*
X98750000Y-62000000D02*
X98750000Y-62750000D01*
X98750000Y-62750000D02*
X98750000Y-63500000D01*
X118000000Y-60500000D02*
X118750000Y-60500000D01*
X118750000Y-60500000D02*
X118750000Y-61250000D01*
X118750000Y-61250000D02*
X118750000Y-62000000D01*
X118750000Y-62000000D02*
X118750000Y-62750000D01*
X118750000Y-62750000D02*
X118750000Y-63500000D01*
D25*
G36*
X142340400Y-125935035D02*
X141998068Y-127656053D01*
X141059990Y-129059987D01*
X140109835Y-129694860D01*
X140109835Y-125582241D01*
X139789364Y-124806642D01*
X139196479Y-124212721D01*
X138421440Y-123890897D01*
X137582241Y-123890165D01*
X136806642Y-124210636D01*
X136212721Y-124803521D01*
X135890897Y-125578560D01*
X135890165Y-126417759D01*
X136210636Y-127193358D01*
X136803521Y-127787279D01*
X137578560Y-128109103D01*
X138417759Y-128109835D01*
X139193358Y-127789364D01*
X139787279Y-127196479D01*
X140109103Y-126421440D01*
X140109835Y-125582241D01*
X140109835Y-129694860D01*
X139656054Y-129998068D01*
X137935035Y-130340400D01*
X124752665Y-130340400D01*
X124752665Y-117911367D01*
X124607961Y-117561157D01*
X124340253Y-117292980D01*
X123990295Y-117147665D01*
X123611367Y-117147335D01*
X123261157Y-117292039D01*
X122992980Y-117559747D01*
X122847665Y-117909705D01*
X122847335Y-118288633D01*
X122992039Y-118638843D01*
X123259747Y-118907020D01*
X123433911Y-118979339D01*
X123161157Y-119092039D01*
X122892980Y-119359747D01*
X122747665Y-119709705D01*
X122747335Y-120088633D01*
X122892039Y-120438843D01*
X123159747Y-120707020D01*
X123509705Y-120852335D01*
X123888633Y-120852665D01*
X124238843Y-120707961D01*
X124507020Y-120440253D01*
X124652335Y-120090295D01*
X124652665Y-119711367D01*
X124507961Y-119361157D01*
X124240253Y-119092980D01*
X124066088Y-119020660D01*
X124338843Y-118907961D01*
X124607020Y-118640253D01*
X124752335Y-118290295D01*
X124752665Y-117911367D01*
X124752665Y-130340400D01*
X119852665Y-130340400D01*
X119852665Y-117811367D01*
X119707961Y-117461157D01*
X119440253Y-117192980D01*
X119090295Y-117047665D01*
X118711367Y-117047335D01*
X118361157Y-117192039D01*
X118092980Y-117459747D01*
X117947665Y-117809705D01*
X117947335Y-118188633D01*
X118092039Y-118538843D01*
X118359747Y-118807020D01*
X118709705Y-118952335D01*
X119088633Y-118952665D01*
X119438843Y-118807961D01*
X119707020Y-118540253D01*
X119852335Y-118190295D01*
X119852665Y-117811367D01*
X119852665Y-130340400D01*
X116152665Y-130340400D01*
X116152665Y-117811367D01*
X116007961Y-117461157D01*
X115740253Y-117192980D01*
X115390295Y-117047665D01*
X115011367Y-117047335D01*
X114661157Y-117192039D01*
X114392980Y-117459747D01*
X114247665Y-117809705D01*
X114247335Y-118188633D01*
X114392039Y-118538843D01*
X114659747Y-118807020D01*
X115009705Y-118952335D01*
X115388633Y-118952665D01*
X115738843Y-118807961D01*
X116007020Y-118540253D01*
X116152335Y-118190295D01*
X116152665Y-117811367D01*
X116152665Y-130340400D01*
X113452665Y-130340400D01*
X113452665Y-109111367D01*
X113307961Y-108761157D01*
X113040253Y-108492980D01*
X112690295Y-108347665D01*
X112311367Y-108347335D01*
X111961157Y-108492039D01*
X111692980Y-108759747D01*
X111547665Y-109109705D01*
X111547335Y-109488633D01*
X111692039Y-109838843D01*
X111959747Y-110107020D01*
X112309705Y-110252335D01*
X112688633Y-110252665D01*
X113038843Y-110107961D01*
X113307020Y-109840253D01*
X113452335Y-109490295D01*
X113452665Y-109111367D01*
X113452665Y-130340400D01*
X108702665Y-130340400D01*
X108702665Y-120311367D01*
X108557961Y-119961157D01*
X108290253Y-119692980D01*
X107940295Y-119547665D01*
X107561367Y-119547335D01*
X107286208Y-119661028D01*
X107307020Y-119640253D01*
X107452335Y-119290295D01*
X107452665Y-118911367D01*
X107307961Y-118561157D01*
X107040253Y-118292980D01*
X106690295Y-118147665D01*
X106311367Y-118147335D01*
X105961157Y-118292039D01*
X105692980Y-118559747D01*
X105547665Y-118909705D01*
X105547335Y-119288633D01*
X105692039Y-119638843D01*
X105959747Y-119907020D01*
X106309705Y-120052335D01*
X106688633Y-120052665D01*
X106963791Y-119938971D01*
X106942980Y-119959747D01*
X106797665Y-120309705D01*
X106797335Y-120688633D01*
X106942039Y-121038843D01*
X107209747Y-121307020D01*
X107559705Y-121452335D01*
X107938633Y-121452665D01*
X108288843Y-121307961D01*
X108557020Y-121040253D01*
X108702335Y-120690295D01*
X108702665Y-120311367D01*
X108702665Y-130340400D01*
X102152665Y-130340400D01*
X102152665Y-120311367D01*
X102007961Y-119961157D01*
X101740253Y-119692980D01*
X101402665Y-119552801D01*
X101402665Y-102111367D01*
X101257961Y-101761157D01*
X100990253Y-101492980D01*
X100640295Y-101347665D01*
X100261367Y-101347335D01*
X99911157Y-101492039D01*
X99642980Y-101759747D01*
X99497665Y-102109705D01*
X99497335Y-102488633D01*
X99642039Y-102838843D01*
X99909747Y-103107020D01*
X100259705Y-103252335D01*
X100638633Y-103252665D01*
X100988843Y-103107961D01*
X101257020Y-102840253D01*
X101402335Y-102490295D01*
X101402665Y-102111367D01*
X101402665Y-119552801D01*
X101390295Y-119547665D01*
X101011367Y-119547335D01*
X100661157Y-119692039D01*
X100541580Y-119811406D01*
X100541580Y-104793762D01*
X100383371Y-104410865D01*
X100090676Y-104117659D01*
X99708056Y-103958781D01*
X99293762Y-103958420D01*
X98910865Y-104116629D01*
X98617659Y-104409324D01*
X98458781Y-104791944D01*
X98458420Y-105206238D01*
X98616629Y-105589135D01*
X98909324Y-105882341D01*
X99291944Y-106041219D01*
X99706238Y-106041580D01*
X100089135Y-105883371D01*
X100382341Y-105590676D01*
X100541219Y-105208056D01*
X100541580Y-104793762D01*
X100541580Y-119811406D01*
X100452665Y-119900166D01*
X100452665Y-114411367D01*
X100307961Y-114061157D01*
X100040253Y-113792980D01*
X99690295Y-113647665D01*
X99311367Y-113647335D01*
X98961157Y-113792039D01*
X98692980Y-114059747D01*
X98547665Y-114409705D01*
X98547335Y-114788633D01*
X98692039Y-115138843D01*
X98959747Y-115407020D01*
X99309705Y-115552335D01*
X99688633Y-115552665D01*
X100038843Y-115407961D01*
X100307020Y-115140253D01*
X100452335Y-114790295D01*
X100452665Y-114411367D01*
X100452665Y-119900166D01*
X100392980Y-119959747D01*
X100247665Y-120309705D01*
X100247335Y-120688633D01*
X100392039Y-121038843D01*
X100659747Y-121307020D01*
X101009705Y-121452335D01*
X101388633Y-121452665D01*
X101738843Y-121307961D01*
X102007020Y-121040253D01*
X102152335Y-120690295D01*
X102152665Y-120311367D01*
X102152665Y-130340400D01*
X95291580Y-130340400D01*
X95291580Y-69043762D01*
X95133371Y-68660865D01*
X94840676Y-68367659D01*
X94458056Y-68208781D01*
X94043762Y-68208420D01*
X93660865Y-68366629D01*
X93367659Y-68659324D01*
X93208781Y-69041944D01*
X93208420Y-69456238D01*
X93366629Y-69839135D01*
X93659324Y-70132341D01*
X94041944Y-70291219D01*
X94456238Y-70291580D01*
X94839135Y-70133371D01*
X95132341Y-69840676D01*
X95291219Y-69458056D01*
X95291580Y-69043762D01*
X95291580Y-130340400D01*
X95252665Y-130340400D01*
X95252665Y-119011367D01*
X95107961Y-118661157D01*
X95041580Y-118594659D01*
X95041580Y-99793762D01*
X94883371Y-99410865D01*
X94590676Y-99117659D01*
X94208056Y-98958781D01*
X93793762Y-98958420D01*
X93410865Y-99116629D01*
X93117659Y-99409324D01*
X92958781Y-99791944D01*
X92958420Y-100206238D01*
X93116629Y-100589135D01*
X93409324Y-100882341D01*
X93791944Y-101041219D01*
X94206238Y-101041580D01*
X94589135Y-100883371D01*
X94882341Y-100590676D01*
X95041219Y-100208056D01*
X95041580Y-99793762D01*
X95041580Y-118594659D01*
X94840253Y-118392980D01*
X94490295Y-118247665D01*
X94111367Y-118247335D01*
X93761157Y-118392039D01*
X93492980Y-118659747D01*
X93347665Y-119009705D01*
X93347335Y-119388633D01*
X93492039Y-119738843D01*
X93759747Y-120007020D01*
X94109705Y-120152335D01*
X94488633Y-120152665D01*
X94838843Y-120007961D01*
X95107020Y-119740253D01*
X95252335Y-119390295D01*
X95252665Y-119011367D01*
X95252665Y-130340400D01*
X95152665Y-130340400D01*
X95152665Y-123411367D01*
X95007961Y-123061157D01*
X94740253Y-122792980D01*
X94390295Y-122647665D01*
X94011367Y-122647335D01*
X93661157Y-122792039D01*
X93392980Y-123059747D01*
X93247665Y-123409705D01*
X93247335Y-123788633D01*
X93392039Y-124138843D01*
X93659747Y-124407020D01*
X94009705Y-124552335D01*
X94388633Y-124552665D01*
X94738843Y-124407961D01*
X95007020Y-124140253D01*
X95152335Y-123790295D01*
X95152665Y-123411367D01*
X95152665Y-130340400D01*
X93323200Y-130340400D01*
X93323200Y-128637257D01*
X93323200Y-128394743D01*
X93323200Y-126362743D01*
X93230394Y-126138689D01*
X93058911Y-125967206D01*
X92834857Y-125874400D01*
X92592343Y-125874400D01*
X91409844Y-125874400D01*
X91409844Y-91220843D01*
X91195698Y-90702569D01*
X90799517Y-90305696D01*
X90281617Y-90090645D01*
X89720843Y-90090156D01*
X89202569Y-90304302D01*
X88805696Y-90700483D01*
X88791580Y-90734478D01*
X88791580Y-61043762D01*
X88633371Y-60660865D01*
X88340676Y-60367659D01*
X87958056Y-60208781D01*
X87543762Y-60208420D01*
X87160865Y-60366629D01*
X86867659Y-60659324D01*
X86708781Y-61041944D01*
X86708420Y-61456238D01*
X86866629Y-61839135D01*
X87159324Y-62132341D01*
X87541944Y-62291219D01*
X87956238Y-62291580D01*
X88339135Y-62133371D01*
X88632341Y-61840676D01*
X88791219Y-61458056D01*
X88791580Y-61043762D01*
X88791580Y-90734478D01*
X88590645Y-91218383D01*
X88590156Y-91779157D01*
X88804302Y-92297431D01*
X89200483Y-92694304D01*
X89718383Y-92909355D01*
X90279157Y-92909844D01*
X90797431Y-92695698D01*
X91194304Y-92299517D01*
X91409355Y-91781617D01*
X91409844Y-91220843D01*
X91409844Y-125874400D01*
X90865143Y-125874400D01*
X90852665Y-125879568D01*
X90852665Y-115811367D01*
X90707961Y-115461157D01*
X90452665Y-115205413D01*
X90452665Y-111311367D01*
X90307961Y-110961157D01*
X90040253Y-110692980D01*
X89690295Y-110547665D01*
X89311367Y-110547335D01*
X88961157Y-110692039D01*
X88692980Y-110959747D01*
X88547665Y-111309705D01*
X88547542Y-111450282D01*
X88540253Y-111442980D01*
X88190295Y-111297665D01*
X87811367Y-111297335D01*
X87461157Y-111442039D01*
X87192980Y-111709747D01*
X87047665Y-112059705D01*
X87047335Y-112438633D01*
X87192039Y-112788843D01*
X87459747Y-113057020D01*
X87809705Y-113202335D01*
X88188633Y-113202665D01*
X88538843Y-113057961D01*
X88807020Y-112790253D01*
X88952335Y-112440295D01*
X88952457Y-112299717D01*
X88959747Y-112307020D01*
X89309705Y-112452335D01*
X89688633Y-112452665D01*
X90038843Y-112307961D01*
X90307020Y-112040253D01*
X90452335Y-111690295D01*
X90452665Y-111311367D01*
X90452665Y-115205413D01*
X90440253Y-115192980D01*
X90090295Y-115047665D01*
X89711367Y-115047335D01*
X89361157Y-115192039D01*
X89092980Y-115459747D01*
X88947665Y-115809705D01*
X88947335Y-116188633D01*
X89092039Y-116538843D01*
X89359747Y-116807020D01*
X89709705Y-116952335D01*
X90088633Y-116952665D01*
X90438843Y-116807961D01*
X90707020Y-116540253D01*
X90852335Y-116190295D01*
X90852665Y-115811367D01*
X90852665Y-125879568D01*
X90641089Y-125967206D01*
X90469606Y-126138689D01*
X90376800Y-126362743D01*
X90376800Y-126605257D01*
X90376800Y-128637257D01*
X90469606Y-128861311D01*
X90641089Y-129032794D01*
X90865143Y-129125600D01*
X91107657Y-129125600D01*
X92834857Y-129125600D01*
X93058911Y-129032794D01*
X93230394Y-128861311D01*
X93323200Y-128637257D01*
X93323200Y-130340400D01*
X88243200Y-130340400D01*
X88243200Y-127684247D01*
X88243200Y-127315753D01*
X88131059Y-126751984D01*
X87811710Y-126274043D01*
X87333769Y-125954694D01*
X86770000Y-125842553D01*
X86206231Y-125954694D01*
X85728290Y-126274043D01*
X85500000Y-126615704D01*
X85452665Y-126544861D01*
X85452665Y-104711367D01*
X85307961Y-104361157D01*
X85040253Y-104092980D01*
X84690295Y-103947665D01*
X84311367Y-103947335D01*
X83961157Y-104092039D01*
X83692980Y-104359747D01*
X83547665Y-104709705D01*
X83547545Y-104847366D01*
X83511367Y-104847335D01*
X83161157Y-104992039D01*
X82892980Y-105259747D01*
X82773540Y-105547389D01*
X82711367Y-105547335D01*
X82361157Y-105692039D01*
X82092980Y-105959747D01*
X81973540Y-106247389D01*
X81911367Y-106247335D01*
X81561157Y-106392039D01*
X81292980Y-106659747D01*
X81173540Y-106947389D01*
X81111367Y-106947335D01*
X80761157Y-107092039D01*
X80492980Y-107359747D01*
X80347665Y-107709705D01*
X80347335Y-108088633D01*
X80492039Y-108438843D01*
X80759747Y-108707020D01*
X81109705Y-108852335D01*
X81488633Y-108852665D01*
X81838843Y-108707961D01*
X82107020Y-108440253D01*
X82226459Y-108152610D01*
X82288633Y-108152665D01*
X82638843Y-108007961D01*
X82907020Y-107740253D01*
X83026459Y-107452610D01*
X83088633Y-107452665D01*
X83438843Y-107307961D01*
X83707020Y-107040253D01*
X83826459Y-106752610D01*
X83888633Y-106752665D01*
X84238843Y-106607961D01*
X84507020Y-106340253D01*
X84652335Y-105990295D01*
X84652454Y-105852633D01*
X84688633Y-105852665D01*
X85038843Y-105707961D01*
X85307020Y-105440253D01*
X85452335Y-105090295D01*
X85452665Y-104711367D01*
X85452665Y-126544861D01*
X85271710Y-126274043D01*
X84793769Y-125954694D01*
X84230000Y-125842553D01*
X83666231Y-125954694D01*
X83188290Y-126274043D01*
X82960000Y-126615704D01*
X82731710Y-126274043D01*
X82253769Y-125954694D01*
X81690000Y-125842553D01*
X81126231Y-125954694D01*
X80648290Y-126274043D01*
X80420000Y-126615704D01*
X80191710Y-126274043D01*
X79713769Y-125954694D01*
X79452665Y-125902757D01*
X79452665Y-113811367D01*
X79307961Y-113461157D01*
X79040253Y-113192980D01*
X78852400Y-113114977D01*
X78852665Y-112811367D01*
X78707961Y-112461157D01*
X78440253Y-112192980D01*
X78090295Y-112047665D01*
X77711367Y-112047335D01*
X77361157Y-112192039D01*
X77092980Y-112459747D01*
X76947665Y-112809705D01*
X76947335Y-113188633D01*
X77092039Y-113538843D01*
X77359747Y-113807020D01*
X77547599Y-113885022D01*
X77547335Y-114188633D01*
X77692039Y-114538843D01*
X77959747Y-114807020D01*
X78309705Y-114952335D01*
X78688633Y-114952665D01*
X79038843Y-114807961D01*
X79307020Y-114540253D01*
X79452335Y-114190295D01*
X79452665Y-113811367D01*
X79452665Y-125902757D01*
X79150000Y-125842553D01*
X78852665Y-125901696D01*
X78852665Y-117311367D01*
X78707961Y-116961157D01*
X78440253Y-116692980D01*
X78238109Y-116609042D01*
X78307020Y-116540253D01*
X78452335Y-116190295D01*
X78452665Y-115811367D01*
X78307961Y-115461157D01*
X78040253Y-115192980D01*
X77690295Y-115047665D01*
X77311367Y-115047335D01*
X76961157Y-115192039D01*
X76692980Y-115459747D01*
X76547665Y-115809705D01*
X76547335Y-116188633D01*
X76552316Y-116200689D01*
X76392980Y-116359747D01*
X76247665Y-116709705D01*
X76247335Y-117088633D01*
X76392039Y-117438843D01*
X76659747Y-117707020D01*
X77009705Y-117852335D01*
X77014977Y-117852339D01*
X77092039Y-118038843D01*
X77359747Y-118307020D01*
X77709705Y-118452335D01*
X78088633Y-118452665D01*
X78438843Y-118307961D01*
X78707020Y-118040253D01*
X78852335Y-117690295D01*
X78852665Y-117311367D01*
X78852665Y-125901696D01*
X78586231Y-125954694D01*
X78108290Y-126274043D01*
X77788941Y-126751984D01*
X77676800Y-127315753D01*
X77676800Y-127684247D01*
X77788941Y-128248016D01*
X78108290Y-128725957D01*
X78586231Y-129045306D01*
X79150000Y-129157447D01*
X79713769Y-129045306D01*
X80191710Y-128725957D01*
X80420000Y-128384295D01*
X80648290Y-128725957D01*
X81126231Y-129045306D01*
X81690000Y-129157447D01*
X82253769Y-129045306D01*
X82731710Y-128725957D01*
X82960000Y-128384295D01*
X83188290Y-128725957D01*
X83666231Y-129045306D01*
X84230000Y-129157447D01*
X84793769Y-129045306D01*
X85271710Y-128725957D01*
X85500000Y-128384295D01*
X85728290Y-128725957D01*
X86206231Y-129045306D01*
X86770000Y-129157447D01*
X87333769Y-129045306D01*
X87811710Y-128725957D01*
X88131059Y-128248016D01*
X88243200Y-127684247D01*
X88243200Y-130340400D01*
X75452665Y-130340400D01*
X75452665Y-126011367D01*
X75307961Y-125661157D01*
X75040253Y-125392980D01*
X74690295Y-125247665D01*
X74352665Y-125247370D01*
X74352665Y-116611367D01*
X74207961Y-116261157D01*
X73940253Y-115992980D01*
X73702736Y-115894354D01*
X73807020Y-115790253D01*
X73952335Y-115440295D01*
X73952665Y-115061367D01*
X73903829Y-114943175D01*
X74057020Y-114790253D01*
X74202335Y-114440295D01*
X74202665Y-114061367D01*
X74057961Y-113711157D01*
X73790253Y-113442980D01*
X73440295Y-113297665D01*
X73061367Y-113297335D01*
X72992296Y-113325874D01*
X73041219Y-113208056D01*
X73041580Y-112793762D01*
X72883371Y-112410865D01*
X72590676Y-112117659D01*
X72208056Y-111958781D01*
X71793762Y-111958420D01*
X71410865Y-112116629D01*
X71252665Y-112274553D01*
X71252665Y-111011367D01*
X71152665Y-110769348D01*
X71152665Y-106611367D01*
X71007961Y-106261157D01*
X70740253Y-105992980D01*
X70390295Y-105847665D01*
X70011367Y-105847335D01*
X69661157Y-105992039D01*
X69392980Y-106259747D01*
X69247665Y-106609705D01*
X69247335Y-106988633D01*
X69392039Y-107338843D01*
X69659747Y-107607020D01*
X70009705Y-107752335D01*
X70388633Y-107752665D01*
X70738843Y-107607961D01*
X71007020Y-107340253D01*
X71152335Y-106990295D01*
X71152665Y-106611367D01*
X71152665Y-110769348D01*
X71107961Y-110661157D01*
X70840253Y-110392980D01*
X70490295Y-110247665D01*
X70111367Y-110247335D01*
X69761157Y-110392039D01*
X69492980Y-110659747D01*
X69347665Y-111009705D01*
X69347335Y-111388633D01*
X69492039Y-111738843D01*
X69759747Y-112007020D01*
X70109705Y-112152335D01*
X70488633Y-112152665D01*
X70838843Y-112007961D01*
X71107020Y-111740253D01*
X71252335Y-111390295D01*
X71252665Y-111011367D01*
X71252665Y-112274553D01*
X71117659Y-112409324D01*
X71011633Y-112664660D01*
X70840253Y-112492980D01*
X70490295Y-112347665D01*
X70111367Y-112347335D01*
X69761157Y-112492039D01*
X69492980Y-112759747D01*
X69347665Y-113109705D01*
X69347335Y-113488633D01*
X69492039Y-113838843D01*
X69759747Y-114107020D01*
X70109705Y-114252335D01*
X70488633Y-114252665D01*
X70838843Y-114107961D01*
X71107020Y-113840253D01*
X71183484Y-113656106D01*
X71409324Y-113882341D01*
X71791944Y-114041219D01*
X72206238Y-114041580D01*
X72325684Y-113992225D01*
X72297665Y-114059705D01*
X72297335Y-114438633D01*
X72346170Y-114556824D01*
X72192980Y-114709747D01*
X72047665Y-115059705D01*
X72047450Y-115305721D01*
X71792980Y-115559747D01*
X71647665Y-115909705D01*
X71647335Y-116288633D01*
X71792039Y-116638843D01*
X72059747Y-116907020D01*
X72409705Y-117052335D01*
X72473679Y-117052390D01*
X72592039Y-117338843D01*
X72859747Y-117607020D01*
X73209705Y-117752335D01*
X73588633Y-117752665D01*
X73938843Y-117607961D01*
X74207020Y-117340253D01*
X74352335Y-116990295D01*
X74352665Y-116611367D01*
X74352665Y-125247370D01*
X74311367Y-125247335D01*
X73961157Y-125392039D01*
X73692980Y-125659747D01*
X73547665Y-126009705D01*
X73547335Y-126388633D01*
X73692039Y-126738843D01*
X73959747Y-127007020D01*
X74309705Y-127152335D01*
X74688633Y-127152665D01*
X75038843Y-127007961D01*
X75307020Y-126740253D01*
X75452335Y-126390295D01*
X75452665Y-126011367D01*
X75452665Y-130340400D01*
X72352665Y-130340400D01*
X72352665Y-119411367D01*
X72207961Y-119061157D01*
X71940253Y-118792980D01*
X71590295Y-118647665D01*
X71211367Y-118647335D01*
X70861157Y-118792039D01*
X70592980Y-119059747D01*
X70450340Y-119403260D01*
X70340253Y-119292980D01*
X69990295Y-119147665D01*
X69884986Y-119147573D01*
X69807961Y-118961157D01*
X69540253Y-118692980D01*
X69452665Y-118656610D01*
X69452665Y-113911367D01*
X69307961Y-113561157D01*
X69040253Y-113292980D01*
X68690295Y-113147665D01*
X68311367Y-113147335D01*
X67961157Y-113292039D01*
X67692980Y-113559747D01*
X67547665Y-113909705D01*
X67547335Y-114288633D01*
X67692039Y-114638843D01*
X67959747Y-114907020D01*
X68309705Y-115052335D01*
X68688633Y-115052665D01*
X69038843Y-114907961D01*
X69307020Y-114640253D01*
X69452335Y-114290295D01*
X69452665Y-113911367D01*
X69452665Y-118656610D01*
X69190295Y-118547665D01*
X68811367Y-118547335D01*
X68461157Y-118692039D01*
X68192980Y-118959747D01*
X68047665Y-119309705D01*
X68047335Y-119688633D01*
X68192039Y-120038843D01*
X68459747Y-120307020D01*
X68809705Y-120452335D01*
X68915013Y-120452426D01*
X68992039Y-120638843D01*
X69259747Y-120907020D01*
X69609705Y-121052335D01*
X69988633Y-121052665D01*
X70338843Y-120907961D01*
X70607020Y-120640253D01*
X70749659Y-120296739D01*
X70859747Y-120407020D01*
X71209705Y-120552335D01*
X71588633Y-120552665D01*
X71938843Y-120407961D01*
X72207020Y-120140253D01*
X72352335Y-119790295D01*
X72352665Y-119411367D01*
X72352665Y-130340400D01*
X71552665Y-130340400D01*
X71552665Y-126711367D01*
X71407961Y-126361157D01*
X71297039Y-126250041D01*
X71407020Y-126140253D01*
X71552335Y-125790295D01*
X71552665Y-125411367D01*
X71407961Y-125061157D01*
X71140253Y-124792980D01*
X70790295Y-124647665D01*
X70411367Y-124647335D01*
X70061157Y-124792039D01*
X69792980Y-125059747D01*
X69647665Y-125409705D01*
X69647335Y-125788633D01*
X69792039Y-126138843D01*
X69902960Y-126249958D01*
X69792980Y-126359747D01*
X69647665Y-126709705D01*
X69647335Y-127088633D01*
X69792039Y-127438843D01*
X70059747Y-127707020D01*
X70409705Y-127852335D01*
X70788633Y-127852665D01*
X71138843Y-127707961D01*
X71407020Y-127440253D01*
X71552335Y-127090295D01*
X71552665Y-126711367D01*
X71552665Y-130340400D01*
X67952665Y-130340400D01*
X67952665Y-123061367D01*
X67807961Y-122711157D01*
X67540253Y-122442980D01*
X67190295Y-122297665D01*
X66811367Y-122297335D01*
X66461157Y-122442039D01*
X66192980Y-122709747D01*
X66047665Y-123059705D01*
X66047335Y-123438633D01*
X66192039Y-123788843D01*
X66459747Y-124057020D01*
X66809705Y-124202335D01*
X67188633Y-124202665D01*
X67538843Y-124057961D01*
X67807020Y-123790253D01*
X67952335Y-123440295D01*
X67952665Y-123061367D01*
X67952665Y-130340400D01*
X63243200Y-130340400D01*
X63243200Y-127684247D01*
X63243200Y-127315753D01*
X63131059Y-126751984D01*
X63041580Y-126618068D01*
X63041580Y-109293762D01*
X62883371Y-108910865D01*
X62590676Y-108617659D01*
X62208056Y-108458781D01*
X61793762Y-108458420D01*
X61410865Y-108616629D01*
X61117659Y-108909324D01*
X60958781Y-109291944D01*
X60958420Y-109706238D01*
X61116629Y-110089135D01*
X61409324Y-110382341D01*
X61791944Y-110541219D01*
X62206238Y-110541580D01*
X62589135Y-110383371D01*
X62882341Y-110090676D01*
X63041219Y-109708056D01*
X63041580Y-109293762D01*
X63041580Y-126618068D01*
X62811710Y-126274043D01*
X62791580Y-126260592D01*
X62791580Y-116293762D01*
X62633371Y-115910865D01*
X62340676Y-115617659D01*
X61958056Y-115458781D01*
X61543762Y-115458420D01*
X61160865Y-115616629D01*
X60867659Y-115909324D01*
X60708781Y-116291944D01*
X60708420Y-116706238D01*
X60866629Y-117089135D01*
X61159324Y-117382341D01*
X61541944Y-117541219D01*
X61956238Y-117541580D01*
X62339135Y-117383371D01*
X62632341Y-117090676D01*
X62791219Y-116708056D01*
X62791580Y-116293762D01*
X62791580Y-126260592D01*
X62333769Y-125954694D01*
X61770000Y-125842553D01*
X61206231Y-125954694D01*
X60728290Y-126274043D01*
X60500000Y-126615704D01*
X60271710Y-126274043D01*
X59793769Y-125954694D01*
X59230000Y-125842553D01*
X58666231Y-125954694D01*
X58188290Y-126274043D01*
X58150120Y-126331167D01*
X58070394Y-126138689D01*
X57898911Y-125967206D01*
X57674857Y-125874400D01*
X57432343Y-125874400D01*
X55705143Y-125874400D01*
X55481089Y-125967206D01*
X55309606Y-126138689D01*
X55216800Y-126362743D01*
X55216800Y-126605257D01*
X55216800Y-128637257D01*
X55309606Y-128861311D01*
X55481089Y-129032794D01*
X55705143Y-129125600D01*
X55947657Y-129125600D01*
X57674857Y-129125600D01*
X57898911Y-129032794D01*
X58070394Y-128861311D01*
X58150120Y-128668832D01*
X58188290Y-128725957D01*
X58666231Y-129045306D01*
X59230000Y-129157447D01*
X59793769Y-129045306D01*
X60271710Y-128725957D01*
X60500000Y-128384295D01*
X60728290Y-128725957D01*
X61206231Y-129045306D01*
X61770000Y-129157447D01*
X62333769Y-129045306D01*
X62811710Y-128725957D01*
X63131059Y-128248016D01*
X63243200Y-127684247D01*
X63243200Y-130340400D01*
X51859922Y-130340400D01*
X51859922Y-111631725D01*
X51577412Y-110947997D01*
X51054754Y-110424427D01*
X50371520Y-110140723D01*
X49631725Y-110140078D01*
X48947997Y-110422588D01*
X48424427Y-110945246D01*
X48140723Y-111628480D01*
X48140078Y-112368275D01*
X48422588Y-113052003D01*
X48945246Y-113575573D01*
X49628480Y-113859277D01*
X50368275Y-113859922D01*
X51052003Y-113577412D01*
X51575573Y-113054754D01*
X51859277Y-112371520D01*
X51859922Y-111631725D01*
X51859922Y-130340400D01*
X50109835Y-130340400D01*
X50109835Y-125582241D01*
X49789364Y-124806642D01*
X49196479Y-124212721D01*
X48421440Y-123890897D01*
X47582241Y-123890165D01*
X46806642Y-124210636D01*
X46212721Y-124803521D01*
X45890897Y-125578560D01*
X45890165Y-126417759D01*
X46210636Y-127193358D01*
X46803521Y-127787279D01*
X47578560Y-128109103D01*
X48417759Y-128109835D01*
X49193358Y-127789364D01*
X49787279Y-127196479D01*
X50109103Y-126421440D01*
X50109835Y-125582241D01*
X50109835Y-130340400D01*
X48064964Y-130340400D01*
X46343946Y-129998068D01*
X44940012Y-129059990D01*
X44001931Y-127656054D01*
X43659600Y-125935035D01*
X43659600Y-103203200D01*
X88203200Y-103203200D01*
X88203200Y-101796800D01*
X84459230Y-101796800D01*
X84459230Y-55946658D01*
X84459230Y-54053342D01*
X84348153Y-53494919D01*
X84031831Y-53021511D01*
X83558423Y-52705189D01*
X83000000Y-52594112D01*
X82441577Y-52705189D01*
X81968169Y-53021511D01*
X81730000Y-53377955D01*
X81491831Y-53021511D01*
X81018423Y-52705189D01*
X80460000Y-52594112D01*
X79901577Y-52705189D01*
X79428169Y-53021511D01*
X79111847Y-53494919D01*
X79000770Y-54053342D01*
X79000770Y-55946658D01*
X79111847Y-56505081D01*
X79428169Y-56978489D01*
X79901577Y-57294811D01*
X80460000Y-57405888D01*
X81018423Y-57294811D01*
X81491831Y-56978489D01*
X81730000Y-56622044D01*
X81968169Y-56978489D01*
X82441577Y-57294811D01*
X83000000Y-57405888D01*
X83558423Y-57294811D01*
X84031831Y-56978489D01*
X84348153Y-56505081D01*
X84459230Y-55946658D01*
X84459230Y-101796800D01*
X67791580Y-101796800D01*
X67791580Y-65293762D01*
X67633371Y-64910865D01*
X67340676Y-64617659D01*
X66999230Y-64475877D01*
X66999230Y-55946658D01*
X66999230Y-54053342D01*
X66888153Y-53494919D01*
X66571831Y-53021511D01*
X66098423Y-52705189D01*
X65540000Y-52594112D01*
X64981577Y-52705189D01*
X64508169Y-53021511D01*
X64270000Y-53377955D01*
X64031831Y-53021511D01*
X63558423Y-52705189D01*
X63000000Y-52594112D01*
X62441577Y-52705189D01*
X61968169Y-53021511D01*
X61730000Y-53377955D01*
X61491831Y-53021511D01*
X61018423Y-52705189D01*
X60460000Y-52594112D01*
X59901577Y-52705189D01*
X59428169Y-53021511D01*
X59111847Y-53494919D01*
X59000770Y-54053342D01*
X59000770Y-55946658D01*
X59111847Y-56505081D01*
X59428169Y-56978489D01*
X59901577Y-57294811D01*
X60460000Y-57405888D01*
X61018423Y-57294811D01*
X61491831Y-56978489D01*
X61730000Y-56622044D01*
X61968169Y-56978489D01*
X62441577Y-57294811D01*
X63000000Y-57405888D01*
X63558423Y-57294811D01*
X64031831Y-56978489D01*
X64270000Y-56622044D01*
X64508169Y-56978489D01*
X64981577Y-57294811D01*
X65540000Y-57405888D01*
X66098423Y-57294811D01*
X66571831Y-56978489D01*
X66888153Y-56505081D01*
X66999230Y-55946658D01*
X66999230Y-64475877D01*
X66958056Y-64458781D01*
X66543762Y-64458420D01*
X66160865Y-64616629D01*
X65867659Y-64909324D01*
X65708781Y-65291944D01*
X65708420Y-65706238D01*
X65866629Y-66089135D01*
X66159324Y-66382341D01*
X66541944Y-66541219D01*
X66956238Y-66541580D01*
X67339135Y-66383371D01*
X67632341Y-66090676D01*
X67791219Y-65708056D01*
X67791580Y-65293762D01*
X67791580Y-101796800D01*
X67291580Y-101796800D01*
X67291580Y-97293762D01*
X67133371Y-96910865D01*
X66840676Y-96617659D01*
X66458056Y-96458781D01*
X66043762Y-96458420D01*
X65660865Y-96616629D01*
X65367659Y-96909324D01*
X65208781Y-97291944D01*
X65208420Y-97706238D01*
X65366629Y-98089135D01*
X65659324Y-98382341D01*
X66041944Y-98541219D01*
X66456238Y-98541580D01*
X66839135Y-98383371D01*
X67132341Y-98090676D01*
X67291219Y-97708056D01*
X67291580Y-97293762D01*
X67291580Y-101796800D01*
X64952665Y-101796800D01*
X64952665Y-84811367D01*
X64823872Y-84499666D01*
X64952335Y-84190295D01*
X64952665Y-83811367D01*
X64823872Y-83499666D01*
X64952335Y-83190295D01*
X64952665Y-82811367D01*
X64823872Y-82499666D01*
X64952335Y-82190295D01*
X64952665Y-81811367D01*
X64807961Y-81461157D01*
X64540253Y-81192980D01*
X64190295Y-81047665D01*
X63811367Y-81047335D01*
X63499666Y-81176127D01*
X63190295Y-81047665D01*
X62811367Y-81047335D01*
X62499666Y-81176127D01*
X62190295Y-81047665D01*
X61811367Y-81047335D01*
X61499666Y-81176127D01*
X61190295Y-81047665D01*
X60811367Y-81047335D01*
X60704090Y-81091660D01*
X60704090Y-77120747D01*
X60704090Y-76878233D01*
X60704090Y-74879253D01*
X60611284Y-74655199D01*
X60439801Y-74483716D01*
X60215747Y-74390910D01*
X59973233Y-74390910D01*
X57974253Y-74390910D01*
X57750199Y-74483716D01*
X57578716Y-74655199D01*
X57485910Y-74879253D01*
X57485910Y-75121767D01*
X57485910Y-77120747D01*
X57578716Y-77344801D01*
X57750199Y-77516284D01*
X57974253Y-77609090D01*
X58216767Y-77609090D01*
X60215747Y-77609090D01*
X60439801Y-77516284D01*
X60611284Y-77344801D01*
X60704090Y-77120747D01*
X60704090Y-81091660D01*
X60499666Y-81176127D01*
X60190295Y-81047665D01*
X59811367Y-81047335D01*
X59499666Y-81176127D01*
X59190295Y-81047665D01*
X58811367Y-81047335D01*
X58499666Y-81176127D01*
X58190295Y-81047665D01*
X57811367Y-81047335D01*
X57461157Y-81192039D01*
X57192980Y-81459747D01*
X57047665Y-81809705D01*
X57047335Y-82188633D01*
X57176127Y-82500333D01*
X57047665Y-82809705D01*
X57047335Y-83188633D01*
X57176127Y-83500333D01*
X57047665Y-83809705D01*
X57047335Y-84188633D01*
X57176127Y-84500333D01*
X57047665Y-84809705D01*
X57047335Y-85188633D01*
X57192039Y-85538843D01*
X57459747Y-85807020D01*
X57809705Y-85952335D01*
X58188633Y-85952665D01*
X58538843Y-85807961D01*
X58807020Y-85540253D01*
X58952335Y-85190295D01*
X58952665Y-84811367D01*
X58823872Y-84499666D01*
X58952335Y-84190295D01*
X58952665Y-83811367D01*
X58823872Y-83499666D01*
X58952335Y-83190295D01*
X58952542Y-82952459D01*
X59188633Y-82952665D01*
X59500333Y-82823872D01*
X59809705Y-82952335D01*
X60188633Y-82952665D01*
X60500333Y-82823872D01*
X60809705Y-82952335D01*
X61188633Y-82952665D01*
X61500333Y-82823872D01*
X61809705Y-82952335D01*
X62188633Y-82952665D01*
X62500333Y-82823872D01*
X62809705Y-82952335D01*
X63047540Y-82952542D01*
X63047335Y-83188633D01*
X63176127Y-83500333D01*
X63047665Y-83809705D01*
X63047335Y-84188633D01*
X63176127Y-84500333D01*
X63047665Y-84809705D01*
X63047335Y-85188633D01*
X63192039Y-85538843D01*
X63459747Y-85807020D01*
X63809705Y-85952335D01*
X64188633Y-85952665D01*
X64538843Y-85807961D01*
X64807020Y-85540253D01*
X64952335Y-85190295D01*
X64952665Y-84811367D01*
X64952665Y-101796800D01*
X63541580Y-101796800D01*
X63541580Y-87293762D01*
X63383371Y-86910865D01*
X63090676Y-86617659D01*
X62708056Y-86458781D01*
X62293762Y-86458420D01*
X61910865Y-86616629D01*
X61617659Y-86909324D01*
X61458781Y-87291944D01*
X61458420Y-87706238D01*
X61616629Y-88089135D01*
X61909324Y-88382341D01*
X62291944Y-88541219D01*
X62706238Y-88541580D01*
X63089135Y-88383371D01*
X63382341Y-88090676D01*
X63541219Y-87708056D01*
X63541580Y-87293762D01*
X63541580Y-101796800D01*
X53649090Y-101796800D01*
X53649090Y-77120747D01*
X53649090Y-76878233D01*
X53649090Y-74879253D01*
X53649090Y-66120747D01*
X53649090Y-65878233D01*
X53649090Y-63879253D01*
X53556284Y-63655199D01*
X53384801Y-63483716D01*
X53160747Y-63390910D01*
X52918233Y-63390910D01*
X50919253Y-63390910D01*
X50695199Y-63483716D01*
X50523716Y-63655199D01*
X50430910Y-63879253D01*
X50430910Y-64121767D01*
X50430910Y-66120747D01*
X50523716Y-66344801D01*
X50695199Y-66516284D01*
X50919253Y-66609090D01*
X51161767Y-66609090D01*
X53160747Y-66609090D01*
X53384801Y-66516284D01*
X53556284Y-66344801D01*
X53649090Y-66120747D01*
X53649090Y-74879253D01*
X53556284Y-74655199D01*
X53384801Y-74483716D01*
X53160747Y-74390910D01*
X52918233Y-74390910D01*
X50919253Y-74390910D01*
X50695199Y-74483716D01*
X50523716Y-74655199D01*
X50430910Y-74879253D01*
X50430910Y-75121767D01*
X50430910Y-77120747D01*
X50523716Y-77344801D01*
X50695199Y-77516284D01*
X50919253Y-77609090D01*
X51161767Y-77609090D01*
X53160747Y-77609090D01*
X53384801Y-77516284D01*
X53556284Y-77344801D01*
X53649090Y-77120747D01*
X53649090Y-101796800D01*
X53541580Y-101796800D01*
X53541580Y-96293762D01*
X53541580Y-89543762D01*
X53383371Y-89160865D01*
X53090676Y-88867659D01*
X52708056Y-88708781D01*
X52293762Y-88708420D01*
X51910865Y-88866629D01*
X51617659Y-89159324D01*
X51458781Y-89541944D01*
X51458420Y-89956238D01*
X51616629Y-90339135D01*
X51909324Y-90632341D01*
X52291944Y-90791219D01*
X52706238Y-90791580D01*
X53089135Y-90633371D01*
X53382341Y-90340676D01*
X53541219Y-89958056D01*
X53541580Y-89543762D01*
X53541580Y-96293762D01*
X53383371Y-95910865D01*
X53090676Y-95617659D01*
X52708056Y-95458781D01*
X52293762Y-95458420D01*
X51910865Y-95616629D01*
X51617659Y-95909324D01*
X51458781Y-96291944D01*
X51458420Y-96706238D01*
X51616629Y-97089135D01*
X51909324Y-97382341D01*
X52291944Y-97541219D01*
X52706238Y-97541580D01*
X53089135Y-97383371D01*
X53382341Y-97090676D01*
X53541219Y-96708056D01*
X53541580Y-96293762D01*
X53541580Y-101796800D01*
X50109835Y-101796800D01*
X50109835Y-55582241D01*
X49789364Y-54806642D01*
X49196479Y-54212721D01*
X48421440Y-53890897D01*
X47582241Y-53890165D01*
X46806642Y-54210636D01*
X46212721Y-54803521D01*
X45890897Y-55578560D01*
X45890165Y-56417759D01*
X46210636Y-57193358D01*
X46803521Y-57787279D01*
X47578560Y-58109103D01*
X48417759Y-58109835D01*
X49193358Y-57789364D01*
X49787279Y-57196479D01*
X50109103Y-56421440D01*
X50109835Y-55582241D01*
X50109835Y-101796800D01*
X49650930Y-101796800D01*
X49650930Y-92500000D01*
X49650930Y-87500000D01*
X49528406Y-86884033D01*
X49179489Y-86361841D01*
X48657297Y-86012924D01*
X48041330Y-85890400D01*
X46958670Y-85890400D01*
X46342703Y-86012924D01*
X45820511Y-86361841D01*
X45471594Y-86884033D01*
X45349070Y-87500000D01*
X45471594Y-88115967D01*
X45820511Y-88638159D01*
X46342703Y-88987076D01*
X46958670Y-89109600D01*
X48041330Y-89109600D01*
X48657297Y-88987076D01*
X49179489Y-88638159D01*
X49528406Y-88115967D01*
X49650930Y-87500000D01*
X49650930Y-92500000D01*
X49528406Y-91884033D01*
X49179489Y-91361841D01*
X48657297Y-91012924D01*
X48041330Y-90890400D01*
X46958670Y-90890400D01*
X46342703Y-91012924D01*
X45820511Y-91361841D01*
X45471594Y-91884033D01*
X45349070Y-92500000D01*
X45471594Y-93115967D01*
X45820511Y-93638159D01*
X46342703Y-93987076D01*
X46958670Y-94109600D01*
X48041330Y-94109600D01*
X48657297Y-93987076D01*
X49179489Y-93638159D01*
X49528406Y-93115967D01*
X49650930Y-92500000D01*
X49650930Y-101796800D01*
X43659600Y-101796800D01*
X43659600Y-56531914D01*
X43833116Y-54742783D01*
X44631416Y-53243885D01*
X45942553Y-52164581D01*
X47598346Y-51659600D01*
X137935035Y-51659600D01*
X139656054Y-52001931D01*
X141059990Y-52940012D01*
X141998068Y-54343946D01*
X142340400Y-56064964D01*
X142340400Y-101796800D01*
X140650930Y-101796800D01*
X140650930Y-92500000D01*
X140650930Y-87500000D01*
X140528406Y-86884033D01*
X140179489Y-86361841D01*
X140109835Y-86315299D01*
X140109835Y-55582241D01*
X139789364Y-54806642D01*
X139196479Y-54212721D01*
X138421440Y-53890897D01*
X137582241Y-53890165D01*
X136806642Y-54210636D01*
X136212721Y-54803521D01*
X135890897Y-55578560D01*
X135890165Y-56417759D01*
X136210636Y-57193358D01*
X136803521Y-57787279D01*
X137578560Y-58109103D01*
X138417759Y-58109835D01*
X139193358Y-57789364D01*
X139787279Y-57196479D01*
X140109103Y-56421440D01*
X140109835Y-55582241D01*
X140109835Y-86315299D01*
X139657297Y-86012924D01*
X139041330Y-85890400D01*
X137958670Y-85890400D01*
X137342703Y-86012924D01*
X136820511Y-86361841D01*
X136471594Y-86884033D01*
X136349070Y-87500000D01*
X136471594Y-88115967D01*
X136820511Y-88638159D01*
X137342703Y-88987076D01*
X137958670Y-89109600D01*
X139041330Y-89109600D01*
X139657297Y-88987076D01*
X140179489Y-88638159D01*
X140528406Y-88115967D01*
X140650930Y-87500000D01*
X140650930Y-92500000D01*
X140528406Y-91884033D01*
X140179489Y-91361841D01*
X139657297Y-91012924D01*
X139041330Y-90890400D01*
X137958670Y-90890400D01*
X137342703Y-91012924D01*
X136820511Y-91361841D01*
X136471594Y-91884033D01*
X136349070Y-92500000D01*
X136471594Y-93115967D01*
X136820511Y-93638159D01*
X137342703Y-93987076D01*
X137958670Y-94109600D01*
X139041330Y-94109600D01*
X139657297Y-93987076D01*
X140179489Y-93638159D01*
X140528406Y-93115967D01*
X140650930Y-92500000D01*
X140650930Y-101796800D01*
X124459230Y-101796800D01*
X124459230Y-55946658D01*
X124459230Y-54053342D01*
X124348153Y-53494919D01*
X124031831Y-53021511D01*
X123558423Y-52705189D01*
X123000000Y-52594112D01*
X122441577Y-52705189D01*
X121968169Y-53021511D01*
X121730000Y-53377955D01*
X121491831Y-53021511D01*
X121018423Y-52705189D01*
X120460000Y-52594112D01*
X119901577Y-52705189D01*
X119428169Y-53021511D01*
X119111847Y-53494919D01*
X119000770Y-54053342D01*
X119000770Y-55946658D01*
X119111847Y-56505081D01*
X119428169Y-56978489D01*
X119901577Y-57294811D01*
X120460000Y-57405888D01*
X121018423Y-57294811D01*
X121491831Y-56978489D01*
X121730000Y-56622044D01*
X121968169Y-56978489D01*
X122441577Y-57294811D01*
X123000000Y-57405888D01*
X123558423Y-57294811D01*
X124031831Y-56978489D01*
X124348153Y-56505081D01*
X124459230Y-55946658D01*
X124459230Y-101796800D01*
X115291580Y-101796800D01*
X115291580Y-69793762D01*
X115133371Y-69410865D01*
X114840676Y-69117659D01*
X114458056Y-68958781D01*
X114043762Y-68958420D01*
X113660865Y-69116629D01*
X113367659Y-69409324D01*
X113208781Y-69791944D01*
X113208420Y-70206238D01*
X113366629Y-70589135D01*
X113659324Y-70882341D01*
X114041944Y-71041219D01*
X114456238Y-71041580D01*
X114839135Y-70883371D01*
X115132341Y-70590676D01*
X115291219Y-70208056D01*
X115291580Y-69793762D01*
X115291580Y-101796800D01*
X114791580Y-101796800D01*
X114791580Y-86293762D01*
X114633371Y-85910865D01*
X114340676Y-85617659D01*
X113958056Y-85458781D01*
X113543762Y-85458420D01*
X113160865Y-85616629D01*
X112867659Y-85909324D01*
X112708781Y-86291944D01*
X112708420Y-86706238D01*
X112866629Y-87089135D01*
X113159324Y-87382341D01*
X113541944Y-87541219D01*
X113956238Y-87541580D01*
X114339135Y-87383371D01*
X114632341Y-87090676D01*
X114791219Y-86708056D01*
X114791580Y-86293762D01*
X114791580Y-101796800D01*
X112291580Y-101796800D01*
X112291580Y-67293762D01*
X112133371Y-66910865D01*
X111840676Y-66617659D01*
X111458056Y-66458781D01*
X111043762Y-66458420D01*
X110660865Y-66616629D01*
X110367659Y-66909324D01*
X110208781Y-67291944D01*
X110208420Y-67706238D01*
X110366629Y-68089135D01*
X110659324Y-68382341D01*
X111041944Y-68541219D01*
X111456238Y-68541580D01*
X111839135Y-68383371D01*
X112132341Y-68090676D01*
X112291219Y-67708056D01*
X112291580Y-67293762D01*
X112291580Y-101796800D01*
X110202665Y-101796800D01*
X110202665Y-59061367D01*
X110057961Y-58711157D01*
X109790253Y-58442980D01*
X109440295Y-58297665D01*
X109061367Y-58297335D01*
X108711157Y-58442039D01*
X108442980Y-58709747D01*
X108297665Y-59059705D01*
X108297335Y-59438633D01*
X108442039Y-59788843D01*
X108709747Y-60057020D01*
X109059705Y-60202335D01*
X109438633Y-60202665D01*
X109788843Y-60057961D01*
X110057020Y-59790253D01*
X110202335Y-59440295D01*
X110202665Y-59061367D01*
X110202665Y-101796800D01*
X109041580Y-101796800D01*
X109041580Y-68293762D01*
X108920097Y-67999749D01*
X109041219Y-67708056D01*
X109041580Y-67293762D01*
X108920097Y-66999749D01*
X109041219Y-66708056D01*
X109041580Y-66293762D01*
X108920097Y-65999749D01*
X109041219Y-65708056D01*
X109041580Y-65293762D01*
X108883371Y-64910865D01*
X108590676Y-64617659D01*
X108208056Y-64458781D01*
X107793762Y-64458420D01*
X107410865Y-64616629D01*
X107117659Y-64909324D01*
X106958781Y-65291944D01*
X106958420Y-65706238D01*
X107079902Y-66000250D01*
X106958781Y-66291944D01*
X106958420Y-66706238D01*
X107079902Y-67000250D01*
X106958781Y-67291944D01*
X106958420Y-67706238D01*
X107079902Y-68000250D01*
X106958781Y-68291944D01*
X106958420Y-68706238D01*
X107116629Y-69089135D01*
X107409324Y-69382341D01*
X107791944Y-69541219D01*
X108206238Y-69541580D01*
X108589135Y-69383371D01*
X108882341Y-69090676D01*
X109041219Y-68708056D01*
X109041580Y-68293762D01*
X109041580Y-101796800D01*
X105452665Y-101796800D01*
X105452665Y-93561367D01*
X105307961Y-93211157D01*
X105040253Y-92942980D01*
X104690295Y-92797665D01*
X104459230Y-92797463D01*
X104459230Y-55946658D01*
X104459230Y-54053342D01*
X104348153Y-53494919D01*
X104031831Y-53021511D01*
X103558423Y-52705189D01*
X103000000Y-52594112D01*
X102441577Y-52705189D01*
X101968169Y-53021511D01*
X101730000Y-53377955D01*
X101491831Y-53021511D01*
X101018423Y-52705189D01*
X100460000Y-52594112D01*
X99901577Y-52705189D01*
X99428169Y-53021511D01*
X99111847Y-53494919D01*
X99000770Y-54053342D01*
X99000770Y-55946658D01*
X99111847Y-56505081D01*
X99428169Y-56978489D01*
X99901577Y-57294811D01*
X100460000Y-57405888D01*
X101018423Y-57294811D01*
X101491831Y-56978489D01*
X101730000Y-56622044D01*
X101968169Y-56978489D01*
X102441577Y-57294811D01*
X103000000Y-57405888D01*
X103558423Y-57294811D01*
X104031831Y-56978489D01*
X104348153Y-56505081D01*
X104459230Y-55946658D01*
X104459230Y-92797463D01*
X104311367Y-92797335D01*
X103961157Y-92942039D01*
X103692980Y-93209747D01*
X103547665Y-93559705D01*
X103547335Y-93938633D01*
X103692039Y-94288843D01*
X103959747Y-94557020D01*
X104309705Y-94702335D01*
X104688633Y-94702665D01*
X105038843Y-94557961D01*
X105307020Y-94290253D01*
X105452335Y-93940295D01*
X105452665Y-93561367D01*
X105452665Y-101796800D01*
X102796800Y-101796800D01*
X102796800Y-103203200D01*
X142340400Y-103203200D01*
X142340400Y-125935035D01*
X142340400Y-125935035D01*
G37*
X142340400Y-125935035D02*
X141998068Y-127656053D01*
X141059990Y-129059987D01*
X140109835Y-129694860D01*
X140109835Y-125582241D01*
X139789364Y-124806642D01*
X139196479Y-124212721D01*
X138421440Y-123890897D01*
X137582241Y-123890165D01*
X136806642Y-124210636D01*
X136212721Y-124803521D01*
X135890897Y-125578560D01*
X135890165Y-126417759D01*
X136210636Y-127193358D01*
X136803521Y-127787279D01*
X137578560Y-128109103D01*
X138417759Y-128109835D01*
X139193358Y-127789364D01*
X139787279Y-127196479D01*
X140109103Y-126421440D01*
X140109835Y-125582241D01*
X140109835Y-129694860D01*
X139656054Y-129998068D01*
X137935035Y-130340400D01*
X124752665Y-130340400D01*
X124752665Y-117911367D01*
X124607961Y-117561157D01*
X124340253Y-117292980D01*
X123990295Y-117147665D01*
X123611367Y-117147335D01*
X123261157Y-117292039D01*
X122992980Y-117559747D01*
X122847665Y-117909705D01*
X122847335Y-118288633D01*
X122992039Y-118638843D01*
X123259747Y-118907020D01*
X123433911Y-118979339D01*
X123161157Y-119092039D01*
X122892980Y-119359747D01*
X122747665Y-119709705D01*
X122747335Y-120088633D01*
X122892039Y-120438843D01*
X123159747Y-120707020D01*
X123509705Y-120852335D01*
X123888633Y-120852665D01*
X124238843Y-120707961D01*
X124507020Y-120440253D01*
X124652335Y-120090295D01*
X124652665Y-119711367D01*
X124507961Y-119361157D01*
X124240253Y-119092980D01*
X124066088Y-119020660D01*
X124338843Y-118907961D01*
X124607020Y-118640253D01*
X124752335Y-118290295D01*
X124752665Y-117911367D01*
X124752665Y-130340400D01*
X119852665Y-130340400D01*
X119852665Y-117811367D01*
X119707961Y-117461157D01*
X119440253Y-117192980D01*
X119090295Y-117047665D01*
X118711367Y-117047335D01*
X118361157Y-117192039D01*
X118092980Y-117459747D01*
X117947665Y-117809705D01*
X117947335Y-118188633D01*
X118092039Y-118538843D01*
X118359747Y-118807020D01*
X118709705Y-118952335D01*
X119088633Y-118952665D01*
X119438843Y-118807961D01*
X119707020Y-118540253D01*
X119852335Y-118190295D01*
X119852665Y-117811367D01*
X119852665Y-130340400D01*
X116152665Y-130340400D01*
X116152665Y-117811367D01*
X116007961Y-117461157D01*
X115740253Y-117192980D01*
X115390295Y-117047665D01*
X115011367Y-117047335D01*
X114661157Y-117192039D01*
X114392980Y-117459747D01*
X114247665Y-117809705D01*
X114247335Y-118188633D01*
X114392039Y-118538843D01*
X114659747Y-118807020D01*
X115009705Y-118952335D01*
X115388633Y-118952665D01*
X115738843Y-118807961D01*
X116007020Y-118540253D01*
X116152335Y-118190295D01*
X116152665Y-117811367D01*
X116152665Y-130340400D01*
X113452665Y-130340400D01*
X113452665Y-109111367D01*
X113307961Y-108761157D01*
X113040253Y-108492980D01*
X112690295Y-108347665D01*
X112311367Y-108347335D01*
X111961157Y-108492039D01*
X111692980Y-108759747D01*
X111547665Y-109109705D01*
X111547335Y-109488633D01*
X111692039Y-109838843D01*
X111959747Y-110107020D01*
X112309705Y-110252335D01*
X112688633Y-110252665D01*
X113038843Y-110107961D01*
X113307020Y-109840253D01*
X113452335Y-109490295D01*
X113452665Y-109111367D01*
X113452665Y-130340400D01*
X108702665Y-130340400D01*
X108702665Y-120311367D01*
X108557961Y-119961157D01*
X108290253Y-119692980D01*
X107940295Y-119547665D01*
X107561367Y-119547335D01*
X107286208Y-119661028D01*
X107307020Y-119640253D01*
X107452335Y-119290295D01*
X107452665Y-118911367D01*
X107307961Y-118561157D01*
X107040253Y-118292980D01*
X106690295Y-118147665D01*
X106311367Y-118147335D01*
X105961157Y-118292039D01*
X105692980Y-118559747D01*
X105547665Y-118909705D01*
X105547335Y-119288633D01*
X105692039Y-119638843D01*
X105959747Y-119907020D01*
X106309705Y-120052335D01*
X106688633Y-120052665D01*
X106963791Y-119938971D01*
X106942980Y-119959747D01*
X106797665Y-120309705D01*
X106797335Y-120688633D01*
X106942039Y-121038843D01*
X107209747Y-121307020D01*
X107559705Y-121452335D01*
X107938633Y-121452665D01*
X108288843Y-121307961D01*
X108557020Y-121040253D01*
X108702335Y-120690295D01*
X108702665Y-120311367D01*
X108702665Y-130340400D01*
X102152665Y-130340400D01*
X102152665Y-120311367D01*
X102007961Y-119961157D01*
X101740253Y-119692980D01*
X101402665Y-119552801D01*
X101402665Y-102111367D01*
X101257961Y-101761157D01*
X100990253Y-101492980D01*
X100640295Y-101347665D01*
X100261367Y-101347335D01*
X99911157Y-101492039D01*
X99642980Y-101759747D01*
X99497665Y-102109705D01*
X99497335Y-102488633D01*
X99642039Y-102838843D01*
X99909747Y-103107020D01*
X100259705Y-103252335D01*
X100638633Y-103252665D01*
X100988843Y-103107961D01*
X101257020Y-102840253D01*
X101402335Y-102490295D01*
X101402665Y-102111367D01*
X101402665Y-119552801D01*
X101390295Y-119547665D01*
X101011367Y-119547335D01*
X100661157Y-119692039D01*
X100541580Y-119811406D01*
X100541580Y-104793762D01*
X100383371Y-104410865D01*
X100090676Y-104117659D01*
X99708056Y-103958781D01*
X99293762Y-103958420D01*
X98910865Y-104116629D01*
X98617659Y-104409324D01*
X98458781Y-104791944D01*
X98458420Y-105206238D01*
X98616629Y-105589135D01*
X98909324Y-105882341D01*
X99291944Y-106041219D01*
X99706238Y-106041580D01*
X100089135Y-105883371D01*
X100382341Y-105590676D01*
X100541219Y-105208056D01*
X100541580Y-104793762D01*
X100541580Y-119811406D01*
X100452665Y-119900166D01*
X100452665Y-114411367D01*
X100307961Y-114061157D01*
X100040253Y-113792980D01*
X99690295Y-113647665D01*
X99311367Y-113647335D01*
X98961157Y-113792039D01*
X98692980Y-114059747D01*
X98547665Y-114409705D01*
X98547335Y-114788633D01*
X98692039Y-115138843D01*
X98959747Y-115407020D01*
X99309705Y-115552335D01*
X99688633Y-115552665D01*
X100038843Y-115407961D01*
X100307020Y-115140253D01*
X100452335Y-114790295D01*
X100452665Y-114411367D01*
X100452665Y-119900166D01*
X100392980Y-119959747D01*
X100247665Y-120309705D01*
X100247335Y-120688633D01*
X100392039Y-121038843D01*
X100659747Y-121307020D01*
X101009705Y-121452335D01*
X101388633Y-121452665D01*
X101738843Y-121307961D01*
X102007020Y-121040253D01*
X102152335Y-120690295D01*
X102152665Y-120311367D01*
X102152665Y-130340400D01*
X95291580Y-130340400D01*
X95291580Y-69043762D01*
X95133371Y-68660865D01*
X94840676Y-68367659D01*
X94458056Y-68208781D01*
X94043762Y-68208420D01*
X93660865Y-68366629D01*
X93367659Y-68659324D01*
X93208781Y-69041944D01*
X93208420Y-69456238D01*
X93366629Y-69839135D01*
X93659324Y-70132341D01*
X94041944Y-70291219D01*
X94456238Y-70291580D01*
X94839135Y-70133371D01*
X95132341Y-69840676D01*
X95291219Y-69458056D01*
X95291580Y-69043762D01*
X95291580Y-130340400D01*
X95252665Y-130340400D01*
X95252665Y-119011367D01*
X95107961Y-118661157D01*
X95041580Y-118594659D01*
X95041580Y-99793762D01*
X94883371Y-99410865D01*
X94590676Y-99117659D01*
X94208056Y-98958781D01*
X93793762Y-98958420D01*
X93410865Y-99116629D01*
X93117659Y-99409324D01*
X92958781Y-99791944D01*
X92958420Y-100206238D01*
X93116629Y-100589135D01*
X93409324Y-100882341D01*
X93791944Y-101041219D01*
X94206238Y-101041580D01*
X94589135Y-100883371D01*
X94882341Y-100590676D01*
X95041219Y-100208056D01*
X95041580Y-99793762D01*
X95041580Y-118594659D01*
X94840253Y-118392980D01*
X94490295Y-118247665D01*
X94111367Y-118247335D01*
X93761157Y-118392039D01*
X93492980Y-118659747D01*
X93347665Y-119009705D01*
X93347335Y-119388633D01*
X93492039Y-119738843D01*
X93759747Y-120007020D01*
X94109705Y-120152335D01*
X94488633Y-120152665D01*
X94838843Y-120007961D01*
X95107020Y-119740253D01*
X95252335Y-119390295D01*
X95252665Y-119011367D01*
X95252665Y-130340400D01*
X95152665Y-130340400D01*
X95152665Y-123411367D01*
X95007961Y-123061157D01*
X94740253Y-122792980D01*
X94390295Y-122647665D01*
X94011367Y-122647335D01*
X93661157Y-122792039D01*
X93392980Y-123059747D01*
X93247665Y-123409705D01*
X93247335Y-123788633D01*
X93392039Y-124138843D01*
X93659747Y-124407020D01*
X94009705Y-124552335D01*
X94388633Y-124552665D01*
X94738843Y-124407961D01*
X95007020Y-124140253D01*
X95152335Y-123790295D01*
X95152665Y-123411367D01*
X95152665Y-130340400D01*
X93323200Y-130340400D01*
X93323200Y-128637257D01*
X93323200Y-128394743D01*
X93323200Y-126362743D01*
X93230394Y-126138689D01*
X93058911Y-125967206D01*
X92834857Y-125874400D01*
X92592343Y-125874400D01*
X91409844Y-125874400D01*
X91409844Y-91220843D01*
X91195698Y-90702569D01*
X90799517Y-90305696D01*
X90281617Y-90090645D01*
X89720843Y-90090156D01*
X89202569Y-90304302D01*
X88805696Y-90700483D01*
X88791580Y-90734478D01*
X88791580Y-61043762D01*
X88633371Y-60660865D01*
X88340676Y-60367659D01*
X87958056Y-60208781D01*
X87543762Y-60208420D01*
X87160865Y-60366629D01*
X86867659Y-60659324D01*
X86708781Y-61041944D01*
X86708420Y-61456238D01*
X86866629Y-61839135D01*
X87159324Y-62132341D01*
X87541944Y-62291219D01*
X87956238Y-62291580D01*
X88339135Y-62133371D01*
X88632341Y-61840676D01*
X88791219Y-61458056D01*
X88791580Y-61043762D01*
X88791580Y-90734478D01*
X88590645Y-91218383D01*
X88590156Y-91779157D01*
X88804302Y-92297431D01*
X89200483Y-92694304D01*
X89718383Y-92909355D01*
X90279157Y-92909844D01*
X90797431Y-92695698D01*
X91194304Y-92299517D01*
X91409355Y-91781617D01*
X91409844Y-91220843D01*
X91409844Y-125874400D01*
X90865143Y-125874400D01*
X90852665Y-125879568D01*
X90852665Y-115811367D01*
X90707961Y-115461157D01*
X90452665Y-115205413D01*
X90452665Y-111311367D01*
X90307961Y-110961157D01*
X90040253Y-110692980D01*
X89690295Y-110547665D01*
X89311367Y-110547335D01*
X88961157Y-110692039D01*
X88692980Y-110959747D01*
X88547665Y-111309705D01*
X88547542Y-111450282D01*
X88540253Y-111442980D01*
X88190295Y-111297665D01*
X87811367Y-111297335D01*
X87461157Y-111442039D01*
X87192980Y-111709747D01*
X87047665Y-112059705D01*
X87047335Y-112438633D01*
X87192039Y-112788843D01*
X87459747Y-113057020D01*
X87809705Y-113202335D01*
X88188633Y-113202665D01*
X88538843Y-113057961D01*
X88807020Y-112790253D01*
X88952335Y-112440295D01*
X88952457Y-112299717D01*
X88959747Y-112307020D01*
X89309705Y-112452335D01*
X89688633Y-112452665D01*
X90038843Y-112307961D01*
X90307020Y-112040253D01*
X90452335Y-111690295D01*
X90452665Y-111311367D01*
X90452665Y-115205413D01*
X90440253Y-115192980D01*
X90090295Y-115047665D01*
X89711367Y-115047335D01*
X89361157Y-115192039D01*
X89092980Y-115459747D01*
X88947665Y-115809705D01*
X88947335Y-116188633D01*
X89092039Y-116538843D01*
X89359747Y-116807020D01*
X89709705Y-116952335D01*
X90088633Y-116952665D01*
X90438843Y-116807961D01*
X90707020Y-116540253D01*
X90852335Y-116190295D01*
X90852665Y-115811367D01*
X90852665Y-125879568D01*
X90641089Y-125967206D01*
X90469606Y-126138689D01*
X90376800Y-126362743D01*
X90376800Y-126605257D01*
X90376800Y-128637257D01*
X90469606Y-128861311D01*
X90641089Y-129032794D01*
X90865143Y-129125600D01*
X91107657Y-129125600D01*
X92834857Y-129125600D01*
X93058911Y-129032794D01*
X93230394Y-128861311D01*
X93323200Y-128637257D01*
X93323200Y-130340400D01*
X88243200Y-130340400D01*
X88243200Y-127684247D01*
X88243200Y-127315753D01*
X88131059Y-126751984D01*
X87811710Y-126274043D01*
X87333769Y-125954694D01*
X86770000Y-125842553D01*
X86206231Y-125954694D01*
X85728290Y-126274043D01*
X85500000Y-126615704D01*
X85452665Y-126544861D01*
X85452665Y-104711367D01*
X85307961Y-104361157D01*
X85040253Y-104092980D01*
X84690295Y-103947665D01*
X84311367Y-103947335D01*
X83961157Y-104092039D01*
X83692980Y-104359747D01*
X83547665Y-104709705D01*
X83547545Y-104847366D01*
X83511367Y-104847335D01*
X83161157Y-104992039D01*
X82892980Y-105259747D01*
X82773540Y-105547389D01*
X82711367Y-105547335D01*
X82361157Y-105692039D01*
X82092980Y-105959747D01*
X81973540Y-106247389D01*
X81911367Y-106247335D01*
X81561157Y-106392039D01*
X81292980Y-106659747D01*
X81173540Y-106947389D01*
X81111367Y-106947335D01*
X80761157Y-107092039D01*
X80492980Y-107359747D01*
X80347665Y-107709705D01*
X80347335Y-108088633D01*
X80492039Y-108438843D01*
X80759747Y-108707020D01*
X81109705Y-108852335D01*
X81488633Y-108852665D01*
X81838843Y-108707961D01*
X82107020Y-108440253D01*
X82226459Y-108152610D01*
X82288633Y-108152665D01*
X82638843Y-108007961D01*
X82907020Y-107740253D01*
X83026459Y-107452610D01*
X83088633Y-107452665D01*
X83438843Y-107307961D01*
X83707020Y-107040253D01*
X83826459Y-106752610D01*
X83888633Y-106752665D01*
X84238843Y-106607961D01*
X84507020Y-106340253D01*
X84652335Y-105990295D01*
X84652454Y-105852633D01*
X84688633Y-105852665D01*
X85038843Y-105707961D01*
X85307020Y-105440253D01*
X85452335Y-105090295D01*
X85452665Y-104711367D01*
X85452665Y-126544861D01*
X85271710Y-126274043D01*
X84793769Y-125954694D01*
X84230000Y-125842553D01*
X83666231Y-125954694D01*
X83188290Y-126274043D01*
X82960000Y-126615704D01*
X82731710Y-126274043D01*
X82253769Y-125954694D01*
X81690000Y-125842553D01*
X81126231Y-125954694D01*
X80648290Y-126274043D01*
X80420000Y-126615704D01*
X80191710Y-126274043D01*
X79713769Y-125954694D01*
X79452665Y-125902757D01*
X79452665Y-113811367D01*
X79307961Y-113461157D01*
X79040253Y-113192980D01*
X78852400Y-113114977D01*
X78852665Y-112811367D01*
X78707961Y-112461157D01*
X78440253Y-112192980D01*
X78090295Y-112047665D01*
X77711367Y-112047335D01*
X77361157Y-112192039D01*
X77092980Y-112459747D01*
X76947665Y-112809705D01*
X76947335Y-113188633D01*
X77092039Y-113538843D01*
X77359747Y-113807020D01*
X77547599Y-113885022D01*
X77547335Y-114188633D01*
X77692039Y-114538843D01*
X77959747Y-114807020D01*
X78309705Y-114952335D01*
X78688633Y-114952665D01*
X79038843Y-114807961D01*
X79307020Y-114540253D01*
X79452335Y-114190295D01*
X79452665Y-113811367D01*
X79452665Y-125902757D01*
X79150000Y-125842553D01*
X78852665Y-125901696D01*
X78852665Y-117311367D01*
X78707961Y-116961157D01*
X78440253Y-116692980D01*
X78238109Y-116609042D01*
X78307020Y-116540253D01*
X78452335Y-116190295D01*
X78452665Y-115811367D01*
X78307961Y-115461157D01*
X78040253Y-115192980D01*
X77690295Y-115047665D01*
X77311367Y-115047335D01*
X76961157Y-115192039D01*
X76692980Y-115459747D01*
X76547665Y-115809705D01*
X76547335Y-116188633D01*
X76552316Y-116200689D01*
X76392980Y-116359747D01*
X76247665Y-116709705D01*
X76247335Y-117088633D01*
X76392039Y-117438843D01*
X76659747Y-117707020D01*
X77009705Y-117852335D01*
X77014977Y-117852339D01*
X77092039Y-118038843D01*
X77359747Y-118307020D01*
X77709705Y-118452335D01*
X78088633Y-118452665D01*
X78438843Y-118307961D01*
X78707020Y-118040253D01*
X78852335Y-117690295D01*
X78852665Y-117311367D01*
X78852665Y-125901696D01*
X78586231Y-125954694D01*
X78108290Y-126274043D01*
X77788941Y-126751984D01*
X77676800Y-127315753D01*
X77676800Y-127684247D01*
X77788941Y-128248016D01*
X78108290Y-128725957D01*
X78586231Y-129045306D01*
X79150000Y-129157447D01*
X79713769Y-129045306D01*
X80191710Y-128725957D01*
X80420000Y-128384295D01*
X80648290Y-128725957D01*
X81126231Y-129045306D01*
X81690000Y-129157447D01*
X82253769Y-129045306D01*
X82731710Y-128725957D01*
X82960000Y-128384295D01*
X83188290Y-128725957D01*
X83666231Y-129045306D01*
X84230000Y-129157447D01*
X84793769Y-129045306D01*
X85271710Y-128725957D01*
X85500000Y-128384295D01*
X85728290Y-128725957D01*
X86206231Y-129045306D01*
X86770000Y-129157447D01*
X87333769Y-129045306D01*
X87811710Y-128725957D01*
X88131059Y-128248016D01*
X88243200Y-127684247D01*
X88243200Y-130340400D01*
X75452665Y-130340400D01*
X75452665Y-126011367D01*
X75307961Y-125661157D01*
X75040253Y-125392980D01*
X74690295Y-125247665D01*
X74352665Y-125247370D01*
X74352665Y-116611367D01*
X74207961Y-116261157D01*
X73940253Y-115992980D01*
X73702736Y-115894354D01*
X73807020Y-115790253D01*
X73952335Y-115440295D01*
X73952665Y-115061367D01*
X73903829Y-114943175D01*
X74057020Y-114790253D01*
X74202335Y-114440295D01*
X74202665Y-114061367D01*
X74057961Y-113711157D01*
X73790253Y-113442980D01*
X73440295Y-113297665D01*
X73061367Y-113297335D01*
X72992296Y-113325874D01*
X73041219Y-113208056D01*
X73041580Y-112793762D01*
X72883371Y-112410865D01*
X72590676Y-112117659D01*
X72208056Y-111958781D01*
X71793762Y-111958420D01*
X71410865Y-112116629D01*
X71252665Y-112274553D01*
X71252665Y-111011367D01*
X71152665Y-110769348D01*
X71152665Y-106611367D01*
X71007961Y-106261157D01*
X70740253Y-105992980D01*
X70390295Y-105847665D01*
X70011367Y-105847335D01*
X69661157Y-105992039D01*
X69392980Y-106259747D01*
X69247665Y-106609705D01*
X69247335Y-106988633D01*
X69392039Y-107338843D01*
X69659747Y-107607020D01*
X70009705Y-107752335D01*
X70388633Y-107752665D01*
X70738843Y-107607961D01*
X71007020Y-107340253D01*
X71152335Y-106990295D01*
X71152665Y-106611367D01*
X71152665Y-110769348D01*
X71107961Y-110661157D01*
X70840253Y-110392980D01*
X70490295Y-110247665D01*
X70111367Y-110247335D01*
X69761157Y-110392039D01*
X69492980Y-110659747D01*
X69347665Y-111009705D01*
X69347335Y-111388633D01*
X69492039Y-111738843D01*
X69759747Y-112007020D01*
X70109705Y-112152335D01*
X70488633Y-112152665D01*
X70838843Y-112007961D01*
X71107020Y-111740253D01*
X71252335Y-111390295D01*
X71252665Y-111011367D01*
X71252665Y-112274553D01*
X71117659Y-112409324D01*
X71011633Y-112664660D01*
X70840253Y-112492980D01*
X70490295Y-112347665D01*
X70111367Y-112347335D01*
X69761157Y-112492039D01*
X69492980Y-112759747D01*
X69347665Y-113109705D01*
X69347335Y-113488633D01*
X69492039Y-113838843D01*
X69759747Y-114107020D01*
X70109705Y-114252335D01*
X70488633Y-114252665D01*
X70838843Y-114107961D01*
X71107020Y-113840253D01*
X71183484Y-113656106D01*
X71409324Y-113882341D01*
X71791944Y-114041219D01*
X72206238Y-114041580D01*
X72325684Y-113992225D01*
X72297665Y-114059705D01*
X72297335Y-114438633D01*
X72346170Y-114556824D01*
X72192980Y-114709747D01*
X72047665Y-115059705D01*
X72047450Y-115305721D01*
X71792980Y-115559747D01*
X71647665Y-115909705D01*
X71647335Y-116288633D01*
X71792039Y-116638843D01*
X72059747Y-116907020D01*
X72409705Y-117052335D01*
X72473679Y-117052390D01*
X72592039Y-117338843D01*
X72859747Y-117607020D01*
X73209705Y-117752335D01*
X73588633Y-117752665D01*
X73938843Y-117607961D01*
X74207020Y-117340253D01*
X74352335Y-116990295D01*
X74352665Y-116611367D01*
X74352665Y-125247370D01*
X74311367Y-125247335D01*
X73961157Y-125392039D01*
X73692980Y-125659747D01*
X73547665Y-126009705D01*
X73547335Y-126388633D01*
X73692039Y-126738843D01*
X73959747Y-127007020D01*
X74309705Y-127152335D01*
X74688633Y-127152665D01*
X75038843Y-127007961D01*
X75307020Y-126740253D01*
X75452335Y-126390295D01*
X75452665Y-126011367D01*
X75452665Y-130340400D01*
X72352665Y-130340400D01*
X72352665Y-119411367D01*
X72207961Y-119061157D01*
X71940253Y-118792980D01*
X71590295Y-118647665D01*
X71211367Y-118647335D01*
X70861157Y-118792039D01*
X70592980Y-119059747D01*
X70450340Y-119403260D01*
X70340253Y-119292980D01*
X69990295Y-119147665D01*
X69884986Y-119147573D01*
X69807961Y-118961157D01*
X69540253Y-118692980D01*
X69452665Y-118656610D01*
X69452665Y-113911367D01*
X69307961Y-113561157D01*
X69040253Y-113292980D01*
X68690295Y-113147665D01*
X68311367Y-113147335D01*
X67961157Y-113292039D01*
X67692980Y-113559747D01*
X67547665Y-113909705D01*
X67547335Y-114288633D01*
X67692039Y-114638843D01*
X67959747Y-114907020D01*
X68309705Y-115052335D01*
X68688633Y-115052665D01*
X69038843Y-114907961D01*
X69307020Y-114640253D01*
X69452335Y-114290295D01*
X69452665Y-113911367D01*
X69452665Y-118656610D01*
X69190295Y-118547665D01*
X68811367Y-118547335D01*
X68461157Y-118692039D01*
X68192980Y-118959747D01*
X68047665Y-119309705D01*
X68047335Y-119688633D01*
X68192039Y-120038843D01*
X68459747Y-120307020D01*
X68809705Y-120452335D01*
X68915013Y-120452426D01*
X68992039Y-120638843D01*
X69259747Y-120907020D01*
X69609705Y-121052335D01*
X69988633Y-121052665D01*
X70338843Y-120907961D01*
X70607020Y-120640253D01*
X70749659Y-120296739D01*
X70859747Y-120407020D01*
X71209705Y-120552335D01*
X71588633Y-120552665D01*
X71938843Y-120407961D01*
X72207020Y-120140253D01*
X72352335Y-119790295D01*
X72352665Y-119411367D01*
X72352665Y-130340400D01*
X71552665Y-130340400D01*
X71552665Y-126711367D01*
X71407961Y-126361157D01*
X71297039Y-126250041D01*
X71407020Y-126140253D01*
X71552335Y-125790295D01*
X71552665Y-125411367D01*
X71407961Y-125061157D01*
X71140253Y-124792980D01*
X70790295Y-124647665D01*
X70411367Y-124647335D01*
X70061157Y-124792039D01*
X69792980Y-125059747D01*
X69647665Y-125409705D01*
X69647335Y-125788633D01*
X69792039Y-126138843D01*
X69902960Y-126249958D01*
X69792980Y-126359747D01*
X69647665Y-126709705D01*
X69647335Y-127088633D01*
X69792039Y-127438843D01*
X70059747Y-127707020D01*
X70409705Y-127852335D01*
X70788633Y-127852665D01*
X71138843Y-127707961D01*
X71407020Y-127440253D01*
X71552335Y-127090295D01*
X71552665Y-126711367D01*
X71552665Y-130340400D01*
X67952665Y-130340400D01*
X67952665Y-123061367D01*
X67807961Y-122711157D01*
X67540253Y-122442980D01*
X67190295Y-122297665D01*
X66811367Y-122297335D01*
X66461157Y-122442039D01*
X66192980Y-122709747D01*
X66047665Y-123059705D01*
X66047335Y-123438633D01*
X66192039Y-123788843D01*
X66459747Y-124057020D01*
X66809705Y-124202335D01*
X67188633Y-124202665D01*
X67538843Y-124057961D01*
X67807020Y-123790253D01*
X67952335Y-123440295D01*
X67952665Y-123061367D01*
X67952665Y-130340400D01*
X63243200Y-130340400D01*
X63243200Y-127684247D01*
X63243200Y-127315753D01*
X63131059Y-126751984D01*
X63041580Y-126618068D01*
X63041580Y-109293762D01*
X62883371Y-108910865D01*
X62590676Y-108617659D01*
X62208056Y-108458781D01*
X61793762Y-108458420D01*
X61410865Y-108616629D01*
X61117659Y-108909324D01*
X60958781Y-109291944D01*
X60958420Y-109706238D01*
X61116629Y-110089135D01*
X61409324Y-110382341D01*
X61791944Y-110541219D01*
X62206238Y-110541580D01*
X62589135Y-110383371D01*
X62882341Y-110090676D01*
X63041219Y-109708056D01*
X63041580Y-109293762D01*
X63041580Y-126618068D01*
X62811710Y-126274043D01*
X62791580Y-126260592D01*
X62791580Y-116293762D01*
X62633371Y-115910865D01*
X62340676Y-115617659D01*
X61958056Y-115458781D01*
X61543762Y-115458420D01*
X61160865Y-115616629D01*
X60867659Y-115909324D01*
X60708781Y-116291944D01*
X60708420Y-116706238D01*
X60866629Y-117089135D01*
X61159324Y-117382341D01*
X61541944Y-117541219D01*
X61956238Y-117541580D01*
X62339135Y-117383371D01*
X62632341Y-117090676D01*
X62791219Y-116708056D01*
X62791580Y-116293762D01*
X62791580Y-126260592D01*
X62333769Y-125954694D01*
X61770000Y-125842553D01*
X61206231Y-125954694D01*
X60728290Y-126274043D01*
X60500000Y-126615704D01*
X60271710Y-126274043D01*
X59793769Y-125954694D01*
X59230000Y-125842553D01*
X58666231Y-125954694D01*
X58188290Y-126274043D01*
X58150120Y-126331167D01*
X58070394Y-126138689D01*
X57898911Y-125967206D01*
X57674857Y-125874400D01*
X57432343Y-125874400D01*
X55705143Y-125874400D01*
X55481089Y-125967206D01*
X55309606Y-126138689D01*
X55216800Y-126362743D01*
X55216800Y-126605257D01*
X55216800Y-128637257D01*
X55309606Y-128861311D01*
X55481089Y-129032794D01*
X55705143Y-129125600D01*
X55947657Y-129125600D01*
X57674857Y-129125600D01*
X57898911Y-129032794D01*
X58070394Y-128861311D01*
X58150120Y-128668832D01*
X58188290Y-128725957D01*
X58666231Y-129045306D01*
X59230000Y-129157447D01*
X59793769Y-129045306D01*
X60271710Y-128725957D01*
X60500000Y-128384295D01*
X60728290Y-128725957D01*
X61206231Y-129045306D01*
X61770000Y-129157447D01*
X62333769Y-129045306D01*
X62811710Y-128725957D01*
X63131059Y-128248016D01*
X63243200Y-127684247D01*
X63243200Y-130340400D01*
X51859922Y-130340400D01*
X51859922Y-111631725D01*
X51577412Y-110947997D01*
X51054754Y-110424427D01*
X50371520Y-110140723D01*
X49631725Y-110140078D01*
X48947997Y-110422588D01*
X48424427Y-110945246D01*
X48140723Y-111628480D01*
X48140078Y-112368275D01*
X48422588Y-113052003D01*
X48945246Y-113575573D01*
X49628480Y-113859277D01*
X50368275Y-113859922D01*
X51052003Y-113577412D01*
X51575573Y-113054754D01*
X51859277Y-112371520D01*
X51859922Y-111631725D01*
X51859922Y-130340400D01*
X50109835Y-130340400D01*
X50109835Y-125582241D01*
X49789364Y-124806642D01*
X49196479Y-124212721D01*
X48421440Y-123890897D01*
X47582241Y-123890165D01*
X46806642Y-124210636D01*
X46212721Y-124803521D01*
X45890897Y-125578560D01*
X45890165Y-126417759D01*
X46210636Y-127193358D01*
X46803521Y-127787279D01*
X47578560Y-128109103D01*
X48417759Y-128109835D01*
X49193358Y-127789364D01*
X49787279Y-127196479D01*
X50109103Y-126421440D01*
X50109835Y-125582241D01*
X50109835Y-130340400D01*
X48064964Y-130340400D01*
X46343946Y-129998068D01*
X44940012Y-129059990D01*
X44001931Y-127656054D01*
X43659600Y-125935035D01*
X43659600Y-103203200D01*
X88203200Y-103203200D01*
X88203200Y-101796800D01*
X84459230Y-101796800D01*
X84459230Y-55946658D01*
X84459230Y-54053342D01*
X84348153Y-53494919D01*
X84031831Y-53021511D01*
X83558423Y-52705189D01*
X83000000Y-52594112D01*
X82441577Y-52705189D01*
X81968169Y-53021511D01*
X81730000Y-53377955D01*
X81491831Y-53021511D01*
X81018423Y-52705189D01*
X80460000Y-52594112D01*
X79901577Y-52705189D01*
X79428169Y-53021511D01*
X79111847Y-53494919D01*
X79000770Y-54053342D01*
X79000770Y-55946658D01*
X79111847Y-56505081D01*
X79428169Y-56978489D01*
X79901577Y-57294811D01*
X80460000Y-57405888D01*
X81018423Y-57294811D01*
X81491831Y-56978489D01*
X81730000Y-56622044D01*
X81968169Y-56978489D01*
X82441577Y-57294811D01*
X83000000Y-57405888D01*
X83558423Y-57294811D01*
X84031831Y-56978489D01*
X84348153Y-56505081D01*
X84459230Y-55946658D01*
X84459230Y-101796800D01*
X67791580Y-101796800D01*
X67791580Y-65293762D01*
X67633371Y-64910865D01*
X67340676Y-64617659D01*
X66999230Y-64475877D01*
X66999230Y-55946658D01*
X66999230Y-54053342D01*
X66888153Y-53494919D01*
X66571831Y-53021511D01*
X66098423Y-52705189D01*
X65540000Y-52594112D01*
X64981577Y-52705189D01*
X64508169Y-53021511D01*
X64270000Y-53377955D01*
X64031831Y-53021511D01*
X63558423Y-52705189D01*
X63000000Y-52594112D01*
X62441577Y-52705189D01*
X61968169Y-53021511D01*
X61730000Y-53377955D01*
X61491831Y-53021511D01*
X61018423Y-52705189D01*
X60460000Y-52594112D01*
X59901577Y-52705189D01*
X59428169Y-53021511D01*
X59111847Y-53494919D01*
X59000770Y-54053342D01*
X59000770Y-55946658D01*
X59111847Y-56505081D01*
X59428169Y-56978489D01*
X59901577Y-57294811D01*
X60460000Y-57405888D01*
X61018423Y-57294811D01*
X61491831Y-56978489D01*
X61730000Y-56622044D01*
X61968169Y-56978489D01*
X62441577Y-57294811D01*
X63000000Y-57405888D01*
X63558423Y-57294811D01*
X64031831Y-56978489D01*
X64270000Y-56622044D01*
X64508169Y-56978489D01*
X64981577Y-57294811D01*
X65540000Y-57405888D01*
X66098423Y-57294811D01*
X66571831Y-56978489D01*
X66888153Y-56505081D01*
X66999230Y-55946658D01*
X66999230Y-64475877D01*
X66958056Y-64458781D01*
X66543762Y-64458420D01*
X66160865Y-64616629D01*
X65867659Y-64909324D01*
X65708781Y-65291944D01*
X65708420Y-65706238D01*
X65866629Y-66089135D01*
X66159324Y-66382341D01*
X66541944Y-66541219D01*
X66956238Y-66541580D01*
X67339135Y-66383371D01*
X67632341Y-66090676D01*
X67791219Y-65708056D01*
X67791580Y-65293762D01*
X67791580Y-101796800D01*
X67291580Y-101796800D01*
X67291580Y-97293762D01*
X67133371Y-96910865D01*
X66840676Y-96617659D01*
X66458056Y-96458781D01*
X66043762Y-96458420D01*
X65660865Y-96616629D01*
X65367659Y-96909324D01*
X65208781Y-97291944D01*
X65208420Y-97706238D01*
X65366629Y-98089135D01*
X65659324Y-98382341D01*
X66041944Y-98541219D01*
X66456238Y-98541580D01*
X66839135Y-98383371D01*
X67132341Y-98090676D01*
X67291219Y-97708056D01*
X67291580Y-97293762D01*
X67291580Y-101796800D01*
X64952665Y-101796800D01*
X64952665Y-84811367D01*
X64823872Y-84499666D01*
X64952335Y-84190295D01*
X64952665Y-83811367D01*
X64823872Y-83499666D01*
X64952335Y-83190295D01*
X64952665Y-82811367D01*
X64823872Y-82499666D01*
X64952335Y-82190295D01*
X64952665Y-81811367D01*
X64807961Y-81461157D01*
X64540253Y-81192980D01*
X64190295Y-81047665D01*
X63811367Y-81047335D01*
X63499666Y-81176127D01*
X63190295Y-81047665D01*
X62811367Y-81047335D01*
X62499666Y-81176127D01*
X62190295Y-81047665D01*
X61811367Y-81047335D01*
X61499666Y-81176127D01*
X61190295Y-81047665D01*
X60811367Y-81047335D01*
X60704090Y-81091660D01*
X60704090Y-77120747D01*
X60704090Y-76878233D01*
X60704090Y-74879253D01*
X60611284Y-74655199D01*
X60439801Y-74483716D01*
X60215747Y-74390910D01*
X59973233Y-74390910D01*
X57974253Y-74390910D01*
X57750199Y-74483716D01*
X57578716Y-74655199D01*
X57485910Y-74879253D01*
X57485910Y-75121767D01*
X57485910Y-77120747D01*
X57578716Y-77344801D01*
X57750199Y-77516284D01*
X57974253Y-77609090D01*
X58216767Y-77609090D01*
X60215747Y-77609090D01*
X60439801Y-77516284D01*
X60611284Y-77344801D01*
X60704090Y-77120747D01*
X60704090Y-81091660D01*
X60499666Y-81176127D01*
X60190295Y-81047665D01*
X59811367Y-81047335D01*
X59499666Y-81176127D01*
X59190295Y-81047665D01*
X58811367Y-81047335D01*
X58499666Y-81176127D01*
X58190295Y-81047665D01*
X57811367Y-81047335D01*
X57461157Y-81192039D01*
X57192980Y-81459747D01*
X57047665Y-81809705D01*
X57047335Y-82188633D01*
X57176127Y-82500333D01*
X57047665Y-82809705D01*
X57047335Y-83188633D01*
X57176127Y-83500333D01*
X57047665Y-83809705D01*
X57047335Y-84188633D01*
X57176127Y-84500333D01*
X57047665Y-84809705D01*
X57047335Y-85188633D01*
X57192039Y-85538843D01*
X57459747Y-85807020D01*
X57809705Y-85952335D01*
X58188633Y-85952665D01*
X58538843Y-85807961D01*
X58807020Y-85540253D01*
X58952335Y-85190295D01*
X58952665Y-84811367D01*
X58823872Y-84499666D01*
X58952335Y-84190295D01*
X58952665Y-83811367D01*
X58823872Y-83499666D01*
X58952335Y-83190295D01*
X58952542Y-82952459D01*
X59188633Y-82952665D01*
X59500333Y-82823872D01*
X59809705Y-82952335D01*
X60188633Y-82952665D01*
X60500333Y-82823872D01*
X60809705Y-82952335D01*
X61188633Y-82952665D01*
X61500333Y-82823872D01*
X61809705Y-82952335D01*
X62188633Y-82952665D01*
X62500333Y-82823872D01*
X62809705Y-82952335D01*
X63047540Y-82952542D01*
X63047335Y-83188633D01*
X63176127Y-83500333D01*
X63047665Y-83809705D01*
X63047335Y-84188633D01*
X63176127Y-84500333D01*
X63047665Y-84809705D01*
X63047335Y-85188633D01*
X63192039Y-85538843D01*
X63459747Y-85807020D01*
X63809705Y-85952335D01*
X64188633Y-85952665D01*
X64538843Y-85807961D01*
X64807020Y-85540253D01*
X64952335Y-85190295D01*
X64952665Y-84811367D01*
X64952665Y-101796800D01*
X63541580Y-101796800D01*
X63541580Y-87293762D01*
X63383371Y-86910865D01*
X63090676Y-86617659D01*
X62708056Y-86458781D01*
X62293762Y-86458420D01*
X61910865Y-86616629D01*
X61617659Y-86909324D01*
X61458781Y-87291944D01*
X61458420Y-87706238D01*
X61616629Y-88089135D01*
X61909324Y-88382341D01*
X62291944Y-88541219D01*
X62706238Y-88541580D01*
X63089135Y-88383371D01*
X63382341Y-88090676D01*
X63541219Y-87708056D01*
X63541580Y-87293762D01*
X63541580Y-101796800D01*
X53649090Y-101796800D01*
X53649090Y-77120747D01*
X53649090Y-76878233D01*
X53649090Y-74879253D01*
X53649090Y-66120747D01*
X53649090Y-65878233D01*
X53649090Y-63879253D01*
X53556284Y-63655199D01*
X53384801Y-63483716D01*
X53160747Y-63390910D01*
X52918233Y-63390910D01*
X50919253Y-63390910D01*
X50695199Y-63483716D01*
X50523716Y-63655199D01*
X50430910Y-63879253D01*
X50430910Y-64121767D01*
X50430910Y-66120747D01*
X50523716Y-66344801D01*
X50695199Y-66516284D01*
X50919253Y-66609090D01*
X51161767Y-66609090D01*
X53160747Y-66609090D01*
X53384801Y-66516284D01*
X53556284Y-66344801D01*
X53649090Y-66120747D01*
X53649090Y-74879253D01*
X53556284Y-74655199D01*
X53384801Y-74483716D01*
X53160747Y-74390910D01*
X52918233Y-74390910D01*
X50919253Y-74390910D01*
X50695199Y-74483716D01*
X50523716Y-74655199D01*
X50430910Y-74879253D01*
X50430910Y-75121767D01*
X50430910Y-77120747D01*
X50523716Y-77344801D01*
X50695199Y-77516284D01*
X50919253Y-77609090D01*
X51161767Y-77609090D01*
X53160747Y-77609090D01*
X53384801Y-77516284D01*
X53556284Y-77344801D01*
X53649090Y-77120747D01*
X53649090Y-101796800D01*
X53541580Y-101796800D01*
X53541580Y-96293762D01*
X53541580Y-89543762D01*
X53383371Y-89160865D01*
X53090676Y-88867659D01*
X52708056Y-88708781D01*
X52293762Y-88708420D01*
X51910865Y-88866629D01*
X51617659Y-89159324D01*
X51458781Y-89541944D01*
X51458420Y-89956238D01*
X51616629Y-90339135D01*
X51909324Y-90632341D01*
X52291944Y-90791219D01*
X52706238Y-90791580D01*
X53089135Y-90633371D01*
X53382341Y-90340676D01*
X53541219Y-89958056D01*
X53541580Y-89543762D01*
X53541580Y-96293762D01*
X53383371Y-95910865D01*
X53090676Y-95617659D01*
X52708056Y-95458781D01*
X52293762Y-95458420D01*
X51910865Y-95616629D01*
X51617659Y-95909324D01*
X51458781Y-96291944D01*
X51458420Y-96706238D01*
X51616629Y-97089135D01*
X51909324Y-97382341D01*
X52291944Y-97541219D01*
X52706238Y-97541580D01*
X53089135Y-97383371D01*
X53382341Y-97090676D01*
X53541219Y-96708056D01*
X53541580Y-96293762D01*
X53541580Y-101796800D01*
X50109835Y-101796800D01*
X50109835Y-55582241D01*
X49789364Y-54806642D01*
X49196479Y-54212721D01*
X48421440Y-53890897D01*
X47582241Y-53890165D01*
X46806642Y-54210636D01*
X46212721Y-54803521D01*
X45890897Y-55578560D01*
X45890165Y-56417759D01*
X46210636Y-57193358D01*
X46803521Y-57787279D01*
X47578560Y-58109103D01*
X48417759Y-58109835D01*
X49193358Y-57789364D01*
X49787279Y-57196479D01*
X50109103Y-56421440D01*
X50109835Y-55582241D01*
X50109835Y-101796800D01*
X49650930Y-101796800D01*
X49650930Y-92500000D01*
X49650930Y-87500000D01*
X49528406Y-86884033D01*
X49179489Y-86361841D01*
X48657297Y-86012924D01*
X48041330Y-85890400D01*
X46958670Y-85890400D01*
X46342703Y-86012924D01*
X45820511Y-86361841D01*
X45471594Y-86884033D01*
X45349070Y-87500000D01*
X45471594Y-88115967D01*
X45820511Y-88638159D01*
X46342703Y-88987076D01*
X46958670Y-89109600D01*
X48041330Y-89109600D01*
X48657297Y-88987076D01*
X49179489Y-88638159D01*
X49528406Y-88115967D01*
X49650930Y-87500000D01*
X49650930Y-92500000D01*
X49528406Y-91884033D01*
X49179489Y-91361841D01*
X48657297Y-91012924D01*
X48041330Y-90890400D01*
X46958670Y-90890400D01*
X46342703Y-91012924D01*
X45820511Y-91361841D01*
X45471594Y-91884033D01*
X45349070Y-92500000D01*
X45471594Y-93115967D01*
X45820511Y-93638159D01*
X46342703Y-93987076D01*
X46958670Y-94109600D01*
X48041330Y-94109600D01*
X48657297Y-93987076D01*
X49179489Y-93638159D01*
X49528406Y-93115967D01*
X49650930Y-92500000D01*
X49650930Y-101796800D01*
X43659600Y-101796800D01*
X43659600Y-56531914D01*
X43833116Y-54742783D01*
X44631416Y-53243885D01*
X45942553Y-52164581D01*
X47598346Y-51659600D01*
X137935035Y-51659600D01*
X139656054Y-52001931D01*
X141059990Y-52940012D01*
X141998068Y-54343946D01*
X142340400Y-56064964D01*
X142340400Y-101796800D01*
X140650930Y-101796800D01*
X140650930Y-92500000D01*
X140650930Y-87500000D01*
X140528406Y-86884033D01*
X140179489Y-86361841D01*
X140109835Y-86315299D01*
X140109835Y-55582241D01*
X139789364Y-54806642D01*
X139196479Y-54212721D01*
X138421440Y-53890897D01*
X137582241Y-53890165D01*
X136806642Y-54210636D01*
X136212721Y-54803521D01*
X135890897Y-55578560D01*
X135890165Y-56417759D01*
X136210636Y-57193358D01*
X136803521Y-57787279D01*
X137578560Y-58109103D01*
X138417759Y-58109835D01*
X139193358Y-57789364D01*
X139787279Y-57196479D01*
X140109103Y-56421440D01*
X140109835Y-55582241D01*
X140109835Y-86315299D01*
X139657297Y-86012924D01*
X139041330Y-85890400D01*
X137958670Y-85890400D01*
X137342703Y-86012924D01*
X136820511Y-86361841D01*
X136471594Y-86884033D01*
X136349070Y-87500000D01*
X136471594Y-88115967D01*
X136820511Y-88638159D01*
X137342703Y-88987076D01*
X137958670Y-89109600D01*
X139041330Y-89109600D01*
X139657297Y-88987076D01*
X140179489Y-88638159D01*
X140528406Y-88115967D01*
X140650930Y-87500000D01*
X140650930Y-92500000D01*
X140528406Y-91884033D01*
X140179489Y-91361841D01*
X139657297Y-91012924D01*
X139041330Y-90890400D01*
X137958670Y-90890400D01*
X137342703Y-91012924D01*
X136820511Y-91361841D01*
X136471594Y-91884033D01*
X136349070Y-92500000D01*
X136471594Y-93115967D01*
X136820511Y-93638159D01*
X137342703Y-93987076D01*
X137958670Y-94109600D01*
X139041330Y-94109600D01*
X139657297Y-93987076D01*
X140179489Y-93638159D01*
X140528406Y-93115967D01*
X140650930Y-92500000D01*
X140650930Y-101796800D01*
X124459230Y-101796800D01*
X124459230Y-55946658D01*
X124459230Y-54053342D01*
X124348153Y-53494919D01*
X124031831Y-53021511D01*
X123558423Y-52705189D01*
X123000000Y-52594112D01*
X122441577Y-52705189D01*
X121968169Y-53021511D01*
X121730000Y-53377955D01*
X121491831Y-53021511D01*
X121018423Y-52705189D01*
X120460000Y-52594112D01*
X119901577Y-52705189D01*
X119428169Y-53021511D01*
X119111847Y-53494919D01*
X119000770Y-54053342D01*
X119000770Y-55946658D01*
X119111847Y-56505081D01*
X119428169Y-56978489D01*
X119901577Y-57294811D01*
X120460000Y-57405888D01*
X121018423Y-57294811D01*
X121491831Y-56978489D01*
X121730000Y-56622044D01*
X121968169Y-56978489D01*
X122441577Y-57294811D01*
X123000000Y-57405888D01*
X123558423Y-57294811D01*
X124031831Y-56978489D01*
X124348153Y-56505081D01*
X124459230Y-55946658D01*
X124459230Y-101796800D01*
X115291580Y-101796800D01*
X115291580Y-69793762D01*
X115133371Y-69410865D01*
X114840676Y-69117659D01*
X114458056Y-68958781D01*
X114043762Y-68958420D01*
X113660865Y-69116629D01*
X113367659Y-69409324D01*
X113208781Y-69791944D01*
X113208420Y-70206238D01*
X113366629Y-70589135D01*
X113659324Y-70882341D01*
X114041944Y-71041219D01*
X114456238Y-71041580D01*
X114839135Y-70883371D01*
X115132341Y-70590676D01*
X115291219Y-70208056D01*
X115291580Y-69793762D01*
X115291580Y-101796800D01*
X114791580Y-101796800D01*
X114791580Y-86293762D01*
X114633371Y-85910865D01*
X114340676Y-85617659D01*
X113958056Y-85458781D01*
X113543762Y-85458420D01*
X113160865Y-85616629D01*
X112867659Y-85909324D01*
X112708781Y-86291944D01*
X112708420Y-86706238D01*
X112866629Y-87089135D01*
X113159324Y-87382341D01*
X113541944Y-87541219D01*
X113956238Y-87541580D01*
X114339135Y-87383371D01*
X114632341Y-87090676D01*
X114791219Y-86708056D01*
X114791580Y-86293762D01*
X114791580Y-101796800D01*
X112291580Y-101796800D01*
X112291580Y-67293762D01*
X112133371Y-66910865D01*
X111840676Y-66617659D01*
X111458056Y-66458781D01*
X111043762Y-66458420D01*
X110660865Y-66616629D01*
X110367659Y-66909324D01*
X110208781Y-67291944D01*
X110208420Y-67706238D01*
X110366629Y-68089135D01*
X110659324Y-68382341D01*
X111041944Y-68541219D01*
X111456238Y-68541580D01*
X111839135Y-68383371D01*
X112132341Y-68090676D01*
X112291219Y-67708056D01*
X112291580Y-67293762D01*
X112291580Y-101796800D01*
X110202665Y-101796800D01*
X110202665Y-59061367D01*
X110057961Y-58711157D01*
X109790253Y-58442980D01*
X109440295Y-58297665D01*
X109061367Y-58297335D01*
X108711157Y-58442039D01*
X108442980Y-58709747D01*
X108297665Y-59059705D01*
X108297335Y-59438633D01*
X108442039Y-59788843D01*
X108709747Y-60057020D01*
X109059705Y-60202335D01*
X109438633Y-60202665D01*
X109788843Y-60057961D01*
X110057020Y-59790253D01*
X110202335Y-59440295D01*
X110202665Y-59061367D01*
X110202665Y-101796800D01*
X109041580Y-101796800D01*
X109041580Y-68293762D01*
X108920097Y-67999749D01*
X109041219Y-67708056D01*
X109041580Y-67293762D01*
X108920097Y-66999749D01*
X109041219Y-66708056D01*
X109041580Y-66293762D01*
X108920097Y-65999749D01*
X109041219Y-65708056D01*
X109041580Y-65293762D01*
X108883371Y-64910865D01*
X108590676Y-64617659D01*
X108208056Y-64458781D01*
X107793762Y-64458420D01*
X107410865Y-64616629D01*
X107117659Y-64909324D01*
X106958781Y-65291944D01*
X106958420Y-65706238D01*
X107079902Y-66000250D01*
X106958781Y-66291944D01*
X106958420Y-66706238D01*
X107079902Y-67000250D01*
X106958781Y-67291944D01*
X106958420Y-67706238D01*
X107079902Y-68000250D01*
X106958781Y-68291944D01*
X106958420Y-68706238D01*
X107116629Y-69089135D01*
X107409324Y-69382341D01*
X107791944Y-69541219D01*
X108206238Y-69541580D01*
X108589135Y-69383371D01*
X108882341Y-69090676D01*
X109041219Y-68708056D01*
X109041580Y-68293762D01*
X109041580Y-101796800D01*
X105452665Y-101796800D01*
X105452665Y-93561367D01*
X105307961Y-93211157D01*
X105040253Y-92942980D01*
X104690295Y-92797665D01*
X104459230Y-92797463D01*
X104459230Y-55946658D01*
X104459230Y-54053342D01*
X104348153Y-53494919D01*
X104031831Y-53021511D01*
X103558423Y-52705189D01*
X103000000Y-52594112D01*
X102441577Y-52705189D01*
X101968169Y-53021511D01*
X101730000Y-53377955D01*
X101491831Y-53021511D01*
X101018423Y-52705189D01*
X100460000Y-52594112D01*
X99901577Y-52705189D01*
X99428169Y-53021511D01*
X99111847Y-53494919D01*
X99000770Y-54053342D01*
X99000770Y-55946658D01*
X99111847Y-56505081D01*
X99428169Y-56978489D01*
X99901577Y-57294811D01*
X100460000Y-57405888D01*
X101018423Y-57294811D01*
X101491831Y-56978489D01*
X101730000Y-56622044D01*
X101968169Y-56978489D01*
X102441577Y-57294811D01*
X103000000Y-57405888D01*
X103558423Y-57294811D01*
X104031831Y-56978489D01*
X104348153Y-56505081D01*
X104459230Y-55946658D01*
X104459230Y-92797463D01*
X104311367Y-92797335D01*
X103961157Y-92942039D01*
X103692980Y-93209747D01*
X103547665Y-93559705D01*
X103547335Y-93938633D01*
X103692039Y-94288843D01*
X103959747Y-94557020D01*
X104309705Y-94702335D01*
X104688633Y-94702665D01*
X105038843Y-94557961D01*
X105307020Y-94290253D01*
X105452335Y-93940295D01*
X105452665Y-93561367D01*
X105452665Y-101796800D01*
X102796800Y-101796800D01*
X102796800Y-103203200D01*
X142340400Y-103203200D01*
X142340400Y-125935035D01*
M02*
